<?xml version="1.0" encoding="UTF-8" standalone="no"?>
<!DOCTYPE svg PUBLIC "-//W3C//DTD SVG 1.1//EN"
 "http://www.w3.org/Graphics/SVG/1.1/DTD/svg11.dtd">
<!-- Generated by graphviz version 2.40.1 (20161225.0304)
 -->
<!-- Title: G Pages: 1 -->
<svg width="1309pt" height="474pt"
 viewBox="0.00 0.00 1309.35 474.00" xmlns="http://www.w3.org/2000/svg" xmlns:xlink="http://www.w3.org/1999/xlink">
<g id="graph0" class="graph" transform="scale(1 1) rotate(0) translate(4 470)">
<title>G</title>
<polygon fill="#ffffff" stroke="transparent" points="-4,4 -4,-470 1305.3535,-470 1305.3535,4 -4,4"/>
<!-- A0 -->
<g id="node1" class="node">
<title>A0</title>
<polygon fill="#a020f0" stroke="#000000" points="690.4585,-466 635.0055,-466 635.0055,-430 690.4585,-430 690.4585,-466"/>
<text text-anchor="middle" x="662.732" y="-445" font-family="Helvetica,sans-Serif" font-size="10.00" fill="#000000">Game</text>
</g>
<!-- A1 -->
<g id="node2" class="node">
<title>A1</title>
<polygon fill="none" stroke="#000000" points="605.8042,-380 527.6598,-380 527.6598,-344 605.8042,-344 605.8042,-380"/>
<text text-anchor="middle" x="566.732" y="-365" font-family="Helvetica,sans-Serif" font-size="10.00" fill="#000000">&lt;&lt;enum&gt;&gt;</text>
<text text-anchor="middle" x="566.732" y="-353" font-family="Helvetica,sans-Serif" font-size="10.00" fill="#000000">GameState</text>
</g>
<!-- A0&#45;&gt;A1 -->
<g id="edge1" class="edge">
<title>A0&#45;&gt;A1</title>
<path fill="none" stroke="#000000" stroke-dasharray="5,2" d="M634.7343,-422.9187C619.4738,-409.2479 600.9284,-392.6343 587.0618,-380.2121"/>
<polygon fill="#000000" stroke="#000000" points="642.3729,-429.7616 631.9219,-426.4409 638.6487,-426.4254 634.9245,-423.0891 634.9245,-423.0891 634.9245,-423.0891 638.6487,-426.4254 637.9271,-419.7373 642.3729,-429.7616 642.3729,-429.7616"/>
<text text-anchor="middle" x="606.2026" y="-383.0111" font-family="Helvetica,sans-Serif" font-size="10.00" fill="#000000">nested</text>
</g>
<!-- A2 -->
<g id="node3" class="node">
<title>A2</title>
<polygon fill="none" stroke="#000000" points="1152.908,-380 1098.556,-380 1098.556,-344 1152.908,-344 1152.908,-380"/>
<text text-anchor="middle" x="1125.732" y="-359" font-family="Helvetica,sans-Serif" font-size="10.00" fill="#000000">Board</text>
</g>
<!-- A0&#45;&gt;A2 -->
<g id="edge2" class="edge">
<title>A0&#45;&gt;A2</title>
<path fill="none" stroke="#000000" d="M702.3189,-429.4734C794.8253,-403.1347 1019.98,-374.7211 1098.3618,-365.2492"/>
<polygon fill="#000000" stroke="#000000" points="702.1684,-429.519 697.5899,-435.0901 690.6863,-433.0066 695.2648,-427.4354 702.1684,-429.519"/>
<text text-anchor="middle" x="1081.399" y="-372.8447" font-family="Helvetica,sans-Serif" font-size="10.00" fill="#000000">1</text>
</g>
<!-- A4 -->
<g id="node5" class="node">
<title>A4</title>
<polygon fill="none" stroke="#000000" points="962.068,-380 905.396,-380 905.396,-344 962.068,-344 962.068,-380"/>
<text text-anchor="middle" x="933.732" y="-359" font-family="Helvetica,sans-Serif" font-size="10.00" fill="#000000">Player</text>
</g>
<!-- A0&#45;&gt;A4 -->
<g id="edge4" class="edge">
<title>A0&#45;&gt;A4</title>
<path fill="none" stroke="#000000" d="M702.0868,-429.11C782.39,-399.9193 808.8495,-405.7742 887.732,-380 893.4382,-378.1356 899.4631,-375.9449 905.2058,-373.7458"/>
<polygon fill="#000000" stroke="#000000" points="701.6324,-429.2792 697.4062,-435.1222 690.3873,-433.4684 694.6134,-427.6255 701.6324,-429.2792"/>
<text text-anchor="middle" x="891.275" y="-385.0962" font-family="Helvetica,sans-Serif" font-size="10.00" fill="#000000">2..4</text>
</g>
<!-- A7 -->
<g id="node8" class="node">
<title>A7</title>
<polygon fill="none" stroke="#000000" points="453.242,-380 370.222,-380 370.222,-344 453.242,-344 453.242,-380"/>
<text text-anchor="middle" x="411.732" y="-359" font-family="Helvetica,sans-Serif" font-size="10.00" fill="#000000">PlayerBoard</text>
</g>
<!-- A0&#45;&gt;A7 -->
<g id="edge12" class="edge">
<title>A0&#45;&gt;A7</title>
<path fill="none" stroke="#000000" d="M623.2694,-434.479C576.9957,-418.6242 500.6329,-392.4601 453.4194,-376.2833"/>
<polygon fill="#000000" stroke="#000000" points="623.5594,-434.5783 630.5321,-432.739 634.9116,-438.4679 627.939,-440.3071 623.5594,-434.5783"/>
<text text-anchor="middle" x="473.3067" y="-371.1626" font-family="Helvetica,sans-Serif" font-size="10.00" fill="#000000">1</text>
</g>
<!-- A10 -->
<g id="node11" class="node">
<title>A10</title>
<polygon fill="none" stroke="#000000" points="853.1889,-122 740.2751,-122 740.2751,-86 853.1889,-86 853.1889,-122"/>
<text text-anchor="middle" x="796.732" y="-101" font-family="Helvetica,sans-Serif" font-size="10.00" fill="#000000">ChoosePlayerView</text>
</g>
<!-- A0&#45;&gt;A10 -->
<g id="edge33" class="edge">
<title>A0&#45;&gt;A10</title>
<path fill="none" stroke="#000000" d="M625.2593,-440.2254C592.1707,-431.3633 545.1921,-413.5381 518.732,-380 484.7835,-336.9704 483.1123,-309.8999 500.732,-258 516.2208,-212.3768 527.017,-199.2782 566.732,-172 615.7587,-138.3261 681.6803,-121.0598 730.3797,-112.3749"/>
<polygon fill="#000000" stroke="#000000" points="635.0441,-442.6954 624.2468,-444.6109 630.1962,-441.4716 625.3483,-440.2478 625.3483,-440.2478 625.3483,-440.2478 630.1962,-441.4716 626.4497,-435.8846 635.0441,-442.6954 635.0441,-442.6954"/>
<polygon fill="#000000" stroke="#000000" points="740.498,-110.6491 731.397,-116.7665 735.5691,-111.4898 730.6403,-112.3305 730.6403,-112.3305 730.6403,-112.3305 735.5691,-111.4898 729.8837,-107.8946 740.498,-110.6491 740.498,-110.6491"/>
</g>
<!-- A20 -->
<g id="node21" class="node">
<title>A20</title>
<polygon fill="none" stroke="#000000" points="735.1241,-294 658.3399,-294 658.3399,-258 735.1241,-258 735.1241,-294"/>
<text text-anchor="middle" x="696.732" y="-273" font-family="Helvetica,sans-Serif" font-size="10.00" fill="#000000">GameView</text>
</g>
<!-- A0&#45;&gt;A20 -->
<g id="edge28" class="edge">
<title>A0&#45;&gt;A20</title>
<path fill="none" stroke="#000000" d="M699.2797,-426.3828C715.1524,-414.8284 732.0709,-399.0409 740.732,-380 752.6994,-353.6903 736.2898,-323.1916 720.2187,-302.0545"/>
<polygon fill="#000000" stroke="#000000" points="690.6282,-432.3603 696.2975,-422.9736 694.7419,-429.5181 698.8555,-426.6759 698.8555,-426.6759 698.8555,-426.6759 694.7419,-429.5181 701.4135,-430.3782 690.6282,-432.3603 690.6282,-432.3603"/>
<polygon fill="#000000" stroke="#000000" points="713.9038,-294.1637 723.6656,-299.1596 717.0279,-298.0675 720.1521,-301.9713 720.1521,-301.9713 720.1521,-301.9713 717.0279,-298.0675 716.6387,-304.7831 713.9038,-294.1637 713.9038,-294.1637"/>
</g>
<!-- A3 -->
<g id="node4" class="node">
<title>A3</title>
<polygon fill="none" stroke="#000000" points="1098.0213,-294 1017.4427,-294 1017.4427,-258 1098.0213,-258 1098.0213,-294"/>
<text text-anchor="middle" x="1057.732" y="-273" font-family="Helvetica,sans-Serif" font-size="10.00" fill="#000000">BoardSprite</text>
</g>
<!-- A2&#45;&gt;A3 -->
<g id="edge3" class="edge">
<title>A2&#45;&gt;A3</title>
<path fill="none" stroke="#000000" d="M1103.7904,-334.2503C1093.4172,-321.1313 1081.3237,-305.8366 1072.1323,-294.2121"/>
<polygon fill="#000000" stroke="#000000" points="1103.8681,-334.3486 1110.7272,-336.5742 1111.3109,-343.7616 1104.4518,-341.5361 1103.8681,-334.3486"/>
</g>
<!-- A19 -->
<g id="node20" class="node">
<title>A19</title>
<polygon fill="none" stroke="#000000" points="1090.0949,-208 1013.3691,-208 1013.3691,-172 1090.0949,-172 1090.0949,-208"/>
<text text-anchor="middle" x="1051.732" y="-193" font-family="Helvetica,sans-Serif" font-size="10.00" fill="#000000">&lt;&lt;enum&gt;&gt;</text>
<text text-anchor="middle" x="1051.732" y="-181" font-family="Helvetica,sans-Serif" font-size="10.00" fill="#000000">BoardWall</text>
</g>
<!-- A2&#45;&gt;A19 -->
<g id="edge19" class="edge">
<title>A2&#45;&gt;A19</title>
<path fill="none" stroke="#000000" d="M1124.3594,-333.7495C1122.4297,-312.1622 1117.8036,-282.1157 1106.732,-258 1099.6123,-242.4923 1088.1443,-227.4954 1077.5177,-215.5495"/>
<polygon fill="#000000" stroke="#000000" points="1125.1246,-343.8972 1119.8853,-334.2639 1124.7485,-338.9114 1124.3725,-333.9255 1124.3725,-333.9255 1124.3725,-333.9255 1124.7485,-338.9114 1128.8598,-333.5871 1125.1246,-343.8972 1125.1246,-343.8972"/>
<polygon fill="#000000" stroke="#000000" points="1070.7102,-208.1652 1080.7969,-212.4675 1074.0993,-211.8415 1077.4883,-215.5177 1077.4883,-215.5177 1077.4883,-215.5177 1074.0993,-211.8415 1074.1797,-218.5678 1070.7102,-208.1652 1070.7102,-208.1652"/>
</g>
<!-- A21 -->
<g id="node22" class="node">
<title>A21</title>
<polygon fill="none" stroke="#000000" points="1193.0949,-208 1116.3691,-208 1116.3691,-172 1193.0949,-172 1193.0949,-208"/>
<text text-anchor="middle" x="1154.732" y="-193" font-family="Helvetica,sans-Serif" font-size="10.00" fill="#000000">&lt;&lt;enum&gt;&gt;</text>
<text text-anchor="middle" x="1154.732" y="-181" font-family="Helvetica,sans-Serif" font-size="10.00" fill="#000000">Jewel</text>
</g>
<!-- A2&#45;&gt;A21 -->
<g id="edge23" class="edge">
<title>A2&#45;&gt;A21</title>
<path fill="none" stroke="#000000" d="M1131.9278,-333.8186C1134.51,-321.6092 1137.4353,-307.1317 1139.732,-294 1144.2014,-268.4452 1148.3341,-239.1887 1151.1249,-218.2292"/>
<polygon fill="#000000" stroke="#000000" points="1129.7715,-343.8733 1127.4685,-333.152 1130.82,-338.9845 1131.8685,-334.0957 1131.8685,-334.0957 1131.8685,-334.0957 1130.82,-338.9845 1136.2684,-335.0393 1129.7715,-343.8733 1129.7715,-343.8733"/>
<polygon fill="#000000" stroke="#000000" points="1152.4567,-208.0886 1155.6162,-218.5895 1151.8056,-213.046 1151.1545,-218.0035 1151.1545,-218.0035 1151.1545,-218.0035 1151.8056,-213.046 1146.6928,-217.4175 1152.4567,-208.0886 1152.4567,-208.0886"/>
</g>
<!-- A27 -->
<g id="node28" class="node">
<title>A27</title>
<polygon fill="none" stroke="#000000" points="1285.9195,-294 1191.5445,-294 1191.5445,-258 1285.9195,-258 1285.9195,-294"/>
<text text-anchor="middle" x="1238.732" y="-273" font-family="Helvetica,sans-Serif" font-size="10.00" fill="#000000">PathFinder&lt;T&gt;</text>
</g>
<!-- A2&#45;&gt;A27 -->
<g id="edge38" class="edge">
<title>A2&#45;&gt;A27</title>
<path fill="none" stroke="#000000" d="M1157.4811,-337.837C1172.9077,-326.0964 1191.4025,-312.0207 1206.847,-300.2664"/>
<polygon fill="#000000" stroke="#000000" points="1149.4205,-343.9716 1154.6528,-334.3344 1153.3993,-340.9435 1157.3781,-337.9154 1157.3781,-337.9154 1157.3781,-337.9154 1153.3993,-340.9435 1160.1034,-341.4963 1149.4205,-343.9716 1149.4205,-343.9716"/>
<polygon fill="#000000" stroke="#000000" points="1215.0747,-294.0047 1209.8424,-303.6418 1211.0959,-297.0328 1207.1171,-300.0609 1207.1171,-300.0609 1207.1171,-300.0609 1211.0959,-297.0328 1204.3918,-296.48 1215.0747,-294.0047 1215.0747,-294.0047"/>
</g>
<!-- A8 -->
<g id="node9" class="node">
<title>A8</title>
<polygon fill="none" stroke="#000000" points="990.0949,-208 913.3691,-208 913.3691,-172 990.0949,-172 990.0949,-208"/>
<text text-anchor="middle" x="951.732" y="-193" font-family="Helvetica,sans-Serif" font-size="10.00" fill="#000000">&lt;&lt;enum&gt;&gt;</text>
<text text-anchor="middle" x="951.732" y="-181" font-family="Helvetica,sans-Serif" font-size="10.00" fill="#000000">Turtle</text>
</g>
<!-- A3&#45;&gt;A8 -->
<g id="edge8" class="edge">
<title>A3&#45;&gt;A8</title>
<path fill="none" stroke="#000000" d="M1035.5109,-257.9716C1020.3879,-245.702 1000.1485,-229.2813 983.3513,-215.6534"/>
<polygon fill="#000000" stroke="#000000" points="983.2426,-215.5652 976.063,-214.8912 973.9238,-208.0047 981.1034,-208.6787 983.2426,-215.5652"/>
<text text-anchor="middle" x="1016.1095" y="-250.1151" font-family="Helvetica,sans-Serif" font-size="10.00" fill="#000000">4</text>
</g>
<!-- A3&#45;&gt;A19 -->
<g id="edge18" class="edge">
<title>A3&#45;&gt;A19</title>
<path fill="none" stroke="#000000" d="M1056.4596,-257.7616C1055.7038,-246.9298 1054.7263,-232.9179 1053.8564,-220.4492"/>
<polygon fill="#000000" stroke="#000000" points="1053.8379,-220.183 1049.4299,-214.476 1053.0026,-208.2121 1057.4105,-213.9191 1053.8379,-220.183"/>
<text text-anchor="middle" x="1046.7661" y="-237.2677" font-family="Helvetica,sans-Serif" font-size="10.00" fill="#000000">1</text>
</g>
<!-- A3&#45;&gt;A21 -->
<g id="edge22" class="edge">
<title>A3&#45;&gt;A21</title>
<path fill="none" stroke="#000000" d="M1078.3032,-257.7616C1091.9352,-245.6756 1110.0326,-229.6304 1125.1951,-216.1874"/>
<polygon fill="#000000" stroke="#000000" points="1125.2113,-216.173 1127.0472,-209.1995 1134.1904,-208.2121 1132.3545,-215.1856 1125.2113,-216.173"/>
<text text-anchor="middle" x="1086.2589" y="-236.4121" font-family="Helvetica,sans-Serif" font-size="10.00" fill="#000000">1</text>
</g>
<!-- A6 -->
<g id="node7" class="node">
<title>A6</title>
<polygon fill="none" stroke="#000000" points="924.0949,-294 847.3691,-294 847.3691,-258 924.0949,-258 924.0949,-294"/>
<text text-anchor="middle" x="885.732" y="-279" font-family="Helvetica,sans-Serif" font-size="10.00" fill="#000000">&lt;&lt;enum&gt;&gt;</text>
<text text-anchor="middle" x="885.732" y="-267" font-family="Helvetica,sans-Serif" font-size="10.00" fill="#000000">Card</text>
</g>
<!-- A4&#45;&gt;A6 -->
<g id="edge5" class="edge">
<title>A4&#45;&gt;A6</title>
<path fill="none" stroke="#000000" d="M917.5947,-333.0873C910.4212,-320.2348 902.1941,-305.4947 895.8969,-294.2121"/>
<polygon fill="#000000" stroke="#000000" points="917.704,-333.2832 924.121,-336.5729 923.5524,-343.7616 917.1354,-340.4719 917.704,-333.2832"/>
<text text-anchor="middle" x="912.1116" y="-302.9204" font-family="Helvetica,sans-Serif" font-size="10.00" fill="#000000">37</text>
</g>
<!-- A4&#45;&gt;A8 -->
<g id="edge9" class="edge">
<title>A4&#45;&gt;A8</title>
<path fill="none" stroke="#000000" d="M936.8864,-331.8575C940.6319,-296.0673 946.758,-237.5291 949.8381,-208.0977"/>
<polygon fill="none" stroke="#000000" points="936.8734,-331.9833 940.2271,-338.367 935.6243,-343.9181 932.2706,-337.5343 936.8734,-331.9833"/>
</g>
<!-- A4&#45;&gt;A19 -->
<g id="edge20" class="edge">
<title>A4&#45;&gt;A19</title>
<path fill="none" stroke="#000000" d="M951.8857,-335.5386C974.0393,-303.247 1011.2804,-248.9633 1033.4789,-216.6062"/>
<polygon fill="#000000" stroke="#000000" points="946.137,-343.9181 948.0835,-333.1263 948.9656,-339.7951 951.7942,-335.672 951.7942,-335.672 951.7942,-335.672 948.9656,-339.7951 955.5049,-338.2178 946.137,-343.9181 946.137,-343.9181"/>
<polygon fill="#000000" stroke="#000000" points="1039.3161,-208.0977 1037.3696,-218.8895 1036.4875,-212.2208 1033.6589,-216.3438 1033.6589,-216.3438 1033.6589,-216.3438 1036.4875,-212.2208 1029.9482,-213.798 1039.3161,-208.0977 1039.3161,-208.0977"/>
</g>
<!-- A5 -->
<g id="node6" class="node">
<title>A5</title>
<polygon fill="none" stroke="#000000" points="879.1822,-380 796.2818,-380 796.2818,-344 879.1822,-344 879.1822,-380"/>
<text text-anchor="middle" x="837.732" y="-359" font-family="Helvetica,sans-Serif" font-size="10.00" fill="#000000">PlayerSprite</text>
</g>
<!-- A5&#45;&gt;A6 -->
<g id="edge6" class="edge">
<title>A5&#45;&gt;A6</title>
<path fill="none" stroke="#000000" d="M847.9116,-343.7616C854.2118,-332.4737 862.4395,-317.7323 869.6114,-304.8828"/>
<polygon fill="#000000" stroke="#000000" points="869.7187,-304.6905 869.1501,-297.5018 875.5671,-294.2121 876.1357,-301.4008 869.7187,-304.6905"/>
<text text-anchor="middle" x="849.3651" y="-320.8145" font-family="Helvetica,sans-Serif" font-size="10.00" fill="#000000">1</text>
</g>
<!-- A22 -->
<g id="node23" class="node">
<title>A22</title>
<polygon fill="none" stroke="#000000" points="830.0949,-294 753.3691,-294 753.3691,-258 830.0949,-258 830.0949,-294"/>
<text text-anchor="middle" x="791.732" y="-279" font-family="Helvetica,sans-Serif" font-size="10.00" fill="#000000">&lt;&lt;enum&gt;&gt;</text>
<text text-anchor="middle" x="791.732" y="-267" font-family="Helvetica,sans-Serif" font-size="10.00" fill="#000000">PlayerWall</text>
</g>
<!-- A5&#45;&gt;A22 -->
<g id="edge24" class="edge">
<title>A5&#45;&gt;A22</title>
<path fill="none" stroke="#000000" d="M827.9766,-343.7616C821.9389,-332.4737 814.0539,-317.7323 807.1809,-304.8828"/>
<polygon fill="#000000" stroke="#000000" points="807.1332,-304.7935 800.7762,-301.3894 801.4734,-294.2121 807.8304,-297.6162 807.1332,-304.7935"/>
<text text-anchor="middle" x="811.9742" y="-328.7648" font-family="Helvetica,sans-Serif" font-size="10.00" fill="#000000">1</text>
</g>
<!-- A7&#45;&gt;A6 -->
<g id="edge7" class="edge">
<title>A7&#45;&gt;A6</title>
<path fill="none" stroke="#000000" d="M463.4314,-353.1778C480.978,-350.2169 500.7013,-346.9251 518.732,-344 657.6307,-321.4663 697.8403,-330.6205 837.676,-294.0039"/>
<polygon fill="#000000" stroke="#000000" points="453.381,-354.8777 462.4905,-348.773 458.311,-354.0438 463.2409,-353.2099 463.2409,-353.2099 463.2409,-353.2099 458.311,-354.0438 463.9914,-357.6469 453.381,-354.8777 453.381,-354.8777"/>
<polygon fill="#000000" stroke="#000000" points="847.4753,-291.4064 838.9621,-298.3184 842.6422,-292.6875 837.8091,-293.9687 837.8091,-293.9687 837.8091,-293.9687 842.6422,-292.6875 836.6561,-289.6189 847.4753,-291.4064 847.4753,-291.4064"/>
</g>
<!-- A12 -->
<g id="node13" class="node">
<title>A12</title>
<polygon fill="none" stroke="#000000" points="127.6968,-294 -.2328,-294 -.2328,-258 127.6968,-258 127.6968,-294"/>
<text text-anchor="middle" x="63.732" y="-273" font-family="Helvetica,sans-Serif" font-size="10.00" fill="#000000">OnDeckActionListener</text>
</g>
<!-- A7&#45;&gt;A12 -->
<g id="edge14" class="edge">
<title>A7&#45;&gt;A12</title>
<path fill="none" stroke="#000000" stroke-dasharray="5,2" d="M360.1652,-349.2565C298.2598,-333.958 194.4383,-308.301 127.5412,-291.7689"/>
<polygon fill="#000000" stroke="#000000" points="370.1007,-351.7118 359.3131,-353.6812 365.2468,-350.5122 360.3928,-349.3126 360.3928,-349.3126 360.3928,-349.3126 365.2468,-350.5122 361.4724,-344.9441 370.1007,-351.7118 370.1007,-351.7118"/>
<text text-anchor="middle" x="147.1658" y="-284.912" font-family="Helvetica,sans-Serif" font-size="10.00" fill="#000000">nested</text>
</g>
<!-- A13 -->
<g id="node14" class="node">
<title>A13</title>
<polygon fill="none" stroke="#000000" points="273.8147,-294 145.6493,-294 145.6493,-258 273.8147,-258 273.8147,-294"/>
<text text-anchor="middle" x="209.732" y="-273" font-family="Helvetica,sans-Serif" font-size="10.00" fill="#000000">OnHandActionListener</text>
</g>
<!-- A7&#45;&gt;A13 -->
<g id="edge15" class="edge">
<title>A7&#45;&gt;A13</title>
<path fill="none" stroke="#000000" stroke-dasharray="5,2" d="M360.273,-340.0917C326.8203,-325.8495 283.7297,-307.504 252.2279,-294.0923"/>
<polygon fill="#000000" stroke="#000000" points="369.8775,-344.1807 358.9139,-344.4039 365.277,-342.2221 360.6766,-340.2635 360.6766,-340.2635 360.6766,-340.2635 365.277,-342.2221 362.4394,-336.1231 369.8775,-344.1807 369.8775,-344.1807"/>
<text text-anchor="middle" x="272.2164" y="-290.4158" font-family="Helvetica,sans-Serif" font-size="10.00" fill="#000000">nested</text>
</g>
<!-- A14 -->
<g id="node15" class="node">
<title>A14</title>
<polygon fill="none" stroke="#000000" points="625.8651,-36 501.5989,-36 501.5989,0 625.8651,0 625.8651,-36"/>
<text text-anchor="middle" x="563.732" y="-15" font-family="Helvetica,sans-Serif" font-size="10.00" fill="#000000">OnPlayActionListener</text>
</g>
<!-- A7&#45;&gt;A14 -->
<g id="edge16" class="edge">
<title>A7&#45;&gt;A14</title>
<path fill="none" stroke="#000000" stroke-dasharray="5,2" d="M423.7406,-334.8226C453.5903,-267.2681 530.5479,-93.1007 555.6692,-36.2473"/>
<polygon fill="#000000" stroke="#000000" points="419.6902,-343.9894 419.6158,-333.0238 421.711,-339.416 423.7319,-334.8425 423.7319,-334.8425 423.7319,-334.8425 421.711,-339.416 427.848,-336.6613 419.6902,-343.9894 419.6902,-343.9894"/>
<text text-anchor="middle" x="556.0746" y="-53.2432" font-family="Helvetica,sans-Serif" font-size="10.00" fill="#000000">nested</text>
</g>
<!-- A15 -->
<g id="node16" class="node">
<title>A15</title>
<polygon fill="none" stroke="#000000" points="415.8541,-294 291.6099,-294 291.6099,-258 415.8541,-258 415.8541,-294"/>
<text text-anchor="middle" x="353.732" y="-273" font-family="Helvetica,sans-Serif" font-size="10.00" fill="#000000">OnWallActionListener</text>
</g>
<!-- A7&#45;&gt;A15 -->
<g id="edge17" class="edge">
<title>A7&#45;&gt;A15</title>
<path fill="none" stroke="#000000" stroke-dasharray="5,2" d="M393.7939,-335.4021C384.7783,-322.0342 374.0849,-306.1784 366.0146,-294.2121"/>
<polygon fill="#000000" stroke="#000000" points="399.4317,-343.7616 390.1094,-337.987 396.636,-339.6162 393.8402,-335.4709 393.8402,-335.4709 393.8402,-335.4709 396.636,-339.6162 397.5711,-332.9547 399.4317,-343.7616 399.4317,-343.7616"/>
<text text-anchor="middle" x="383.1573" y="-301.5139" font-family="Helvetica,sans-Serif" font-size="10.00" fill="#000000">nested</text>
</g>
<!-- A7&#45;&gt;A20 -->
<g id="edge26" class="edge">
<title>A7&#45;&gt;A20</title>
<path fill="none" stroke="#000000" d="M453.5656,-351.0756C498.7432,-339.0417 573.0265,-318.5726 646.5295,-294.591"/>
<polygon fill="#000000" stroke="#000000" points="646.9163,-294.4638 651.3653,-288.7887 658.315,-290.7127 653.866,-296.3878 646.9163,-294.4638"/>
<text text-anchor="middle" x="468.8859" y="-335.2191" font-family="Helvetica,sans-Serif" font-size="10.00" fill="#000000">2..4</text>
</g>
<!-- A7&#45;&gt;A22 -->
<g id="edge25" class="edge">
<title>A7&#45;&gt;A22</title>
<path fill="none" stroke="#000000" d="M463.7263,-352.3828C543.3661,-337.4772 691.788,-308.9591 743.732,-294 743.8309,-293.9715 743.9299,-293.9429 744.0289,-293.9142"/>
<polygon fill="#000000" stroke="#000000" points="453.4302,-354.3058 462.4341,-348.0463 458.3452,-353.3878 463.2603,-352.4698 463.2603,-352.4698 463.2603,-352.4698 458.3452,-353.3878 464.0864,-356.8933 453.4302,-354.3058 453.4302,-354.3058"/>
<polygon fill="#000000" stroke="#000000" points="753.3976,-290.9799 745.1997,-298.2632 748.6261,-292.4744 743.8547,-293.9689 743.8547,-293.9689 743.8547,-293.9689 748.6261,-292.4744 742.5097,-289.6746 753.3976,-290.9799 753.3976,-290.9799"/>
</g>
<!-- A8&#45;&gt;A10 -->
<g id="edge32" class="edge">
<title>A8&#45;&gt;A10</title>
<path fill="none" stroke="#000000" d="M913.6245,-171.9716C889.3703,-159.2433 858.2045,-142.0478 834.0989,-128.1371"/>
<polygon fill="none" stroke="#000000" points="833.9396,-128.0444 826.7417,-128.481 823.5703,-122.0047 830.7682,-121.5681 833.9396,-128.0444"/>
<text text-anchor="middle" x="893.649" y="-167.9811" font-family="Helvetica,sans-Serif" font-size="10.00" fill="#000000">4</text>
</g>
<!-- A9 -->
<g id="node10" class="node">
<title>A9</title>
<polygon fill="none" stroke="#000000" points="640.0341,-294 509.4299,-294 509.4299,-258 640.0341,-258 640.0341,-294"/>
<text text-anchor="middle" x="574.732" y="-279" font-family="Helvetica,sans-Serif" font-size="10.00" fill="#000000">&lt;&lt;interface&gt;&gt;</text>
<text text-anchor="middle" x="574.732" y="-267" font-family="Helvetica,sans-Serif" font-size="10.00" fill="#000000">ChoosePlayerDelegate</text>
</g>
<!-- A9&#45;&gt;A8 -->
<g id="edge10" class="edge">
<title>A9&#45;&gt;A8</title>
<path fill="none" stroke="#000000" d="M649.9488,-258.0175C763.8895,-233.7562 796.0755,-238.5575 903.732,-208 903.831,-207.9719 903.9301,-207.9437 904.0292,-207.9154"/>
<polygon fill="#000000" stroke="#000000" points="640.1421,-260.1339 648.9677,-253.6255 645.0295,-259.0791 649.917,-258.0243 649.917,-258.0243 649.917,-258.0243 645.0295,-259.0791 650.8664,-262.423 640.1421,-260.1339 640.1421,-260.1339"/>
<polygon fill="#000000" stroke="#000000" points="913.4052,-205.0066 905.1877,-212.2676 908.6297,-206.4881 903.8543,-207.9697 903.8543,-207.9697 903.8543,-207.9697 908.6297,-206.4881 902.5208,-203.6718 913.4052,-205.0066 913.4052,-205.0066"/>
</g>
<!-- A9&#45;&gt;A10 -->
<g id="edge31" class="edge">
<title>A9&#45;&gt;A10</title>
<path fill="none" stroke="#000000" d="M570.9958,-257.9985C567.4,-235.3407 565.0459,-196.4371 584.732,-172 603.087,-149.2152 673.8738,-129.5979 728.6598,-117.3701"/>
<polygon fill="#000000" stroke="#000000" points="728.7103,-117.3592 733.719,-112.1714 740.4341,-114.7995 735.4254,-119.9873 728.7103,-117.3592"/>
<text text-anchor="middle" x="560.1003" y="-238.2268" font-family="Helvetica,sans-Serif" font-size="10.00" fill="#000000">1</text>
</g>
<!-- A10&#45;&gt;A8 -->
<g id="edge11" class="edge">
<title>A10&#45;&gt;A8</title>
<path fill="none" stroke="#000000" d="M843.7842,-126.7575C866.9865,-139.1093 894.4638,-154.3482 915.9386,-166.7721"/>
<polygon fill="#000000" stroke="#000000" points="834.7943,-122.0047 845.7381,-122.7004 839.2146,-124.3417 843.6348,-126.6786 843.6348,-126.6786 843.6348,-126.6786 839.2146,-124.3417 841.5316,-130.6569 834.7943,-122.0047 834.7943,-122.0047"/>
<polygon fill="#000000" stroke="#000000" points="924.8534,-171.9716 913.9481,-170.8205 920.5343,-169.4525 916.2153,-166.9334 916.2153,-166.9334 916.2153,-166.9334 920.5343,-169.4525 918.4825,-163.0462 924.8534,-171.9716 924.8534,-171.9716"/>
</g>
<!-- A10&#45;&gt;A14 -->
<g id="edge36" class="edge">
<title>A10&#45;&gt;A14</title>
<path fill="none" stroke="#000000" stroke-dasharray="5,2" d="M738.288,-82.4284C699.4915,-68.1087 649.1556,-49.5297 612.5121,-36.0047"/>
<polygon fill="#000000" stroke="#000000" points="747.8876,-85.9716 736.948,-86.7305 743.1969,-84.2402 738.5062,-82.5089 738.5062,-82.5089 738.5062,-82.5089 743.1969,-84.2402 740.0644,-78.2872 747.8876,-85.9716 747.8876,-85.9716"/>
<text text-anchor="middle" x="632.4437" y="-31.3517" font-family="Helvetica,sans-Serif" font-size="10.00" fill="#000000">nested</text>
</g>
<!-- A24 -->
<g id="node25" class="node">
<title>A24</title>
<polygon fill="none" stroke="#000000" points="983.5331,-36 847.9309,-36 847.9309,0 983.5331,0 983.5331,-36"/>
<text text-anchor="middle" x="915.732" y="-15" font-family="Helvetica,sans-Serif" font-size="10.00" fill="#000000">OnCancelActionListener</text>
</g>
<!-- A10&#45;&gt;A24 -->
<g id="edge34" class="edge">
<title>A10&#45;&gt;A24</title>
<path fill="none" stroke="#000000" stroke-dasharray="5,2" d="M829.907,-80.0248C849.2066,-66.0772 873.1346,-48.7847 890.8185,-36.0047"/>
<polygon fill="#000000" stroke="#000000" points="821.6783,-85.9716 827.1475,-76.4669 825.7308,-83.0429 829.7833,-80.1141 829.7833,-80.1141 829.7833,-80.1141 825.7308,-83.0429 832.4192,-83.7614 821.6783,-85.9716 821.6783,-85.9716"/>
<text text-anchor="middle" x="881.0782" y="-50.4725" font-family="Helvetica,sans-Serif" font-size="10.00" fill="#000000">nested</text>
</g>
<!-- A25 -->
<g id="node26" class="node">
<title>A25</title>
<polygon fill="none" stroke="#000000" points="830.0845,-36 703.3795,-36 703.3795,0 830.0845,0 830.0845,-36"/>
<text text-anchor="middle" x="766.732" y="-15" font-family="Helvetica,sans-Serif" font-size="10.00" fill="#000000">OnCardActionListener</text>
</g>
<!-- A10&#45;&gt;A25 -->
<g id="edge35" class="edge">
<title>A10&#45;&gt;A25</title>
<path fill="none" stroke="#000000" stroke-dasharray="5,2" d="M787.0519,-76.2503C782.4755,-63.1313 777.1401,-47.8366 773.0851,-36.2121"/>
<polygon fill="#000000" stroke="#000000" points="790.3698,-85.7616 782.8271,-77.8018 788.7229,-81.0406 787.076,-76.3196 787.076,-76.3196 787.076,-76.3196 788.7229,-81.0406 791.3249,-74.8374 790.3698,-85.7616 790.3698,-85.7616"/>
<text text-anchor="middle" x="787.036" y="-47.5428" font-family="Helvetica,sans-Serif" font-size="10.00" fill="#000000">nested</text>
</g>
<!-- A11 -->
<g id="node12" class="node">
<title>A11</title>
<polygon fill="none" stroke="#000000" points="459.4703,-466 363.9937,-466 363.9937,-430 459.4703,-430 459.4703,-466"/>
<text text-anchor="middle" x="411.732" y="-451" font-family="Helvetica,sans-Serif" font-size="10.00" fill="#000000">&lt;&lt;interface&gt;&gt;</text>
<text text-anchor="middle" x="411.732" y="-439" font-family="Helvetica,sans-Serif" font-size="10.00" fill="#000000">GameDelegate</text>
</g>
<!-- A11&#45;&gt;A7 -->
<g id="edge13" class="edge">
<title>A11&#45;&gt;A7</title>
<path fill="none" stroke="#000000" d="M411.732,-429.7616C411.732,-418.9298 411.732,-404.9179 411.732,-392.4492"/>
<polygon fill="#000000" stroke="#000000" points="411.7321,-392.2121 407.732,-386.2121 411.732,-380.2121 415.732,-386.2121 411.7321,-392.2121"/>
<text text-anchor="middle" x="403.2796" y="-408.6355" font-family="Helvetica,sans-Serif" font-size="10.00" fill="#000000">1</text>
</g>
<!-- A16 -->
<g id="node17" class="node">
<title>A16</title>
<polygon fill="none" stroke="#000000" points="894.9343,-208 760.5297,-208 760.5297,-172 894.9343,-172 894.9343,-208"/>
<text text-anchor="middle" x="827.732" y="-187" font-family="Helvetica,sans-Serif" font-size="10.00" fill="#000000">BackgroundImagePanel</text>
</g>
<!-- A16&#45;&gt;A10 -->
<g id="edge30" class="edge">
<title>A16&#45;&gt;A10</title>
<path fill="none" stroke="#000000" d="M821.1577,-171.7616C817.171,-160.7017 811.9892,-146.3265 807.4248,-133.6638"/>
<polygon fill="#000000" stroke="#000000" points="807.3662,-133.5011 801.5685,-129.213 803.2968,-122.2121 809.0945,-126.5001 807.3662,-133.5011"/>
<text text-anchor="middle" x="807.0595" y="-154.5757" font-family="Helvetica,sans-Serif" font-size="10.00" fill="#000000">1</text>
</g>
<!-- A17 -->
<g id="node18" class="node">
<title>A17</title>
<polygon fill="none" stroke="#000000" points="731.757,-380 623.707,-380 623.707,-344 731.757,-344 731.757,-380"/>
<text text-anchor="middle" x="677.732" y="-359" font-family="Helvetica,sans-Serif" font-size="10.00" fill="#000000">BoardImagePanel</text>
</g>
<!-- A17&#45;&gt;A20 -->
<g id="edge27" class="edge">
<title>A17&#45;&gt;A20</title>
<path fill="none" stroke="#000000" d="M683.9481,-333.8639C686.0625,-324.2934 688.4244,-313.6028 690.5371,-304.0399"/>
<polygon fill="#000000" stroke="#000000" points="681.7614,-343.7616 679.5247,-333.0263 682.8401,-338.8793 683.9188,-333.9971 683.9188,-333.9971 683.9188,-333.9971 682.8401,-338.8793 688.3128,-334.9679 681.7614,-343.7616 681.7614,-343.7616"/>
<polygon fill="#000000" stroke="#000000" points="692.7084,-294.2121 694.9451,-304.9474 691.6297,-299.0944 690.551,-303.9766 690.551,-303.9766 690.551,-303.9766 691.6297,-299.0944 686.157,-303.0058 692.7084,-294.2121 692.7084,-294.2121"/>
</g>
<!-- A18 -->
<g id="node19" class="node">
<title>A18</title>
<polygon fill="none" stroke="#000000" points="797.4305,-466 708.0335,-466 708.0335,-430 797.4305,-430 797.4305,-466"/>
<text text-anchor="middle" x="752.732" y="-451" font-family="Helvetica,sans-Serif" font-size="10.00" fill="#000000">&lt;&lt;interface&gt;&gt;</text>
<text text-anchor="middle" x="752.732" y="-439" font-family="Helvetica,sans-Serif" font-size="10.00" fill="#000000">Sprite</text>
</g>
<!-- A20&#45;&gt;A19 -->
<g id="edge21" class="edge">
<title>A20&#45;&gt;A19</title>
<path fill="none" stroke="#000000" d="M744.9799,-258.1907C857.2326,-227.1597 890.6094,-236.8652 998.732,-208 1000.378,-207.5606 1002.0471,-207.0969 1003.7284,-206.6144"/>
<polygon fill="#000000" stroke="#000000" points="735.3224,-260.9061 743.731,-253.8673 740.1357,-259.5527 744.9491,-258.1993 744.9491,-258.1993 744.9491,-258.1993 740.1357,-259.5527 746.1671,-262.5313 735.3224,-260.9061 735.3224,-260.9061"/>
<polygon fill="#000000" stroke="#000000" points="1013.4157,-203.6823 1005.1482,-210.8864 1008.6301,-205.1308 1003.8445,-206.5793 1003.8445,-206.5793 1003.8445,-206.5793 1008.6301,-205.1308 1002.5409,-202.2723 1013.4157,-203.6823 1013.4157,-203.6823"/>
</g>
<!-- A23 -->
<g id="node24" class="node">
<title>A23</title>
<polygon fill="none" stroke="#000000" points="741.8096,-208 593.6544,-208 593.6544,-172 741.8096,-172 741.8096,-208"/>
<text text-anchor="middle" x="667.732" y="-187" font-family="Helvetica,sans-Serif" font-size="10.00" fill="#000000">OnBoardCellActionListener</text>
</g>
<!-- A20&#45;&gt;A23 -->
<g id="edge29" class="edge">
<title>A20&#45;&gt;A23</title>
<path fill="none" stroke="#000000" stroke-dasharray="5,2" d="M687.3746,-248.2503C682.9507,-235.1313 677.7932,-219.8366 673.8733,-208.2121"/>
<polygon fill="#000000" stroke="#000000" points="690.5818,-257.7616 683.1224,-249.7238 688.9842,-253.0237 687.3865,-248.2858 687.3865,-248.2858 687.3865,-248.2858 688.9842,-253.0237 691.6506,-246.8479 690.5818,-257.7616 690.5818,-257.7616"/>
<text text-anchor="middle" x="687.6744" y="-219.6872" font-family="Helvetica,sans-Serif" font-size="10.00" fill="#000000">nested</text>
</g>
<!-- A26 -->
<g id="node27" class="node">
<title>A26</title>
<polygon fill="none" stroke="#000000" points="1301.4752,-380 1175.9888,-380 1175.9888,-344 1301.4752,-344 1301.4752,-380"/>
<text text-anchor="middle" x="1238.732" y="-359" font-family="Helvetica,sans-Serif" font-size="10.00" fill="#000000">TraversableBoard&lt;T&gt;</text>
</g>
<!-- A26&#45;&gt;A27 -->
<g id="edge37" class="edge">
<title>A26&#45;&gt;A27</title>
<path fill="none" stroke="#000000" d="M1238.732,-343.7616C1238.732,-332.9298 1238.732,-318.9179 1238.732,-306.4492"/>
<polygon fill="#000000" stroke="#000000" points="1238.7321,-306.2121 1234.732,-300.2121 1238.732,-294.2121 1242.732,-300.2121 1238.7321,-306.2121"/>
<text text-anchor="middle" x="1230.2796" y="-322.6355" font-family="Helvetica,sans-Serif" font-size="10.00" fill="#000000">1</text>
</g>
</g>
</svg>
