<?xml version="1.0" encoding="UTF-8" standalone="no"?>
<!DOCTYPE svg PUBLIC "-//W3C//DTD SVG 1.1//EN"
 "http://www.w3.org/Graphics/SVG/1.1/DTD/svg11.dtd">
<!-- Generated by graphviz version 2.40.1 (20161225.0304)
 -->
<!-- Title: G Pages: 1 -->
<svg width="811pt" height="714pt"
 viewBox="0.00 0.00 810.88 714.46" xmlns="http://www.w3.org/2000/svg" xmlns:xlink="http://www.w3.org/1999/xlink">
<g id="graph0" class="graph" transform="scale(1 1) rotate(0) translate(4 710.4565)">
<title>G</title>
<polygon fill="#ffffff" stroke="transparent" points="-4,4 -4,-710.4565 806.879,-710.4565 806.879,4 -4,4"/>
<!-- A0 -->
<g id="node1" class="node">
<title>A0</title>
<polygon fill="#a020f0" stroke="#000000" points="77.5645,-332 22.1115,-332 22.1115,-296 77.5645,-296 77.5645,-332"/>
<text text-anchor="middle" x="49.838" y="-311" font-family="Helvetica,sans-Serif" font-size="10.00" fill="#000000">Game</text>
</g>
<!-- A1 -->
<g id="node2" class="node">
<title>A1</title>
<polygon fill="none" stroke="#000000" points="239.4735,-186 185.1215,-186 185.1215,-150 239.4735,-150 239.4735,-186"/>
<text text-anchor="middle" x="212.2975" y="-165" font-family="Helvetica,sans-Serif" font-size="10.00" fill="#000000">Board</text>
</g>
<!-- A0&#45;&gt;A1 -->
<g id="edge1" class="edge">
<title>A0&#45;&gt;A1</title>
<path fill="none" stroke="#000000" d="M79.1436,-287.6635C111.7705,-258.3422 163.6394,-211.7283 192.051,-186.1952"/>
<polygon fill="#000000" stroke="#000000" points="79.0105,-287.7831 77.2215,-294.7688 70.0851,-295.8042 71.8741,-288.8185 79.0105,-287.7831"/>
<text text-anchor="middle" x="184.2189" y="-201.5979" font-family="Helvetica,sans-Serif" font-size="10.00" fill="#000000">1</text>
</g>
<!-- A3 -->
<g id="node4" class="node">
<title>A3</title>
<polygon fill="none" stroke="#000000" points="240.6335,-382 183.9615,-382 183.9615,-346 240.6335,-346 240.6335,-382"/>
<text text-anchor="middle" x="212.2975" y="-361" font-family="Helvetica,sans-Serif" font-size="10.00" fill="#000000">Player</text>
</g>
<!-- A0&#45;&gt;A3 -->
<g id="edge3" class="edge">
<title>A0&#45;&gt;A3</title>
<path fill="none" stroke="#000000" d="M89.6206,-326.2438C118.8312,-335.234 157.8095,-347.2303 183.9172,-355.2654"/>
<polygon fill="#000000" stroke="#000000" points="89.2349,-326.1252 82.3237,-328.1833 77.7658,-322.5953 84.677,-320.5372 89.2349,-326.1252"/>
<text text-anchor="middle" x="164.1067" y="-355.012" font-family="Helvetica,sans-Serif" font-size="10.00" fill="#000000">2..4</text>
</g>
<!-- A6 -->
<g id="node7" class="node">
<title>A6</title>
<polygon fill="none" stroke="#000000" points="253.8075,-436 170.7875,-436 170.7875,-400 253.8075,-400 253.8075,-436"/>
<text text-anchor="middle" x="212.2975" y="-415" font-family="Helvetica,sans-Serif" font-size="10.00" fill="#000000">PlayerBoard</text>
</g>
<!-- A0&#45;&gt;A6 -->
<g id="edge12" class="edge">
<title>A0&#45;&gt;A6</title>
<path fill="none" stroke="#000000" d="M79.5258,-340.074C98.6807,-356.0729 124.6167,-376.2492 149.676,-391 156.2059,-394.8437 163.3846,-398.453 170.4797,-401.705"/>
<polygon fill="#000000" stroke="#000000" points="79.3205,-339.9 72.1573,-339.0706 70.1678,-332.1393 77.331,-332.9687 79.3205,-339.9"/>
<text text-anchor="middle" x="150.4798" y="-398.7606" font-family="Helvetica,sans-Serif" font-size="10.00" fill="#000000">1</text>
</g>
<!-- A10 -->
<g id="node11" class="node">
<title>A10</title>
<polygon fill="none" stroke="#000000" points="803.1079,-478 690.1941,-478 690.1941,-442 803.1079,-442 803.1079,-478"/>
<text text-anchor="middle" x="746.651" y="-457" font-family="Helvetica,sans-Serif" font-size="10.00" fill="#000000">ChoosePlayerView</text>
</g>
<!-- A0&#45;&gt;A10 -->
<g id="edge30" class="edge">
<title>A0&#45;&gt;A10</title>
<path fill="none" stroke="#000000" d="M70.3926,-340.5751C80.5349,-354.8402 92.1718,-373.1266 99.676,-391 138.9961,-484.6524 75.4644,-544.6496 149.676,-614 309.1534,-763.0307 457.1427,-713.5392 640.423,-595 682.6348,-567.6989 715.3136,-517.8208 732.7122,-486.9338"/>
<polygon fill="#000000" stroke="#000000" points="64.321,-332.2524 73.8501,-337.679 67.2678,-336.2918 70.2146,-340.3311 70.2146,-340.3311 70.2146,-340.3311 67.2678,-336.2918 66.5792,-342.9833 64.321,-332.2524 64.321,-332.2524"/>
<polygon fill="#000000" stroke="#000000" points="737.6149,-478.0038 736.7469,-488.9353 735.2086,-482.3867 732.8023,-486.7697 732.8023,-486.7697 732.8023,-486.7697 735.2086,-482.3867 728.8577,-484.604 737.6149,-478.0038 737.6149,-478.0038"/>
</g>
<!-- A17 -->
<g id="node18" class="node">
<title>A17</title>
<polygon fill="none" stroke="#000000" points="428.7121,-286 351.9279,-286 351.9279,-250 428.7121,-250 428.7121,-286"/>
<text text-anchor="middle" x="390.32" y="-265" font-family="Helvetica,sans-Serif" font-size="10.00" fill="#000000">GameView</text>
</g>
<!-- A0&#45;&gt;A17 -->
<g id="edge26" class="edge">
<title>A0&#45;&gt;A17</title>
<path fill="none" stroke="#000000" d="M87.3151,-300.032C105.8228,-293.7372 128.6436,-286.8633 149.676,-283 215.2654,-270.9523 292.4145,-268.0904 341.3354,-267.6471"/>
<polygon fill="#000000" stroke="#000000" points="77.7897,-303.3491 85.7536,-295.8107 82.5116,-301.7047 87.2335,-300.0604 87.2335,-300.0604 87.2335,-300.0604 82.5116,-301.7047 88.7134,-304.3101 77.7897,-303.3491 77.7897,-303.3491"/>
<polygon fill="#000000" stroke="#000000" points="351.6326,-267.5859 341.6595,-272.1454 346.6326,-267.6157 341.6327,-267.6454 341.6327,-267.6454 341.6327,-267.6454 346.6326,-267.6157 341.6059,-263.1455 351.6326,-267.5859 351.6326,-267.5859"/>
</g>
<!-- A24 -->
<g id="node25" class="node">
<title>A24</title>
<polygon fill="none" stroke="#000000" points="253.1282,-63 171.4668,-63 171.4668,-27 253.1282,-27 253.1282,-63"/>
<text text-anchor="middle" x="212.2975" y="-42" font-family="Helvetica,sans-Serif" font-size="10.00" fill="#000000">WinnerView</text>
</g>
<!-- A0&#45;&gt;A24 -->
<g id="edge35" class="edge">
<title>A0&#45;&gt;A24</title>
<path fill="none" stroke="#000000" d="M54.3051,-285.9894C63.5574,-236.5882 89.2306,-133.4079 149.676,-72 153.3705,-68.2466 157.672,-64.9824 162.2578,-62.1507"/>
<polygon fill="#000000" stroke="#000000" points="52.5264,-295.9575 49.8531,-285.3225 53.4048,-291.0352 54.2831,-286.113 54.2831,-286.113 54.2831,-286.113 53.4048,-291.0352 58.7132,-286.9035 52.5264,-295.9575 52.5264,-295.9575"/>
<polygon fill="#000000" stroke="#000000" points="171.3423,-57.2233 164.6976,-65.9467 166.9472,-59.6072 162.5521,-61.9911 162.5521,-61.9911 162.5521,-61.9911 166.9472,-59.6072 160.4066,-58.0355 171.3423,-57.2233 171.3423,-57.2233"/>
</g>
<!-- A2 -->
<g id="node3" class="node">
<title>A2</title>
<polygon fill="none" stroke="#000000" points="430.6093,-232 350.0307,-232 350.0307,-196 430.6093,-196 430.6093,-232"/>
<text text-anchor="middle" x="390.32" y="-211" font-family="Helvetica,sans-Serif" font-size="10.00" fill="#000000">BoardSprite</text>
</g>
<!-- A1&#45;&gt;A2 -->
<g id="edge2" class="edge">
<title>A1&#45;&gt;A2</title>
<path fill="none" stroke="#000000" d="M251.5355,-178.1389C280.7441,-185.6862 320.4909,-195.9566 349.9639,-203.5722"/>
<polygon fill="#000000" stroke="#000000" points="251.3418,-178.0889 244.5318,-180.4606 239.7234,-175.0867 246.5333,-172.715 251.3418,-178.0889"/>
</g>
<!-- A16 -->
<g id="node17" class="node">
<title>A16</title>
<polygon fill="none" stroke="#000000" points="611.4349,-286 534.7091,-286 534.7091,-250 611.4349,-250 611.4349,-286"/>
<text text-anchor="middle" x="573.072" y="-271" font-family="Helvetica,sans-Serif" font-size="10.00" fill="#000000">&lt;&lt;enum&gt;&gt;</text>
<text text-anchor="middle" x="573.072" y="-259" font-family="Helvetica,sans-Serif" font-size="10.00" fill="#000000">BoardWall</text>
</g>
<!-- A1&#45;&gt;A16 -->
<g id="edge17" class="edge">
<title>A1&#45;&gt;A16</title>
<path fill="none" stroke="#000000" d="M249.6456,-165.0162C298.5173,-162.4197 386.124,-162.3011 455.721,-187 490.005,-199.1668 523.5976,-224.0561 545.9955,-243.0524"/>
<polygon fill="#000000" stroke="#000000" points="239.5357,-165.6189 249.2501,-160.5317 244.5269,-165.3213 249.518,-165.0237 249.518,-165.0237 249.518,-165.0237 244.5269,-165.3213 249.7858,-169.5157 239.5357,-165.6189 239.5357,-165.6189"/>
<polygon fill="#000000" stroke="#000000" points="553.7214,-249.75 543.2177,-246.5999 549.9434,-246.4748 546.1653,-243.1997 546.1653,-243.1997 546.1653,-243.1997 549.9434,-246.4748 549.113,-239.7994 553.7214,-249.75 553.7214,-249.75"/>
</g>
<!-- A18 -->
<g id="node19" class="node">
<title>A18</title>
<polygon fill="none" stroke="#000000" points="611.4349,-190 534.7091,-190 534.7091,-154 611.4349,-154 611.4349,-190"/>
<text text-anchor="middle" x="573.072" y="-175" font-family="Helvetica,sans-Serif" font-size="10.00" fill="#000000">&lt;&lt;enum&gt;&gt;</text>
<text text-anchor="middle" x="573.072" y="-163" font-family="Helvetica,sans-Serif" font-size="10.00" fill="#000000">Jewel</text>
</g>
<!-- A1&#45;&gt;A18 -->
<g id="edge21" class="edge">
<title>A1&#45;&gt;A18</title>
<path fill="none" stroke="#000000" d="M249.7057,-162.1723C271.5716,-159.0611 299.7384,-155.5591 324.919,-154 382.9421,-150.4074 397.755,-149.5803 455.721,-154 478.5049,-155.7372 503.5624,-159.3453 524.6519,-162.8782"/>
<polygon fill="#000000" stroke="#000000" points="239.5183,-163.658 248.7642,-157.7619 244.466,-162.9364 249.4137,-162.2148 249.4137,-162.2148 249.4137,-162.2148 244.466,-162.9364 250.0631,-166.6677 239.5183,-163.658 239.5183,-163.658"/>
<polygon fill="#000000" stroke="#000000" points="534.6587,-164.598 524.041,-167.3391 529.731,-163.7511 524.8032,-162.9042 524.8032,-162.9042 524.8032,-162.9042 529.731,-163.7511 525.5654,-158.4692 534.6587,-164.598 534.6587,-164.598"/>
</g>
<!-- A21 -->
<g id="node22" class="node">
<title>A21</title>
<polygon fill="none" stroke="#000000" points="437.5075,-102 343.1325,-102 343.1325,-66 437.5075,-66 437.5075,-102"/>
<text text-anchor="middle" x="390.32" y="-81" font-family="Helvetica,sans-Serif" font-size="10.00" fill="#000000">PathFinder&lt;T&gt;</text>
</g>
<!-- A1&#45;&gt;A21 -->
<g id="edge32" class="edge">
<title>A1&#45;&gt;A21</title>
<path fill="none" stroke="#000000" d="M249.0186,-150.6731C276.1412,-137.8753 313.2991,-120.3423 342.7035,-106.4679"/>
<polygon fill="#000000" stroke="#000000" points="239.7234,-155.0591 246.8469,-146.722 244.2453,-152.9254 248.7672,-150.7917 248.7672,-150.7917 248.7672,-150.7917 244.2453,-152.9254 250.6875,-154.8614 239.7234,-155.0591 239.7234,-155.0591"/>
<polygon fill="#000000" stroke="#000000" points="351.9554,-102.1023 344.8319,-110.4394 347.4335,-104.236 342.9116,-106.3697 342.9116,-106.3697 342.9116,-106.3697 347.4335,-104.236 340.9913,-102.3 351.9554,-102.1023 351.9554,-102.1023"/>
</g>
<!-- A7 -->
<g id="node8" class="node">
<title>A7</title>
<polygon fill="none" stroke="#000000" points="611.4349,-478 534.7091,-478 534.7091,-442 611.4349,-442 611.4349,-478"/>
<text text-anchor="middle" x="573.072" y="-463" font-family="Helvetica,sans-Serif" font-size="10.00" fill="#000000">&lt;&lt;enum&gt;&gt;</text>
<text text-anchor="middle" x="573.072" y="-451" font-family="Helvetica,sans-Serif" font-size="10.00" fill="#000000">Turtle</text>
</g>
<!-- A2&#45;&gt;A7 -->
<g id="edge8" class="edge">
<title>A2&#45;&gt;A7</title>
<path fill="none" stroke="#000000" d="M430.8993,-225.6868C439.7671,-229.5564 448.6145,-234.5734 455.721,-241 514.4802,-294.1378 549.3292,-383.7501 564.3323,-430.1513"/>
<polygon fill="#000000" stroke="#000000" points="564.3816,-430.3094 569.9894,-434.8429 567.9616,-441.763 562.3537,-437.2295 564.3816,-430.3094"/>
<text text-anchor="middle" x="450.8974" y="-222.414" font-family="Helvetica,sans-Serif" font-size="10.00" fill="#000000">4</text>
</g>
<!-- A2&#45;&gt;A16 -->
<g id="edge16" class="edge">
<title>A2&#45;&gt;A16</title>
<path fill="none" stroke="#000000" d="M430.8786,-225.9844C458.1433,-234.0406 494.2587,-244.712 523.2688,-253.284"/>
<polygon fill="#000000" stroke="#000000" points="523.3052,-253.2947 530.1928,-251.1589 534.8134,-256.6952 527.9258,-258.831 523.3052,-253.2947"/>
<text text-anchor="middle" x="450.6569" y="-220.0149" font-family="Helvetica,sans-Serif" font-size="10.00" fill="#000000">1</text>
</g>
<!-- A2&#45;&gt;A18 -->
<g id="edge20" class="edge">
<title>A2&#45;&gt;A18</title>
<path fill="none" stroke="#000000" d="M430.8786,-204.6788C458.0222,-198.4407 493.9378,-190.1866 522.8816,-183.5347"/>
<polygon fill="#000000" stroke="#000000" points="523.1182,-183.4804 528.0699,-178.2381 534.8134,-180.7926 529.8618,-186.0349 523.1182,-183.4804"/>
<text text-anchor="middle" x="446.6511" y="-189.3813" font-family="Helvetica,sans-Serif" font-size="10.00" fill="#000000">1</text>
</g>
<!-- A5 -->
<g id="node6" class="node">
<title>A5</title>
<polygon fill="none" stroke="#000000" points="428.6829,-578 351.9571,-578 351.9571,-542 428.6829,-542 428.6829,-578"/>
<text text-anchor="middle" x="390.32" y="-563" font-family="Helvetica,sans-Serif" font-size="10.00" fill="#000000">&lt;&lt;enum&gt;&gt;</text>
<text text-anchor="middle" x="390.32" y="-551" font-family="Helvetica,sans-Serif" font-size="10.00" fill="#000000">Card</text>
</g>
<!-- A3&#45;&gt;A5 -->
<g id="edge4" class="edge">
<title>A3&#45;&gt;A5</title>
<path fill="none" stroke="#000000" d="M251.6948,-375.1331C260.2202,-379.032 268.5706,-384.2009 274.919,-391 320.5825,-439.9048 278.8765,-484.4518 324.919,-533 332.2731,-540.7543 342.1821,-546.3564 352.0601,-550.3736"/>
<polygon fill="#000000" stroke="#000000" points="251.6948,-375.1331 244.6427,-376.6392 240.5402,-370.7088 247.5923,-369.2027 251.6948,-375.1331"/>
<text text-anchor="middle" x="332.0731" y="-548.094" font-family="Helvetica,sans-Serif" font-size="10.00" fill="#000000">37</text>
</g>
<!-- A3&#45;&gt;A7 -->
<g id="edge9" class="edge">
<title>A3&#45;&gt;A7</title>
<path fill="none" stroke="#000000" d="M251.674,-378.2667C259.6639,-381.8981 267.7944,-386.165 274.919,-391 300.9234,-408.6473 296.3649,-427.8731 324.919,-441 393.425,-472.4935 483.8383,-469.8806 534.463,-465.0249"/>
<polygon fill="none" stroke="#000000" points="251.6379,-378.2514 244.552,-379.5894 240.5916,-373.5631 247.6775,-372.2252 251.6379,-378.2514"/>
</g>
<!-- A15 -->
<g id="node16" class="node">
<title>A15</title>
<polygon fill="none" stroke="#000000" points="417.32,-378 363.32,-378 363.32,-342 417.32,-342 417.32,-378"/>
<text text-anchor="middle" x="390.32" y="-357" font-family="Helvetica,sans-Serif" font-size="10.00" fill="#000000">Laser</text>
</g>
<!-- A3&#45;&gt;A15 -->
<g id="edge15" class="edge">
<title>A3&#45;&gt;A15</title>
<path fill="none" stroke="#000000" d="M250.5116,-363.1414C280.8251,-362.4602 322.9536,-361.5137 353.0249,-360.838"/>
<polygon fill="#000000" stroke="#000000" points="240.5057,-363.3662 250.402,-358.6426 245.5044,-363.2538 250.5032,-363.1415 250.5032,-363.1415 250.5032,-363.1415 245.5044,-363.2538 250.6043,-367.6403 240.5057,-363.3662 240.5057,-363.3662"/>
<polygon fill="#000000" stroke="#000000" points="363.1195,-360.6112 353.2232,-365.3348 358.1208,-360.7235 353.122,-360.8359 353.122,-360.8359 353.122,-360.8359 358.1208,-360.7235 353.0209,-356.337 363.1195,-360.6112 363.1195,-360.6112"/>
</g>
<!-- A3&#45;&gt;A16 -->
<g id="edge18" class="edge">
<title>A3&#45;&gt;A16</title>
<path fill="none" stroke="#000000" d="M250.3707,-353.3935C272.177,-347.3504 300.0647,-339.6755 324.919,-333 394.3312,-314.3569 474.8452,-293.3878 524.8793,-280.4342"/>
<polygon fill="#000000" stroke="#000000" points="240.5041,-356.1314 248.9367,-349.1213 245.3221,-354.7944 250.14,-353.4575 250.14,-353.4575 250.14,-353.4575 245.3221,-354.7944 251.3433,-357.7936 240.5041,-356.1314 240.5041,-356.1314"/>
<polygon fill="#000000" stroke="#000000" points="534.7728,-277.8744 526.2188,-284.7359 529.9322,-279.1269 525.0916,-280.3793 525.0916,-280.3793 525.0916,-280.3793 529.9322,-279.1269 523.9644,-276.0228 534.7728,-277.8744 534.7728,-277.8744"/>
</g>
<!-- A4 -->
<g id="node5" class="node">
<title>A4</title>
<polygon fill="none" stroke="#000000" points="253.7477,-605 170.8473,-605 170.8473,-569 253.7477,-569 253.7477,-605"/>
<text text-anchor="middle" x="212.2975" y="-584" font-family="Helvetica,sans-Serif" font-size="10.00" fill="#000000">PlayerSprite</text>
</g>
<!-- A4&#45;&gt;A5 -->
<g id="edge5" class="edge">
<title>A4&#45;&gt;A5</title>
<path fill="none" stroke="#000000" d="M253.5869,-580.7378C279.3288,-576.8336 312.631,-571.7828 339.9244,-567.6433"/>
<polygon fill="#000000" stroke="#000000" points="340.1287,-567.6124 345.461,-562.7579 351.993,-565.8129 346.6607,-570.6674 340.1287,-567.6124"/>
<text text-anchor="middle" x="270.2407" y="-566.663" font-family="Helvetica,sans-Serif" font-size="10.00" fill="#000000">1</text>
</g>
<!-- A19 -->
<g id="node20" class="node">
<title>A19</title>
<polygon fill="none" stroke="#000000" points="428.6829,-632 351.9571,-632 351.9571,-596 428.6829,-596 428.6829,-632"/>
<text text-anchor="middle" x="390.32" y="-617" font-family="Helvetica,sans-Serif" font-size="10.00" fill="#000000">&lt;&lt;enum&gt;&gt;</text>
<text text-anchor="middle" x="390.32" y="-605" font-family="Helvetica,sans-Serif" font-size="10.00" fill="#000000">PlayerWall</text>
</g>
<!-- A4&#45;&gt;A19 -->
<g id="edge22" class="edge">
<title>A4&#45;&gt;A19</title>
<path fill="none" stroke="#000000" d="M253.5869,-593.2622C279.3288,-597.1664 312.631,-602.2172 339.9244,-606.3567"/>
<polygon fill="#000000" stroke="#000000" points="340.1287,-606.3876 346.6607,-603.3326 351.993,-608.1871 345.461,-611.2421 340.1287,-606.3876"/>
<text text-anchor="middle" x="272.7756" y="-584.6235" font-family="Helvetica,sans-Serif" font-size="10.00" fill="#000000">1</text>
</g>
<!-- A6&#45;&gt;A5 -->
<g id="edge6" class="edge">
<title>A6&#45;&gt;A5</title>
<path fill="none" stroke="#000000" d="M232.6797,-444.3027C253.5547,-469.7903 288.0845,-508.1402 324.919,-533 330.4602,-536.7398 336.6011,-540.1097 342.8362,-543.0981"/>
<polygon fill="#000000" stroke="#000000" points="226.1402,-436.1902 235.9196,-441.1515 229.2782,-440.0829 232.4161,-443.9757 232.4161,-443.9757 232.4161,-443.9757 229.2782,-440.0829 228.9127,-446.7998 226.1402,-436.1902 226.1402,-436.1902"/>
<polygon fill="#000000" stroke="#000000" points="351.9801,-547.2019 341.0142,-547.2127 347.4185,-545.1546 342.8568,-543.1072 342.8568,-543.1072 342.8568,-543.1072 347.4185,-545.1546 344.6994,-539.0017 351.9801,-547.2019 351.9801,-547.2019"/>
</g>
<!-- A6&#45;&gt;A17 -->
<g id="edge24" class="edge">
<title>A6&#45;&gt;A17</title>
<path fill="none" stroke="#000000" d="M253.84,-403.2554C261.1877,-399.7801 268.5245,-395.6938 274.919,-391 302.355,-370.8609 301.7209,-357.9032 324.919,-333 337.0052,-320.0255 350.8763,-306.1099 362.725,-294.4965"/>
<polygon fill="#000000" stroke="#000000" points="362.7315,-294.4902 364.2393,-287.4385 371.3285,-286.1182 369.8207,-293.1699 362.7315,-294.4902"/>
<text text-anchor="middle" x="266.5039" y="-384.7756" font-family="Helvetica,sans-Serif" font-size="10.00" fill="#000000">2..4</text>
</g>
<!-- A6&#45;&gt;A19 -->
<g id="edge23" class="edge">
<title>A6&#45;&gt;A19</title>
<path fill="none" stroke="#000000" d="M224.1565,-445.2191C241.4242,-481.9908 276.758,-547.4731 324.919,-587 330.2141,-591.3459 336.3058,-595.0796 342.5956,-598.2616"/>
<polygon fill="#000000" stroke="#000000" points="219.9638,-436.088 228.2261,-443.298 222.0502,-440.6319 224.1366,-445.1758 224.1366,-445.1758 224.1366,-445.1758 222.0502,-440.6319 220.0471,-447.0535 219.9638,-436.088 219.9638,-436.088"/>
<polygon fill="#000000" stroke="#000000" points="351.883,-602.5359 340.9175,-602.443 347.341,-600.4455 342.7989,-598.3551 342.7989,-598.3551 342.7989,-598.3551 347.341,-600.4455 344.6803,-594.2673 351.883,-602.5359 351.883,-602.5359"/>
</g>
<!-- A7&#45;&gt;A10 -->
<g id="edge29" class="edge">
<title>A7&#45;&gt;A10</title>
<path fill="none" stroke="#000000" d="M611.5948,-454.28C631.0617,-453.3494 655.2791,-453.0494 677.809,-453.38"/>
<polygon fill="none" stroke="#000000" points="678.1136,-453.386 684.1932,-449.508 690.1112,-453.6285 684.0316,-457.5064 678.1136,-453.386"/>
<text text-anchor="middle" x="629.3361" y="-442.047" font-family="Helvetica,sans-Serif" font-size="10.00" fill="#000000">4</text>
</g>
<!-- A8 -->
<g id="node9" class="node">
<title>A8</title>
<polygon fill="none" stroke="#000000" points="435.0185,-524 345.6215,-524 345.6215,-488 435.0185,-488 435.0185,-524"/>
<text text-anchor="middle" x="390.32" y="-509" font-family="Helvetica,sans-Serif" font-size="10.00" fill="#000000">&lt;&lt;interface&gt;&gt;</text>
<text text-anchor="middle" x="390.32" y="-497" font-family="Helvetica,sans-Serif" font-size="10.00" fill="#000000">Sprite</text>
</g>
<!-- A8&#45;&gt;A7 -->
<g id="edge7" class="edge">
<title>A8&#45;&gt;A7</title>
<path fill="none" stroke="#000000" d="M444.9821,-492.2412C473.8903,-484.9647 508.6789,-476.2082 534.7012,-469.6582"/>
<polygon fill="#000000" stroke="#000000" points="435.0262,-494.7471 443.6252,-487.9422 439.8749,-493.5266 444.7237,-492.3061 444.7237,-492.3061 444.7237,-492.3061 439.8749,-493.5266 445.8221,-496.67 435.0262,-494.7471 435.0262,-494.7471"/>
<text text-anchor="middle" x="519.1865" y="-479.2794" font-family="Helvetica,sans-Serif" font-size="10.00" fill="#000000">implements</text>
</g>
<!-- A14 -->
<g id="node15" class="node">
<title>A14</title>
<polygon fill="none" stroke="#000000" points="611.4349,-586 534.7091,-586 534.7091,-550 611.4349,-550 611.4349,-586"/>
<text text-anchor="middle" x="573.072" y="-571" font-family="Helvetica,sans-Serif" font-size="10.00" fill="#000000">&lt;&lt;enum&gt;&gt;</text>
<text text-anchor="middle" x="573.072" y="-559" font-family="Helvetica,sans-Serif" font-size="10.00" fill="#000000">Laser</text>
</g>
<!-- A8&#45;&gt;A14 -->
<g id="edge14" class="edge">
<title>A8&#45;&gt;A14</title>
<path fill="none" stroke="#000000" d="M444.6037,-524.4162C473.5863,-534.2487 508.5653,-546.1156 534.7012,-554.9824"/>
<polygon fill="#000000" stroke="#000000" points="435.0262,-521.1669 445.9418,-520.1183 439.7611,-522.7733 444.496,-524.3797 444.496,-524.3797 444.496,-524.3797 439.7611,-522.7733 443.0503,-528.6411 435.0262,-521.1669 435.0262,-521.1669"/>
<text text-anchor="middle" x="514.8204" y="-554.1632" font-family="Helvetica,sans-Serif" font-size="10.00" fill="#000000">implements</text>
</g>
<!-- A9 -->
<g id="node10" class="node">
<title>A9</title>
<polygon fill="none" stroke="#000000" points="455.6221,-432 325.0179,-432 325.0179,-396 455.6221,-396 455.6221,-432"/>
<text text-anchor="middle" x="390.32" y="-417" font-family="Helvetica,sans-Serif" font-size="10.00" fill="#000000">&lt;&lt;interface&gt;&gt;</text>
<text text-anchor="middle" x="390.32" y="-405" font-family="Helvetica,sans-Serif" font-size="10.00" fill="#000000">ChoosePlayerDelegate</text>
</g>
<!-- A9&#45;&gt;A7 -->
<g id="edge10" class="edge">
<title>A9&#45;&gt;A7</title>
<path fill="none" stroke="#000000" d="M465.5401,-432.9334C485.6733,-438.0011 506.8874,-443.3409 525.1034,-447.9259"/>
<polygon fill="#000000" stroke="#000000" points="455.7815,-430.4771 466.5775,-428.5543 460.6302,-431.6976 465.479,-432.9181 465.479,-432.9181 465.479,-432.9181 460.6302,-431.6976 464.3805,-437.282 455.7815,-430.4771 455.7815,-430.4771"/>
<polygon fill="#000000" stroke="#000000" points="534.889,-450.3891 524.093,-452.3119 530.0402,-449.1686 525.1915,-447.948 525.1915,-447.948 525.1915,-447.948 530.0402,-449.1686 526.2899,-443.5842 534.889,-450.3891 534.889,-450.3891"/>
</g>
<!-- A9&#45;&gt;A10 -->
<g id="edge28" class="edge">
<title>A9&#45;&gt;A10</title>
<path fill="none" stroke="#000000" d="M455.7237,-415.8732C506.3988,-418.0697 578.2195,-422.8109 640.423,-433 652.8036,-435.028 665.8529,-437.8022 678.4053,-440.8038"/>
<polygon fill="#000000" stroke="#000000" points="678.6011,-440.8521 685.3862,-438.4103 690.2498,-443.7343 683.4647,-446.1761 678.6011,-440.8521"/>
<text text-anchor="middle" x="474.2244" y="-405.2757" font-family="Helvetica,sans-Serif" font-size="10.00" fill="#000000">1</text>
</g>
<!-- A10&#45;&gt;A7 -->
<g id="edge11" class="edge">
<title>A10&#45;&gt;A7</title>
<path fill="none" stroke="#000000" d="M680.1009,-466.5841C660.6659,-466.908 639.7969,-466.7576 621.6943,-466.1328"/>
<polygon fill="#000000" stroke="#000000" points="690.1112,-466.3715 680.209,-471.083 685.1123,-466.4778 680.1134,-466.584 680.1134,-466.584 680.1134,-466.584 685.1123,-466.4778 680.0178,-462.085 690.1112,-466.3715 690.1112,-466.3715"/>
<polygon fill="#000000" stroke="#000000" points="611.5948,-465.72 621.7703,-461.6322 616.5906,-465.9242 621.5865,-466.1284 621.5865,-466.1284 621.5865,-466.1284 616.5906,-465.9242 621.4027,-470.6247 611.5948,-465.72 611.5948,-465.72"/>
</g>
<!-- A11 -->
<g id="node12" class="node">
<title>A11</title>
<polygon fill="none" stroke="#000000" points="97.5763,-436 2.0997,-436 2.0997,-400 97.5763,-400 97.5763,-436"/>
<text text-anchor="middle" x="49.838" y="-421" font-family="Helvetica,sans-Serif" font-size="10.00" fill="#000000">&lt;&lt;interface&gt;&gt;</text>
<text text-anchor="middle" x="49.838" y="-409" font-family="Helvetica,sans-Serif" font-size="10.00" fill="#000000">GameDelegate</text>
</g>
<!-- A11&#45;&gt;A6 -->
<g id="edge13" class="edge">
<title>A11&#45;&gt;A6</title>
<path fill="none" stroke="#000000" d="M97.7025,-418C116.7571,-418 138.7765,-418 158.3903,-418"/>
<polygon fill="#000000" stroke="#000000" points="158.5591,-418.0001 164.559,-414 170.5591,-418 164.5591,-422 158.5591,-418.0001"/>
<text text-anchor="middle" x="115.8287" y="-406.5476" font-family="Helvetica,sans-Serif" font-size="10.00" fill="#000000">1</text>
</g>
<!-- A12 -->
<g id="node13" class="node">
<title>A12</title>
<polygon fill="none" stroke="#000000" points="640.2743,-532 505.8697,-532 505.8697,-496 640.2743,-496 640.2743,-532"/>
<text text-anchor="middle" x="573.072" y="-511" font-family="Helvetica,sans-Serif" font-size="10.00" fill="#000000">BackgroundImagePanel</text>
</g>
<!-- A12&#45;&gt;A10 -->
<g id="edge27" class="edge">
<title>A12&#45;&gt;A10</title>
<path fill="none" stroke="#000000" d="M631.3542,-495.8686C646.5015,-491.1563 662.9521,-486.0385 678.5563,-481.1841"/>
<polygon fill="#000000" stroke="#000000" points="678.83,-481.099 683.3709,-475.4972 690.2883,-477.5343 685.7474,-483.1361 678.83,-481.099"/>
<text text-anchor="middle" x="646.1513" y="-479.4133" font-family="Helvetica,sans-Serif" font-size="10.00" fill="#000000">1</text>
</g>
<!-- A13 -->
<g id="node14" class="node">
<title>A13</title>
<polygon fill="none" stroke="#000000" points="266.3225,-328 158.2725,-328 158.2725,-292 266.3225,-292 266.3225,-328"/>
<text text-anchor="middle" x="212.2975" y="-307" font-family="Helvetica,sans-Serif" font-size="10.00" fill="#000000">BoardImagePanel</text>
</g>
<!-- A13&#45;&gt;A17 -->
<g id="edge25" class="edge">
<title>A13&#45;&gt;A17</title>
<path fill="none" stroke="#000000" d="M276.5418,-294.8432C298.1042,-289.756 321.7733,-284.1719 341.9129,-279.4205"/>
<polygon fill="#000000" stroke="#000000" points="266.6774,-297.1704 275.3769,-290.4943 271.5438,-296.0223 276.4102,-294.8741 276.4102,-294.8741 276.4102,-294.8741 271.5438,-296.0223 277.4436,-299.2539 266.6774,-297.1704 266.6774,-297.1704"/>
<polygon fill="#000000" stroke="#000000" points="351.7911,-277.0899 343.0917,-283.766 346.9247,-278.2381 342.0583,-279.3862 342.0583,-279.3862 342.0583,-279.3862 346.9247,-278.2381 341.025,-275.0065 351.7911,-277.0899 351.7911,-277.0899"/>
</g>
<!-- A17&#45;&gt;A16 -->
<g id="edge19" class="edge">
<title>A17&#45;&gt;A16</title>
<path fill="none" stroke="#000000" d="M439.3061,-268C465.7199,-268 498.2049,-268 524.5475,-268"/>
<polygon fill="#000000" stroke="#000000" points="429.077,-268 439.077,-263.5001 434.077,-268 439.077,-268.0001 439.077,-268.0001 439.077,-268.0001 434.077,-268 439.077,-272.5001 429.077,-268 429.077,-268"/>
<polygon fill="#000000" stroke="#000000" points="534.6846,-268 524.6847,-272.5001 529.6846,-268 524.6846,-268.0001 524.6846,-268.0001 524.6846,-268.0001 529.6846,-268 524.6846,-263.5001 534.6846,-268 534.6846,-268"/>
</g>
<!-- A20 -->
<g id="node21" class="node">
<title>A20</title>
<polygon fill="none" stroke="#000000" points="275.0407,-117 149.5543,-117 149.5543,-81 275.0407,-81 275.0407,-117"/>
<text text-anchor="middle" x="212.2975" y="-96" font-family="Helvetica,sans-Serif" font-size="10.00" fill="#000000">TraversableBoard&lt;T&gt;</text>
</g>
<!-- A20&#45;&gt;A21 -->
<g id="edge31" class="edge">
<title>A20&#45;&gt;A21</title>
<path fill="none" stroke="#000000" d="M275.0616,-93.7116C293.1993,-92.1833 312.9339,-90.5205 330.8638,-89.0097"/>
<polygon fill="#000000" stroke="#000000" points="330.9889,-88.9993 336.6319,-84.5096 342.9466,-87.9916 337.3036,-92.4813 330.9889,-88.9993"/>
<text text-anchor="middle" x="292.4141" y="-80.7671" font-family="Helvetica,sans-Serif" font-size="10.00" fill="#000000">1</text>
</g>
<!-- A22 -->
<g id="node23" class="node">
<title>A22</title>
<polygon fill="none" stroke="#000000" points="99.5145,-90 .1615,-90 .1615,-54 99.5145,-54 99.5145,-90"/>
<text text-anchor="middle" x="49.838" y="-75" font-family="Helvetica,sans-Serif" font-size="10.00" fill="#000000">&lt;&lt;interface&gt;&gt;</text>
<text text-anchor="middle" x="49.838" y="-63" font-family="Helvetica,sans-Serif" font-size="10.00" fill="#000000">WinnerDelegate</text>
</g>
<!-- A22&#45;&gt;A24 -->
<g id="edge33" class="edge">
<title>A22&#45;&gt;A24</title>
<path fill="none" stroke="#000000" d="M99.9068,-63.6788C118.8102,-60.5371 140.3674,-56.9544 159.5119,-53.7727"/>
<polygon fill="#000000" stroke="#000000" points="159.5448,-53.7673 164.8078,-48.8377 171.3824,-51.7999 166.1194,-56.7295 159.5448,-53.7673"/>
<text text-anchor="middle" x="116.402" y="-49.3691" font-family="Helvetica,sans-Serif" font-size="10.00" fill="#000000">1</text>
</g>
<!-- A23 -->
<g id="node24" class="node">
<title>A23</title>
<polygon fill="none" stroke="#000000" points="99.4651,-36 .2109,-36 .2109,0 99.4651,0 99.4651,-36"/>
<text text-anchor="middle" x="49.838" y="-21" font-family="Helvetica,sans-Serif" font-size="10.00" fill="#000000">&lt;&lt;interface&gt;&gt;</text>
<text text-anchor="middle" x="49.838" y="-9" font-family="Helvetica,sans-Serif" font-size="10.00" fill="#000000">ReplayDelegate</text>
</g>
<!-- A23&#45;&gt;A24 -->
<g id="edge34" class="edge">
<title>A23&#45;&gt;A24</title>
<path fill="none" stroke="#000000" d="M99.464,-26.2476C118.4609,-29.4048 140.1899,-33.0161 159.4749,-36.2211"/>
<polygon fill="#000000" stroke="#000000" points="159.5923,-36.2406 166.1669,-33.2784 171.4299,-38.208 164.8553,-41.1702 159.5923,-36.2406"/>
<text text-anchor="middle" x="118.7306" y="-17.8813" font-family="Helvetica,sans-Serif" font-size="10.00" fill="#000000">1</text>
</g>
</g>
</svg>
