<?xml version="1.0" encoding="UTF-8" standalone="no"?>
<!DOCTYPE svg PUBLIC "-//W3C//DTD SVG 1.1//EN"
 "http://www.w3.org/Graphics/SVG/1.1/DTD/svg11.dtd">
<!-- Generated by graphviz version 2.40.1 (20161225.0304)
 -->
<!-- Title: G Pages: 1 -->
<svg width="610pt" height="1310pt"
 viewBox="0.00 0.00 609.50 1310.00" xmlns="http://www.w3.org/2000/svg" xmlns:xlink="http://www.w3.org/1999/xlink">
<g id="graph0" class="graph" transform="scale(1 1) rotate(0) translate(4 1306)">
<title>G</title>
<polygon fill="#ffffff" stroke="transparent" points="-4,4 -4,-1306 605.5,-1306 605.5,4 -4,4"/>
<!-- A0 -->
<g id="node1" class="node">
<title>A0</title>
<polygon fill="none" stroke="#000000" points="241,-1270 241,-1302 398,-1302 398,-1270 241,-1270"/>
<text text-anchor="start" x="305.887" y="-1283" font-family="Helvetica,sans-Serif" font-size="10.00" fill="#000000">Game</text>
<polygon fill="none" stroke="#000000" points="241,-1166 241,-1270 398,-1270 398,-1166 241,-1166"/>
<text text-anchor="start" x="289.071" y="-1251" font-family="Helvetica,sans-Serif" font-size="10.00" fill="#000000">+board:Board</text>
<text text-anchor="start" x="275.4585" y="-1239" font-family="Helvetica,sans-Serif" font-size="10.00" fill="#000000">+panel:PlayerBoard</text>
<text text-anchor="start" x="272.5485" y="-1227" font-family="Helvetica,sans-Serif" font-size="10.00" fill="#000000">&#45;players:List&lt;Player&gt;</text>
<text text-anchor="start" x="271.439" y="-1215" font-family="Helvetica,sans-Serif" font-size="10.00" fill="#000000">&#45;winners:List&lt;Player&gt;</text>
<text text-anchor="start" x="282.8365" y="-1203" font-family="Helvetica,sans-Serif" font-size="10.00" fill="#000000">&#45;window:JFrame</text>
<text text-anchor="start" x="294.2145" y="-1179" font-family="Helvetica,sans-Serif" font-size="10.00" fill="#000000">GameState</text>
<polygon fill="none" stroke="#000000" points="241,-1038 241,-1166 398,-1166 398,-1038 241,-1038"/>
<text text-anchor="start" x="276.859" y="-1147" font-family="Helvetica,sans-Serif" font-size="10.00" fill="#000000">+main(String*):void</text>
<text text-anchor="start" x="272.134" y="-1123" font-family="Helvetica,sans-Serif" font-size="10.00" fill="#000000">+getPlayers():Player*</text>
<text text-anchor="start" x="270.4695" y="-1111" font-family="Helvetica,sans-Serif" font-size="10.00" fill="#000000">+getWinners():Player*</text>
<text text-anchor="start" x="263.805" y="-1099" font-family="Helvetica,sans-Serif" font-size="10.00" fill="#000000">+playerWins(Player):void</text>
<text text-anchor="start" x="253.672" y="-1087" font-family="Helvetica,sans-Serif" font-size="10.00" fill="#000000">&#45;createMainWindow():JFrame</text>
<text text-anchor="start" x="267.83" y="-1075" font-family="Helvetica,sans-Serif" font-size="10.00" fill="#000000">&#45;draw(GameState):void</text>
<text text-anchor="start" x="250.8875" y="-1063" font-family="Helvetica,sans-Serif" font-size="10.00" fill="#000000">&#45;drawChoosePlayerView():void</text>
<text text-anchor="start" x="268.6695" y="-1051" font-family="Helvetica,sans-Serif" font-size="10.00" fill="#000000">&#45;drawGameView():void</text>
</g>
<!-- A1 -->
<g id="node2" class="node">
<title>A1</title>
<polygon fill="none" stroke="#000000" points="0,-850 0,-894 102,-894 102,-850 0,-850"/>
<text text-anchor="start" x="26.819" y="-875" font-family="Helvetica,sans-Serif" font-size="10.00" fill="#000000">&lt;&lt;enum&gt;&gt;</text>
<text text-anchor="start" x="25.7145" y="-863" font-family="Helvetica,sans-Serif" font-size="10.00" fill="#000000">GameState</text>
<polygon fill="none" stroke="#000000" points="0,-806 0,-850 102,-850 102,-806 0,-806"/>
<text text-anchor="start" x="9.606" y="-831" font-family="Helvetica,sans-Serif" font-size="10.00" fill="#000000">CHOOSEPLAYER</text>
<text text-anchor="start" x="29.3285" y="-819" font-family="Helvetica,sans-Serif" font-size="10.00" fill="#000000">PLAYING</text>
</g>
<!-- A0&#45;&gt;A1 -->
<g id="edge1" class="edge">
<title>A0&#45;&gt;A1</title>
<path fill="none" stroke="#000000" stroke-dasharray="5,2" d="M232.3311,-1108.5055C191.4928,-1076.2129 144.5072,-1033.855 111,-988 90.1919,-959.5238 74.6443,-922.7045 64.5957,-894.2604"/>
<polygon fill="#000000" stroke="#000000" points="240.411,-1114.8279 229.7623,-1112.2094 236.4732,-1111.7466 232.5355,-1108.6654 232.5355,-1108.6654 232.5355,-1108.6654 236.4732,-1111.7466 235.3086,-1105.1214 240.411,-1114.8279 240.411,-1114.8279"/>
<text text-anchor="middle" x="78.7209" y="-905.4194" font-family="Helvetica,sans-Serif" font-size="10.00" fill="#000000">nested</text>
</g>
<!-- A2 -->
<g id="node3" class="node">
<title>A2</title>
<polygon fill="none" stroke="#000000" points="121,-938 121,-970 316,-970 316,-938 121,-938"/>
<text text-anchor="start" x="205.1625" y="-951" font-family="Helvetica,sans-Serif" font-size="10.00" fill="#000000">Board</text>
<polygon fill="none" stroke="#000000" points="121,-882 121,-938 316,-938 316,-882 121,-882"/>
<text text-anchor="start" x="172.38" y="-919" font-family="Helvetica,sans-Serif" font-size="10.00" fill="#000000">&#45;board:BoardSprite**</text>
<text text-anchor="start" x="170.435" y="-907" font-family="Helvetica,sans-Serif" font-size="10.00" fill="#000000">&#45;jewels:List&lt;Integer*&gt;</text>
<text text-anchor="start" x="160.707" y="-895" font-family="Helvetica,sans-Serif" font-size="10.00" fill="#000000">&#45;startPoints:List&lt;Integer*&gt;</text>
<polygon fill="none" stroke="#000000" points="121,-730 121,-882 316,-882 316,-730 121,-730"/>
<text text-anchor="start" x="160.2925" y="-863" font-family="Helvetica,sans-Serif" font-size="10.00" fill="#000000">+getBoard():BoardSprite**</text>
<text text-anchor="start" x="157.512" y="-851" font-family="Helvetica,sans-Serif" font-size="10.00" fill="#000000">+getJewels():List&lt;Integer*&gt;</text>
<text text-anchor="start" x="146.539" y="-839" font-family="Helvetica,sans-Serif" font-size="10.00" fill="#000000">&#45;getBlockingPos():List&lt;Integer*&gt;</text>
<text text-anchor="start" x="157.513" y="-827" font-family="Helvetica,sans-Serif" font-size="10.00" fill="#000000">+getTurtles():List&lt;Integer*&gt;</text>
<text text-anchor="start" x="149.4555" y="-815" font-family="Helvetica,sans-Serif" font-size="10.00" fill="#000000">+getSquare(int,int):BoardSprite</text>
<text text-anchor="start" x="130.559" y="-803" font-family="Helvetica,sans-Serif" font-size="10.00" fill="#000000">+setSquare(int,int,BoardSprite):boolean</text>
<text text-anchor="start" x="162.517" y="-791" font-family="Helvetica,sans-Serif" font-size="10.00" fill="#000000">+resetSquare(int,int):void</text>
<text text-anchor="start" x="140.847" y="-779" font-family="Helvetica,sans-Serif" font-size="10.00" fill="#000000">+getNeighbors(int,int):BoardSprite*</text>
<text text-anchor="start" x="154.1785" y="-767" font-family="Helvetica,sans-Serif" font-size="10.00" fill="#000000">+existsPath(int*,int*):boolean</text>
<text text-anchor="start" x="133.6125" y="-755" font-family="Helvetica,sans-Serif" font-size="10.00" fill="#000000">+existsPath(Integer*,Integer*):boolean</text>
<text text-anchor="start" x="145.5715" y="-743" font-family="Helvetica,sans-Serif" font-size="10.00" fill="#000000">+canBuildWall(int,int,int):boolean</text>
</g>
<!-- A0&#45;&gt;A2 -->
<g id="edge2" class="edge">
<title>A0&#45;&gt;A2</title>
<path fill="none" stroke="#000000" d="M273.6616,-1026.3536C267.7351,-1007.5766 261.7128,-988.4961 255.9258,-970.1609"/>
<polygon fill="#000000" stroke="#000000" points="273.7244,-1026.5527 279.3449,-1031.0705 277.3363,-1037.9963 271.7158,-1033.4785 273.7244,-1026.5527"/>
<text text-anchor="middle" x="269.442" y="-981.9025" font-family="Helvetica,sans-Serif" font-size="10.00" fill="#000000">1</text>
</g>
<!-- A4 -->
<g id="node5" class="node">
<title>A4</title>
<polygon fill="none" stroke="#000000" points="334,-956 334,-988 508,-988 508,-956 334,-956"/>
<text text-anchor="start" x="406.8325" y="-969" font-family="Helvetica,sans-Serif" font-size="10.00" fill="#000000">Player</text>
<polygon fill="none" stroke="#000000" points="334,-852 334,-956 508,-956 508,-852 334,-852"/>
<text text-anchor="start" x="355.7115" y="-937" font-family="Helvetica,sans-Serif" font-size="10.00" fill="#000000">&#45;availableCards:Stack&lt;Card&gt;</text>
<text text-anchor="start" x="389.896" y="-925" font-family="Helvetica,sans-Serif" font-size="10.00" fill="#000000">&#45;brickWalls:int</text>
<text text-anchor="start" x="364.0455" y="-913" font-family="Helvetica,sans-Serif" font-size="10.00" fill="#000000">&#45;ditchedCards:List&lt;Card&gt;</text>
<text text-anchor="start" x="394.0505" y="-901" font-family="Helvetica,sans-Serif" font-size="10.00" fill="#000000">&#45;hand:Card*</text>
<text text-anchor="start" x="394.0605" y="-889" font-family="Helvetica,sans-Serif" font-size="10.00" fill="#000000">&#45;iceWalls:int</text>
<text text-anchor="start" x="367.655" y="-877" font-family="Helvetica,sans-Serif" font-size="10.00" fill="#000000">&#45;program:Queue&lt;Card&gt;</text>
<text text-anchor="start" x="392.802" y="-865" font-family="Helvetica,sans-Serif" font-size="10.00" fill="#000000">+Turtle turtle</text>
<polygon fill="none" stroke="#000000" points="334,-712 334,-852 508,-852 508,-712 334,-712"/>
<text text-anchor="start" x="343.624" y="-833" font-family="Helvetica,sans-Serif" font-size="10.00" fill="#000000">+getAvailableCards():Stack&lt;Card&gt;</text>
<text text-anchor="start" x="377.8085" y="-821" font-family="Helvetica,sans-Serif" font-size="10.00" fill="#000000">+getBrickWalls():int</text>
<text text-anchor="start" x="351.683" y="-809" font-family="Helvetica,sans-Serif" font-size="10.00" fill="#000000">+getDitchedCards():List&lt;Card&gt;</text>
<text text-anchor="start" x="381.688" y="-797" font-family="Helvetica,sans-Serif" font-size="10.00" fill="#000000">+getHand():Card*</text>
<text text-anchor="start" x="382.248" y="-785" font-family="Helvetica,sans-Serif" font-size="10.00" fill="#000000">+getIceWalls():int</text>
<text text-anchor="start" x="355.5675" y="-773" font-family="Helvetica,sans-Serif" font-size="10.00" fill="#000000">+getProgram():Queue&lt;Card&gt;</text>
<text text-anchor="start" x="365.576" y="-761" font-family="Helvetica,sans-Serif" font-size="10.00" fill="#000000">+addToProgram(int):void</text>
<text text-anchor="start" x="367.5195" y="-749" font-family="Helvetica,sans-Serif" font-size="10.00" fill="#000000">+executeProgram():void</text>
<text text-anchor="start" x="377.524" y="-737" font-family="Helvetica,sans-Serif" font-size="10.00" fill="#000000">+ditchCard(int):void</text>
<text text-anchor="start" x="381.9715" y="-725" font-family="Helvetica,sans-Serif" font-size="10.00" fill="#000000">+pickCards():void</text>
</g>
<!-- A0&#45;&gt;A4 -->
<g id="edge4" class="edge">
<title>A0&#45;&gt;A4</title>
<path fill="none" stroke="#000000" d="M364.7795,-1026.378C368.8288,-1013.6742 372.9225,-1000.8313 376.957,-988.1741"/>
<polygon fill="#000000" stroke="#000000" points="364.7206,-1026.563 366.7095,-1033.4944 361.0762,-1037.9963 359.0873,-1031.0648 364.7206,-1026.563"/>
<text text-anchor="middle" x="379.5053" y="-1005.0111" font-family="Helvetica,sans-Serif" font-size="10.00" fill="#000000">2..4</text>
</g>
<!-- A8 -->
<g id="node9" class="node">
<title>A8</title>
<polygon fill="none" stroke="#000000" points="527,-844 527,-876 602,-876 602,-844 527,-844"/>
<text text-anchor="start" x="536.995" y="-857" font-family="Helvetica,sans-Serif" font-size="10.00" fill="#000000">PlayerBoard</text>
<polygon fill="none" stroke="#000000" points="527,-824 527,-844 602,-844 602,-824 527,-824"/>
</g>
<!-- A0&#45;&gt;A8 -->
<g id="edge8" class="edge">
<title>A0&#45;&gt;A8</title>
<path fill="none" stroke="#000000" d="M406.7051,-1038.2513C406.8034,-1038.1674 406.9016,-1038.0836 407,-1038 447.9105,-1003.2108 480.9395,-1027.7944 517,-988 545.6368,-956.3979 556.9378,-906.6111 561.3176,-876.269"/>
<polygon fill="#000000" stroke="#000000" points="406.6208,-1038.3284 404.889,-1045.3284 397.7613,-1046.4222 399.4931,-1039.4221 406.6208,-1038.3284"/>
<text text-anchor="middle" x="566.8229" y="-892.4964" font-family="Helvetica,sans-Serif" font-size="10.00" fill="#000000">1</text>
</g>
<!-- A3 -->
<g id="node4" class="node">
<title>A3</title>
<polygon fill="none" stroke="#000000" points="165,-576 165,-608 271,-608 271,-576 165,-576"/>
<text text-anchor="start" x="191.6055" y="-589" font-family="Helvetica,sans-Serif" font-size="10.00" fill="#000000">BoardSprite</text>
<polygon fill="none" stroke="#000000" points="165,-544 165,-576 271,-576 271,-544 165,-544"/>
<text text-anchor="start" x="189.6665" y="-557" font-family="Helvetica,sans-Serif" font-size="10.00" fill="#000000">&#45;sprite:String</text>
<polygon fill="none" stroke="#000000" points="165,-500 165,-544 271,-544 271,-500 165,-500"/>
<text text-anchor="start" x="176.464" y="-525" font-family="Helvetica,sans-Serif" font-size="10.00" fill="#000000">+getSprite():Image</text>
<text text-anchor="start" x="174.798" y="-513" font-family="Helvetica,sans-Serif" font-size="10.00" fill="#000000">+isEmpty():boolean</text>
</g>
<!-- A2&#45;&gt;A3 -->
<g id="edge3" class="edge">
<title>A2&#45;&gt;A3</title>
<path fill="none" stroke="#000000" d="M218,-717.1979C218,-678.7922 218,-639.0069 218,-608.334"/>
<polygon fill="#000000" stroke="#000000" points="218.0001,-717.6055 222,-723.6055 218,-729.6055 214,-723.6054 218.0001,-717.6055"/>
</g>
<!-- A7 -->
<g id="node8" class="node">
<title>A7</title>
<polygon fill="none" stroke="#000000" points="248,-352 248,-396 425,-396 425,-352 248,-352"/>
<text text-anchor="start" x="312.319" y="-377" font-family="Helvetica,sans-Serif" font-size="10.00" fill="#000000">&lt;&lt;enum&gt;&gt;</text>
<text text-anchor="start" x="323.723" y="-365" font-family="Helvetica,sans-Serif" font-size="10.00" fill="#000000">Turtle</text>
<polygon fill="none" stroke="#000000" points="248,-140 248,-352 425,-352 425,-140 248,-140"/>
<text text-anchor="start" x="323.162" y="-333" font-family="Helvetica,sans-Serif" font-size="10.00" fill="#000000">BEEP</text>
<text text-anchor="start" x="316.218" y="-321" font-family="Helvetica,sans-Serif" font-size="10.00" fill="#000000">PANGLE</text>
<text text-anchor="start" x="331.776" y="-309" font-family="Helvetica,sans-Serif" font-size="10.00" fill="#000000">PI</text>
<text text-anchor="start" x="325.9465" y="-297" font-family="Helvetica,sans-Serif" font-size="10.00" fill="#000000">DOT</text>
<text text-anchor="start" x="310.6705" y="-273" font-family="Helvetica,sans-Serif" font-size="10.00" fill="#000000">&#45;color:Color</text>
<text text-anchor="start" x="269.8165" y="-261" font-family="Helvetica,sans-Serif" font-size="10.00" fill="#000000">&#45;playerChooseIcon:ImageIcon</text>
<text text-anchor="start" x="318.719" y="-249" font-family="Helvetica,sans-Serif" font-size="10.00" fill="#000000">&#45;posI:int</text>
<text text-anchor="start" x="317.6085" y="-237" font-family="Helvetica,sans-Serif" font-size="10.00" fill="#000000">&#45;posJ:int</text>
<text text-anchor="start" x="311.4965" y="-225" font-family="Helvetica,sans-Serif" font-size="10.00" fill="#000000">&#45;rotation:int</text>
<text text-anchor="start" x="291.4945" y="-213" font-family="Helvetica,sans-Serif" font-size="10.00" fill="#000000">&#45;spriteE:BoardSprite</text>
<text text-anchor="start" x="291.2195" y="-201" font-family="Helvetica,sans-Serif" font-size="10.00" fill="#000000">&#45;spriteN:BoardSprite</text>
<text text-anchor="start" x="291.4945" y="-189" font-family="Helvetica,sans-Serif" font-size="10.00" fill="#000000">&#45;spriteS:BoardSprite</text>
<text text-anchor="start" x="290.1095" y="-177" font-family="Helvetica,sans-Serif" font-size="10.00" fill="#000000">&#45;spriteW:BoardSprite</text>
<text text-anchor="start" x="308.441" y="-165" font-family="Helvetica,sans-Serif" font-size="10.00" fill="#000000">&#45;startPosI:int</text>
<text text-anchor="start" x="307.3305" y="-153" font-family="Helvetica,sans-Serif" font-size="10.00" fill="#000000">&#45;startPosJ:int</text>
<polygon fill="none" stroke="#000000" points="248,0 248,-140 425,-140 425,0 248,0"/>
<text text-anchor="start" x="298.0285" y="-121" font-family="Helvetica,sans-Serif" font-size="10.00" fill="#000000">+getColor():Color</text>
<text text-anchor="start" x="257.729" y="-109" font-family="Helvetica,sans-Serif" font-size="10.00" fill="#000000">+getPlayerChooseIcon():ImageIcon</text>
<text text-anchor="start" x="295.7935" y="-97" font-family="Helvetica,sans-Serif" font-size="10.00" fill="#000000">+getPos():Integer*</text>
<text text-anchor="start" x="298.019" y="-85" font-family="Helvetica,sans-Serif" font-size="10.00" fill="#000000">+getRotation():int</text>
<text text-anchor="start" x="282.462" y="-73" font-family="Helvetica,sans-Serif" font-size="10.00" fill="#000000">+getSprite():BoardSprite</text>
<text text-anchor="start" x="285.236" y="-61" font-family="Helvetica,sans-Serif" font-size="10.00" fill="#000000">+getStartPos():Integer*</text>
<text text-anchor="start" x="292.464" y="-49" font-family="Helvetica,sans-Serif" font-size="10.00" fill="#000000">+setPos(int,int):void</text>
<text text-anchor="start" x="289.13" y="-37" font-family="Helvetica,sans-Serif" font-size="10.00" fill="#000000">+setRotation(int):void</text>
<text text-anchor="start" x="281.9065" y="-25" font-family="Helvetica,sans-Serif" font-size="10.00" fill="#000000">+setStartPos(int,int):void</text>
<text text-anchor="start" x="308.5805" y="-13" font-family="Helvetica,sans-Serif" font-size="10.00" fill="#000000">+reset():void</text>
</g>
<!-- A3&#45;&gt;A7 -->
<g id="edge6" class="edge">
<title>A3&#45;&gt;A7</title>
<path fill="none" stroke="#000000" d="M235.9217,-499.9313C244.4077,-474.3294 255.1444,-441.9372 266.4139,-407.9376"/>
<polygon fill="#000000" stroke="#000000" points="266.4781,-407.7438 264.569,-400.79 270.2537,-396.3532 272.1628,-403.3071 266.4781,-407.7438"/>
<text text-anchor="middle" x="233.6015" y="-477.0663" font-family="Helvetica,sans-Serif" font-size="10.00" fill="#000000">4</text>
</g>
<!-- A5 -->
<g id="node6" class="node">
<title>A5</title>
<polygon fill="none" stroke="#000000" points="290,-618 290,-662 427,-662 427,-618 290,-618"/>
<text text-anchor="start" x="334.319" y="-643" font-family="Helvetica,sans-Serif" font-size="10.00" fill="#000000">&lt;&lt;enum&gt;&gt;</text>
<text text-anchor="start" x="347.667" y="-631" font-family="Helvetica,sans-Serif" font-size="10.00" fill="#000000">Card</text>
<polygon fill="none" stroke="#000000" points="290,-478 290,-618 427,-618 427,-478 290,-478"/>
<text text-anchor="start" x="312.6765" y="-599" font-family="Helvetica,sans-Serif" font-size="10.00" fill="#000000">FRONT_FORWARD</text>
<text text-anchor="start" x="303.2235" y="-587" font-family="Helvetica,sans-Serif" font-size="10.00" fill="#000000">FRONT_ROTATE_LEFT</text>
<text text-anchor="start" x="299.894" y="-575" font-family="Helvetica,sans-Serif" font-size="10.00" fill="#000000">FRONT_ROTATE_RIGHT</text>
<text text-anchor="start" x="322.1105" y="-563" font-family="Helvetica,sans-Serif" font-size="10.00" fill="#000000">FRONT_LASER</text>
<text text-anchor="start" x="328.7695" y="-551" font-family="Helvetica,sans-Serif" font-size="10.00" fill="#000000">BACK_BEEP</text>
<text text-anchor="start" x="321.8255" y="-539" font-family="Helvetica,sans-Serif" font-size="10.00" fill="#000000">BACK_PANGLE</text>
<text text-anchor="start" x="337.3835" y="-527" font-family="Helvetica,sans-Serif" font-size="10.00" fill="#000000">BACK_PI</text>
<text text-anchor="start" x="331.554" y="-515" font-family="Helvetica,sans-Serif" font-size="10.00" fill="#000000">BACK_DOT</text>
<text text-anchor="start" x="315.999" y="-491" font-family="Helvetica,sans-Serif" font-size="10.00" fill="#000000">&#45;sprite:PlayerSprite</text>
<polygon fill="none" stroke="#000000" points="290,-446 290,-478 427,-478 427,-446 290,-446"/>
<text text-anchor="start" x="303.632" y="-459" font-family="Helvetica,sans-Serif" font-size="10.00" fill="#000000">+getSprite():PlayerSprite</text>
</g>
<!-- A4&#45;&gt;A5 -->
<g id="edge5" class="edge">
<title>A4&#45;&gt;A5</title>
<path fill="none" stroke="#000000" d="M389.1139,-700.1858C386.3823,-687.3519 383.6547,-674.5363 381.0131,-662.125"/>
<polygon fill="#000000" stroke="#000000" points="389.123,-700.2288 394.2844,-705.2647 391.6211,-711.9659 386.4597,-706.9301 389.123,-700.2288"/>
<text text-anchor="middle" x="393.0537" y="-675.0945" font-family="Helvetica,sans-Serif" font-size="10.00" fill="#000000">37</text>
</g>
<!-- A4&#45;&gt;A7 -->
<g id="edge7" class="edge">
<title>A4&#45;&gt;A7</title>
<path fill="none" stroke="#000000" d="M442.7303,-699.6919C449.737,-623.1108 452.0843,-528.8987 436,-446 432.8167,-429.5933 428.5512,-412.8967 423.5708,-396.3162"/>
<polygon fill="none" stroke="#000000" points="442.7122,-699.8816 446.1218,-706.2357 441.5679,-711.8269 438.1583,-705.4728 442.7122,-699.8816"/>
</g>
<!-- A6 -->
<g id="node7" class="node">
<title>A6</title>
<polygon fill="none" stroke="#000000" points="416,-1186 416,-1218 519,-1218 519,-1186 416,-1186"/>
<text text-anchor="start" x="440.2755" y="-1199" font-family="Helvetica,sans-Serif" font-size="10.00" fill="#000000">PlayerSprite</text>
<polygon fill="none" stroke="#000000" points="416,-1154 416,-1186 519,-1186 519,-1154 416,-1154"/>
<text text-anchor="start" x="439.1665" y="-1167" font-family="Helvetica,sans-Serif" font-size="10.00" fill="#000000">&#45;sprite:String</text>
<polygon fill="none" stroke="#000000" points="416,-1122 416,-1154 519,-1154 519,-1122 416,-1122"/>
<text text-anchor="start" x="425.964" y="-1135" font-family="Helvetica,sans-Serif" font-size="10.00" fill="#000000">+getSprite():Image</text>
</g>
</g>
</svg>
