<?xml version="1.0" encoding="UTF-8" standalone="no"?>
<!DOCTYPE svg PUBLIC "-//W3C//DTD SVG 1.1//EN"
 "http://www.w3.org/Graphics/SVG/1.1/DTD/svg11.dtd">
<!-- Generated by graphviz version 2.40.1 (20161225.0304)
 -->
<!-- Title: G Pages: 1 -->
<svg width="1138pt" height="388pt"
 viewBox="0.00 0.00 1137.63 388.00" xmlns="http://www.w3.org/2000/svg" xmlns:xlink="http://www.w3.org/1999/xlink">
<g id="graph0" class="graph" transform="scale(1 1) rotate(0) translate(4 384)">
<title>G</title>
<polygon fill="#ffffff" stroke="transparent" points="-4,4 -4,-384 1133.634,-384 1133.634,4 -4,4"/>
<!-- A0 -->
<g id="node1" class="node">
<title>A0</title>
<polygon fill="#a020f0" stroke="#000000" points="479.739,-380 424.286,-380 424.286,-344 479.739,-344 479.739,-380"/>
<text text-anchor="middle" x="452.0125" y="-359" font-family="Helvetica,sans-Serif" font-size="10.00" fill="#000000">Game</text>
</g>
<!-- A1 -->
<g id="node2" class="node">
<title>A1</title>
<polygon fill="none" stroke="#000000" points="537.1885,-294 482.8365,-294 482.8365,-258 537.1885,-258 537.1885,-294"/>
<text text-anchor="middle" x="510.0125" y="-273" font-family="Helvetica,sans-Serif" font-size="10.00" fill="#000000">Board</text>
</g>
<!-- A0&#45;&gt;A1 -->
<g id="edge1" class="edge">
<title>A0&#45;&gt;A1</title>
<path fill="none" stroke="#000000" d="M471.2495,-333.4762C479.9787,-320.5329 490.0439,-305.6086 497.7299,-294.2121"/>
<polygon fill="#000000" stroke="#000000" points="471.0226,-333.8127 470.984,-341.0238 464.3128,-343.7616 464.3514,-336.5506 471.0226,-333.8127"/>
<text text-anchor="middle" x="494.6025" y="-310.9661" font-family="Helvetica,sans-Serif" font-size="10.00" fill="#000000">1</text>
</g>
<!-- A3 -->
<g id="node4" class="node">
<title>A3</title>
<polygon fill="none" stroke="#000000" points="427.3485,-294 370.6765,-294 370.6765,-258 427.3485,-258 427.3485,-294"/>
<text text-anchor="middle" x="399.0125" y="-273" font-family="Helvetica,sans-Serif" font-size="10.00" fill="#000000">Player</text>
</g>
<!-- A0&#45;&gt;A3 -->
<g id="edge3" class="edge">
<title>A0&#45;&gt;A3</title>
<path fill="none" stroke="#000000" d="M434.4339,-333.4762C426.4572,-320.5329 417.2597,-305.6086 410.2362,-294.2121"/>
<polygon fill="#000000" stroke="#000000" points="434.4767,-333.5458 441.0299,-336.5551 440.7726,-343.7616 434.2194,-340.7523 434.4767,-333.5458"/>
<text text-anchor="middle" x="426.9418" y="-302.2087" font-family="Helvetica,sans-Serif" font-size="10.00" fill="#000000">2..4</text>
</g>
<!-- A6 -->
<g id="node7" class="node">
<title>A6</title>
<polygon fill="none" stroke="#000000" points="247.5225,-294 164.5025,-294 164.5025,-258 247.5225,-258 247.5225,-294"/>
<text text-anchor="middle" x="206.0125" y="-273" font-family="Helvetica,sans-Serif" font-size="10.00" fill="#000000">PlayerBoard</text>
</g>
<!-- A0&#45;&gt;A6 -->
<g id="edge11" class="edge">
<title>A0&#45;&gt;A6</title>
<path fill="none" stroke="#000000" d="M412.7801,-348.3675C373.3913,-334.6692 310.9744,-312.9314 257.0125,-294 254.0001,-292.9432 250.8883,-291.8495 247.7565,-290.7476"/>
<polygon fill="#000000" stroke="#000000" points="412.8956,-348.4076 419.8765,-346.5999 424.23,-352.3486 417.2492,-354.1562 412.8956,-348.4076"/>
<text text-anchor="middle" x="267.6605" y="-285.7902" font-family="Helvetica,sans-Serif" font-size="10.00" fill="#000000">1</text>
</g>
<!-- A9 -->
<g id="node10" class="node">
<title>A9</title>
<polygon fill="none" stroke="#000000" points="670.4694,-36 557.5556,-36 557.5556,0 670.4694,0 670.4694,-36"/>
<text text-anchor="middle" x="614.0125" y="-15" font-family="Helvetica,sans-Serif" font-size="10.00" fill="#000000">ChoosePlayerView</text>
</g>
<!-- A0&#45;&gt;A9 -->
<g id="edge27" class="edge">
<title>A0&#45;&gt;A9</title>
<path fill="none" stroke="#000000" d="M489.5944,-353.4614C581.6808,-331.7012 814.2606,-271.3892 858.0125,-208 912.9649,-128.3831 769.6839,-66.7165 679.9976,-37.1738"/>
<polygon fill="#000000" stroke="#000000" points="479.8479,-355.7442 488.5581,-349.0823 484.7161,-354.604 489.5844,-353.4637 489.5844,-353.4637 489.5844,-353.4637 484.7161,-354.604 490.6106,-357.8451 479.8479,-355.7442 479.8479,-355.7442"/>
<polygon fill="#000000" stroke="#000000" points="670.4195,-34.073 681.3194,-32.8718 675.1765,-35.613 679.9334,-37.153 679.9334,-37.153 679.9334,-37.153 675.1765,-35.613 678.5474,-41.4343 670.4195,-34.073 670.4195,-34.073"/>
</g>
<!-- A15 -->
<g id="node16" class="node">
<title>A15</title>
<polygon fill="none" stroke="#000000" points="149.4046,-208 72.6204,-208 72.6204,-172 149.4046,-172 149.4046,-208"/>
<text text-anchor="middle" x="111.0125" y="-187" font-family="Helvetica,sans-Serif" font-size="10.00" fill="#000000">GameView</text>
</g>
<!-- A0&#45;&gt;A15 -->
<g id="edge23" class="edge">
<title>A0&#45;&gt;A15</title>
<path fill="none" stroke="#000000" d="M414.1078,-357.6435C343.2065,-348.8127 194.1437,-326.8139 155.0125,-294 132.1123,-274.7968 120.8832,-241.5863 115.5456,-217.8597"/>
<polygon fill="#000000" stroke="#000000" points="424.3835,-358.899 413.9115,-362.1529 419.4204,-358.2925 414.4574,-357.6861 414.4574,-357.6861 414.4574,-357.6861 419.4204,-358.2925 415.0032,-353.2193 424.3835,-358.899 424.3835,-358.899"/>
<polygon fill="#000000" stroke="#000000" points="113.5443,-208.0256 119.9481,-216.9273 114.5414,-212.9252 115.5385,-217.8248 115.5385,-217.8248 115.5385,-217.8248 114.5414,-212.9252 111.1289,-218.7222 113.5443,-208.0256 113.5443,-208.0256"/>
</g>
<!-- A21 -->
<g id="node22" class="node">
<title>A21</title>
<polygon fill="none" stroke="#000000" points="986.8432,-294 905.1818,-294 905.1818,-258 986.8432,-258 986.8432,-294"/>
<text text-anchor="middle" x="946.0125" y="-273" font-family="Helvetica,sans-Serif" font-size="10.00" fill="#000000">WinnerView</text>
</g>
<!-- A0&#45;&gt;A21 -->
<g id="edge31" class="edge">
<title>A0&#45;&gt;A21</title>
<path fill="none" stroke="#000000" d="M489.9096,-358.2308C566.4598,-350.1577 744.6973,-329.0284 891.0125,-294 892.4476,-293.6564 893.8991,-293.293 895.3603,-292.9132"/>
<polygon fill="#000000" stroke="#000000" points="479.7968,-359.2834 489.2772,-353.7722 484.77,-358.7657 489.7431,-358.248 489.7431,-358.248 489.7431,-358.248 484.77,-358.7657 490.209,-362.7238 479.7968,-359.2834 479.7968,-359.2834"/>
<polygon fill="#000000" stroke="#000000" points="905.076,-290.2043 896.652,-297.2248 900.2597,-291.5472 895.4434,-292.8901 895.4434,-292.8901 895.4434,-292.8901 900.2597,-291.5472 894.2347,-288.5555 905.076,-290.2043 905.076,-290.2043"/>
</g>
<!-- A2 -->
<g id="node3" class="node">
<title>A2</title>
<polygon fill="none" stroke="#000000" points="550.3018,-208 469.7232,-208 469.7232,-172 550.3018,-172 550.3018,-208"/>
<text text-anchor="middle" x="510.0125" y="-187" font-family="Helvetica,sans-Serif" font-size="10.00" fill="#000000">BoardSprite</text>
</g>
<!-- A1&#45;&gt;A2 -->
<g id="edge2" class="edge">
<title>A1&#45;&gt;A2</title>
<path fill="none" stroke="#000000" d="M510.0125,-245.5205C510.0125,-233.0493 510.0125,-219.0388 510.0125,-208.2121"/>
<polygon fill="#000000" stroke="#000000" points="510.0126,-245.7616 514.0125,-251.7616 510.0125,-257.7616 506.0125,-251.7616 510.0126,-245.7616"/>
</g>
<!-- A14 -->
<g id="node15" class="node">
<title>A14</title>
<polygon fill="none" stroke="#000000" points="404.3754,-122 327.6496,-122 327.6496,-86 404.3754,-86 404.3754,-122"/>
<text text-anchor="middle" x="366.0125" y="-107" font-family="Helvetica,sans-Serif" font-size="10.00" fill="#000000">&lt;&lt;enum&gt;&gt;</text>
<text text-anchor="middle" x="366.0125" y="-95" font-family="Helvetica,sans-Serif" font-size="10.00" fill="#000000">BoardWall</text>
</g>
<!-- A1&#45;&gt;A14 -->
<g id="edge14" class="edge">
<title>A1&#45;&gt;A14</title>
<path fill="none" stroke="#000000" d="M488.2336,-249.9863C461.0258,-217.4882 414.7562,-162.2216 387.626,-129.8161"/>
<polygon fill="#000000" stroke="#000000" points="494.8741,-257.9181 485.0043,-253.1392 491.6644,-254.0843 488.4547,-250.2505 488.4547,-250.2505 488.4547,-250.2505 491.6644,-254.0843 491.9052,-247.3617 494.8741,-257.9181 494.8741,-257.9181"/>
<polygon fill="#000000" stroke="#000000" points="381.1641,-122.0977 391.0339,-126.8766 384.3738,-125.9315 387.5835,-129.7653 387.5835,-129.7653 387.5835,-129.7653 384.3738,-125.9315 384.1331,-132.6541 381.1641,-122.0977 381.1641,-122.0977"/>
</g>
<!-- A16 -->
<g id="node17" class="node">
<title>A16</title>
<polygon fill="none" stroke="#000000" points="746.3754,-122 669.6496,-122 669.6496,-86 746.3754,-86 746.3754,-122"/>
<text text-anchor="middle" x="708.0125" y="-107" font-family="Helvetica,sans-Serif" font-size="10.00" fill="#000000">&lt;&lt;enum&gt;&gt;</text>
<text text-anchor="middle" x="708.0125" y="-95" font-family="Helvetica,sans-Serif" font-size="10.00" fill="#000000">Jewel</text>
</g>
<!-- A1&#45;&gt;A16 -->
<g id="edge18" class="edge">
<title>A1&#45;&gt;A16</title>
<path fill="none" stroke="#000000" d="M547.3839,-268.5305C599.3086,-257.3068 689.0559,-234.5537 708.0125,-208 723.5897,-186.18 721.0968,-154.6843 716.2553,-132.0777"/>
<polygon fill="#000000" stroke="#000000" points="537.5354,-270.6192 546.3842,-264.1424 542.4266,-269.5819 547.3178,-268.5445 547.3178,-268.5445 547.3178,-268.5445 542.4266,-269.5819 548.2515,-272.9465 537.5354,-270.6192 537.5354,-270.6192"/>
<polygon fill="#000000" stroke="#000000" points="713.8407,-122.0796 720.5626,-130.7438 715.0145,-126.9399 716.1883,-131.8002 716.1883,-131.8002 716.1883,-131.8002 715.0145,-126.9399 711.8141,-132.8566 713.8407,-122.0796 713.8407,-122.0796"/>
</g>
<!-- A19 -->
<g id="node20" class="node">
<title>A19</title>
<polygon fill="none" stroke="#000000" points="849.2,-208 754.825,-208 754.825,-172 849.2,-172 849.2,-208"/>
<text text-anchor="middle" x="802.0125" y="-187" font-family="Helvetica,sans-Serif" font-size="10.00" fill="#000000">PathFinder&lt;T&gt;</text>
</g>
<!-- A1&#45;&gt;A19 -->
<g id="edge29" class="edge">
<title>A1&#45;&gt;A19</title>
<path fill="none" stroke="#000000" d="M547.1441,-265.0776C592.7852,-251.6502 672.6023,-228.1623 741.0125,-208 742.2636,-207.6313 743.5291,-207.2582 744.8051,-206.8821"/>
<polygon fill="#000000" stroke="#000000" points="537.3948,-267.9457 545.7182,-260.8063 542.1915,-266.5345 546.9883,-265.1234 546.9883,-265.1234 546.9883,-265.1234 542.1915,-266.5345 548.2583,-269.4404 537.3948,-267.9457 537.3948,-267.9457"/>
<polygon fill="#000000" stroke="#000000" points="754.7249,-203.957 746.4059,-211.1017 749.929,-205.3712 745.1332,-206.7854 745.1332,-206.7854 745.1332,-206.7854 749.929,-205.3712 743.8604,-202.4691 754.7249,-203.957 754.7249,-203.957"/>
</g>
<!-- A7 -->
<g id="node8" class="node">
<title>A7</title>
<polygon fill="none" stroke="#000000" points="652.3754,-122 575.6496,-122 575.6496,-86 652.3754,-86 652.3754,-122"/>
<text text-anchor="middle" x="614.0125" y="-107" font-family="Helvetica,sans-Serif" font-size="10.00" fill="#000000">&lt;&lt;enum&gt;&gt;</text>
<text text-anchor="middle" x="614.0125" y="-95" font-family="Helvetica,sans-Serif" font-size="10.00" fill="#000000">Turtle</text>
</g>
<!-- A2&#45;&gt;A7 -->
<g id="edge7" class="edge">
<title>A2&#45;&gt;A7</title>
<path fill="none" stroke="#000000" d="M531.8143,-171.9716C546.652,-159.702 566.5095,-143.2813 582.9898,-129.6534"/>
<polygon fill="#000000" stroke="#000000" points="582.9916,-129.6519 585.0664,-122.7457 592.2394,-122.0047 590.1646,-128.9109 582.9916,-129.6519"/>
<text text-anchor="middle" x="540.3968" y="-150.9067" font-family="Helvetica,sans-Serif" font-size="10.00" fill="#000000">4</text>
</g>
<!-- A2&#45;&gt;A14 -->
<g id="edge13" class="edge">
<title>A2&#45;&gt;A14</title>
<path fill="none" stroke="#000000" d="M479.8254,-171.9716C458.6089,-159.3007 429.9797,-142.2026 406.7432,-128.3253"/>
<polygon fill="#000000" stroke="#000000" points="406.4624,-128.1576 399.2602,-128.5153 396.1599,-122.0047 403.3621,-121.647 406.4624,-128.1576"/>
<text text-anchor="middle" x="459.9294" y="-166.9343" font-family="Helvetica,sans-Serif" font-size="10.00" fill="#000000">1</text>
</g>
<!-- A2&#45;&gt;A16 -->
<g id="edge17" class="edge">
<title>A2&#45;&gt;A16</title>
<path fill="none" stroke="#000000" d="M550.5585,-172.3891C581.7303,-158.8498 624.9478,-140.0786 658.2207,-125.6268"/>
<polygon fill="#000000" stroke="#000000" points="658.5323,-125.4915 662.442,-119.4322 669.5389,-120.7108 665.6292,-126.77 658.5323,-125.4915"/>
<text text-anchor="middle" x="563.8169" y="-154.4152" font-family="Helvetica,sans-Serif" font-size="10.00" fill="#000000">1</text>
</g>
<!-- A5 -->
<g id="node6" class="node">
<title>A5</title>
<polygon fill="none" stroke="#000000" points="338.3754,-208 261.6496,-208 261.6496,-172 338.3754,-172 338.3754,-208"/>
<text text-anchor="middle" x="300.0125" y="-193" font-family="Helvetica,sans-Serif" font-size="10.00" fill="#000000">&lt;&lt;enum&gt;&gt;</text>
<text text-anchor="middle" x="300.0125" y="-181" font-family="Helvetica,sans-Serif" font-size="10.00" fill="#000000">Card</text>
</g>
<!-- A3&#45;&gt;A5 -->
<g id="edge4" class="edge">
<title>A3&#45;&gt;A5</title>
<path fill="none" stroke="#000000" d="M368.8329,-249.7834C353.3534,-236.3365 334.884,-220.2924 320.9776,-208.2121"/>
<polygon fill="#000000" stroke="#000000" points="368.9579,-249.892 376.1107,-250.807 378.0171,-257.7616 370.8643,-256.8465 368.9579,-249.892"/>
<text text-anchor="middle" x="340.2047" y="-210.7183" font-family="Helvetica,sans-Serif" font-size="10.00" fill="#000000">37</text>
</g>
<!-- A3&#45;&gt;A7 -->
<g id="edge8" class="edge">
<title>A3&#45;&gt;A7</title>
<path fill="none" stroke="#000000" d="M410.5226,-246.7961C420.8122,-223.8914 437.848,-192.5523 461.0125,-172 470.1719,-163.8735 533.5582,-136.985 575.8186,-119.5536"/>
<polygon fill="none" stroke="#000000" points="410.4891,-246.8742 411.8009,-253.9651 405.76,-257.9031 404.4483,-250.8123 410.4891,-246.8742"/>
</g>
<!-- A3&#45;&gt;A14 -->
<g id="edge15" class="edge">
<title>A3&#45;&gt;A14</title>
<path fill="none" stroke="#000000" d="M393.5867,-247.7199C387.4519,-215.7448 377.5236,-163.9975 371.4034,-132.0978"/>
<polygon fill="#000000" stroke="#000000" points="395.5433,-257.9181 389.2396,-248.9451 394.6011,-253.0076 393.659,-248.0972 393.659,-248.0972 393.659,-248.0972 394.6011,-253.0076 398.0784,-247.2493 395.5433,-257.9181 395.5433,-257.9181"/>
<polygon fill="#000000" stroke="#000000" points="369.4847,-122.0977 375.7885,-131.0707 370.4269,-127.0082 371.3691,-131.9186 371.3691,-131.9186 371.3691,-131.9186 370.4269,-127.0082 366.9497,-132.7666 369.4847,-122.0977 369.4847,-122.0977"/>
</g>
<!-- A4 -->
<g id="node5" class="node">
<title>A4</title>
<polygon fill="none" stroke="#000000" points="348.4627,-294 265.5623,-294 265.5623,-258 348.4627,-258 348.4627,-294"/>
<text text-anchor="middle" x="307.0125" y="-273" font-family="Helvetica,sans-Serif" font-size="10.00" fill="#000000">PlayerSprite</text>
</g>
<!-- A4&#45;&gt;A5 -->
<g id="edge5" class="edge">
<title>A4&#45;&gt;A5</title>
<path fill="none" stroke="#000000" d="M305.528,-257.7616C304.6463,-246.9298 303.5058,-232.9179 302.4909,-220.4492"/>
<polygon fill="#000000" stroke="#000000" points="302.4685,-220.1725 297.9949,-214.5169 301.4949,-208.2121 305.9685,-213.8678 302.4685,-220.1725"/>
<text text-anchor="middle" x="295.633" y="-237.3809" font-family="Helvetica,sans-Serif" font-size="10.00" fill="#000000">1</text>
</g>
<!-- A17 -->
<g id="node18" class="node">
<title>A17</title>
<polygon fill="none" stroke="#000000" points="244.3754,-208 167.6496,-208 167.6496,-172 244.3754,-172 244.3754,-208"/>
<text text-anchor="middle" x="206.0125" y="-193" font-family="Helvetica,sans-Serif" font-size="10.00" fill="#000000">&lt;&lt;enum&gt;&gt;</text>
<text text-anchor="middle" x="206.0125" y="-181" font-family="Helvetica,sans-Serif" font-size="10.00" fill="#000000">PlayerWall</text>
</g>
<!-- A4&#45;&gt;A17 -->
<g id="edge19" class="edge">
<title>A4&#45;&gt;A17</title>
<path fill="none" stroke="#000000" d="M285.593,-257.7616C271.3989,-245.6756 252.5552,-229.6304 236.7674,-216.1874"/>
<polygon fill="#000000" stroke="#000000" points="236.5377,-215.9918 229.3762,-215.1475 227.4011,-208.2121 234.5627,-209.0564 236.5377,-215.9918"/>
<text text-anchor="middle" x="266.3124" y="-249.4458" font-family="Helvetica,sans-Serif" font-size="10.00" fill="#000000">1</text>
</g>
<!-- A6&#45;&gt;A5 -->
<g id="edge6" class="edge">
<title>A6&#45;&gt;A5</title>
<path fill="none" stroke="#000000" d="M233.427,-250.9187C245.6845,-239.7044 260.1064,-226.5098 272.3885,-215.273"/>
<polygon fill="#000000" stroke="#000000" points="225.9475,-257.7616 230.288,-247.6913 229.6365,-254.3865 233.3256,-251.0114 233.3256,-251.0114 233.3256,-251.0114 229.6365,-254.3865 236.3631,-254.3316 225.9475,-257.7616 225.9475,-257.7616"/>
<polygon fill="#000000" stroke="#000000" points="280.1063,-208.2121 275.7657,-218.2824 276.4172,-211.5872 272.7282,-214.9623 272.7282,-214.9623 272.7282,-214.9623 276.4172,-211.5872 269.6906,-211.6421 280.1063,-208.2121 280.1063,-208.2121"/>
</g>
<!-- A6&#45;&gt;A15 -->
<g id="edge21" class="edge">
<title>A6&#45;&gt;A15</title>
<path fill="none" stroke="#000000" d="M185.8654,-257.7616C172.6405,-245.7896 155.1243,-229.9328 140.3615,-216.5685"/>
<polygon fill="#000000" stroke="#000000" points="140.0268,-216.2655 132.8942,-215.2042 131.1305,-208.2121 138.2631,-209.2734 140.0268,-216.2655"/>
<text text-anchor="middle" x="166.7551" y="-248.863" font-family="Helvetica,sans-Serif" font-size="10.00" fill="#000000">2..4</text>
</g>
<!-- A6&#45;&gt;A17 -->
<g id="edge20" class="edge">
<title>A6&#45;&gt;A17</title>
<path fill="none" stroke="#000000" d="M206.0125,-247.4762C206.0125,-238.0721 206.0125,-227.6222 206.0125,-218.2395"/>
<polygon fill="#000000" stroke="#000000" points="206.0125,-257.7616 201.5126,-247.7616 206.0125,-252.7616 206.0126,-247.7616 206.0126,-247.7616 206.0126,-247.7616 206.0125,-252.7616 210.5126,-247.7617 206.0125,-257.7616 206.0125,-257.7616"/>
<polygon fill="#000000" stroke="#000000" points="206.0125,-208.2121 210.5126,-218.2121 206.0125,-213.2121 206.0126,-218.2121 206.0126,-218.2121 206.0126,-218.2121 206.0125,-213.2121 201.5126,-218.2121 206.0125,-208.2121 206.0125,-208.2121"/>
</g>
<!-- A7&#45;&gt;A9 -->
<g id="edge26" class="edge">
<title>A7&#45;&gt;A9</title>
<path fill="none" stroke="#000000" d="M608.3765,-85.7616C607.2734,-74.9298 606.9895,-60.9179 607.5248,-48.4492"/>
<polygon fill="none" stroke="#000000" points="607.5433,-48.183 603.971,-41.9189 608.3792,-36.2121 611.9515,-42.4761 607.5433,-48.183"/>
<text text-anchor="middle" x="598.304" y="-65.4832" font-family="Helvetica,sans-Serif" font-size="10.00" fill="#000000">4</text>
</g>
<!-- A8 -->
<g id="node9" class="node">
<title>A8</title>
<polygon fill="none" stroke="#000000" points="699.3146,-208 568.7104,-208 568.7104,-172 699.3146,-172 699.3146,-208"/>
<text text-anchor="middle" x="634.0125" y="-193" font-family="Helvetica,sans-Serif" font-size="10.00" fill="#000000">&lt;&lt;interface&gt;&gt;</text>
<text text-anchor="middle" x="634.0125" y="-181" font-family="Helvetica,sans-Serif" font-size="10.00" fill="#000000">ChoosePlayerDelegate</text>
</g>
<!-- A8&#45;&gt;A7 -->
<g id="edge9" class="edge">
<title>A8&#45;&gt;A7</title>
<path fill="none" stroke="#000000" d="M627.4692,-161.8639C625.2435,-152.2934 622.7573,-141.6028 620.5334,-132.0399"/>
<polygon fill="#000000" stroke="#000000" points="629.771,-171.7616 623.1228,-163.0409 628.6384,-166.8916 627.5058,-162.0215 627.5058,-162.0215 627.5058,-162.0215 628.6384,-166.8916 631.8888,-161.0022 629.771,-171.7616 629.771,-171.7616"/>
<polygon fill="#000000" stroke="#000000" points="618.2479,-122.2121 624.8961,-130.9328 619.3805,-127.0821 620.5131,-131.9522 620.5131,-131.9522 620.5131,-131.9522 619.3805,-127.0821 616.13,-132.9715 618.2479,-122.2121 618.2479,-122.2121"/>
</g>
<!-- A8&#45;&gt;A9 -->
<g id="edge25" class="edge">
<title>A8&#45;&gt;A9</title>
<path fill="none" stroke="#000000" d="M684.6799,-171.8934C727.3902,-153.6014 778.1397,-122.8298 755.0125,-86 738.7623,-60.1217 709.587,-43.8579 681.975,-33.755"/>
<polygon fill="#000000" stroke="#000000" points="681.6447,-33.6432 674.6784,-35.5062 670.2793,-29.7924 677.2456,-27.9293 681.6447,-33.6432"/>
<text text-anchor="middle" x="697.7235" y="-153.7321" font-family="Helvetica,sans-Serif" font-size="10.00" fill="#000000">1</text>
</g>
<!-- A9&#45;&gt;A7 -->
<g id="edge10" class="edge">
<title>A9&#45;&gt;A7</title>
<path fill="none" stroke="#000000" d="M620.3958,-46.2395C620.8798,-55.6222 620.8847,-66.0721 620.4103,-75.4762"/>
<polygon fill="#000000" stroke="#000000" points="619.6458,-36.2121 624.8793,-45.8485 620.0188,-41.1982 620.3918,-46.1842 620.3918,-46.1842 620.3918,-46.1842 620.0188,-41.1982 615.9043,-46.5199 619.6458,-36.2121 619.6458,-36.2121"/>
<polygon fill="#000000" stroke="#000000" points="619.6485,-85.7616 615.8996,-75.4565 620.0179,-80.7753 620.3873,-75.7889 620.3873,-75.7889 620.3873,-75.7889 620.0179,-80.7753 624.875,-76.1214 619.6485,-85.7616 619.6485,-85.7616"/>
</g>
<!-- A10 -->
<g id="node11" class="node">
<title>A10</title>
<polygon fill="none" stroke="#000000" points="253.7508,-380 158.2742,-380 158.2742,-344 253.7508,-344 253.7508,-380"/>
<text text-anchor="middle" x="206.0125" y="-365" font-family="Helvetica,sans-Serif" font-size="10.00" fill="#000000">&lt;&lt;interface&gt;&gt;</text>
<text text-anchor="middle" x="206.0125" y="-353" font-family="Helvetica,sans-Serif" font-size="10.00" fill="#000000">GameDelegate</text>
</g>
<!-- A10&#45;&gt;A6 -->
<g id="edge12" class="edge">
<title>A10&#45;&gt;A6</title>
<path fill="none" stroke="#000000" d="M206.0125,-343.7616C206.0125,-332.9298 206.0125,-318.9179 206.0125,-306.4492"/>
<polygon fill="#000000" stroke="#000000" points="206.0126,-306.2121 202.0125,-300.2121 206.0125,-294.2121 210.0125,-300.2121 206.0126,-306.2121"/>
<text text-anchor="middle" x="197.5601" y="-322.6355" font-family="Helvetica,sans-Serif" font-size="10.00" fill="#000000">1</text>
</g>
<!-- A11 -->
<g id="node12" class="node">
<title>A11</title>
<polygon fill="none" stroke="#000000" points="557.2148,-122 422.8102,-122 422.8102,-86 557.2148,-86 557.2148,-122"/>
<text text-anchor="middle" x="490.0125" y="-101" font-family="Helvetica,sans-Serif" font-size="10.00" fill="#000000">BackgroundImagePanel</text>
</g>
<!-- A11&#45;&gt;A9 -->
<g id="edge24" class="edge">
<title>A11&#45;&gt;A9</title>
<path fill="none" stroke="#000000" d="M516.007,-85.9716C534.0287,-73.4727 558.2615,-56.666 578.1215,-42.8922"/>
<polygon fill="#000000" stroke="#000000" points="578.1917,-42.8435 580.8424,-36.1372 588.0523,-36.0047 585.4016,-42.711 578.1917,-42.8435"/>
<text text-anchor="middle" x="526.0845" y="-65.6961" font-family="Helvetica,sans-Serif" font-size="10.00" fill="#000000">1</text>
</g>
<!-- A12 -->
<g id="node13" class="node">
<title>A12</title>
<polygon fill="none" stroke="#000000" points="108.0375,-294 -.0125,-294 -.0125,-258 108.0375,-258 108.0375,-294"/>
<text text-anchor="middle" x="54.0125" y="-273" font-family="Helvetica,sans-Serif" font-size="10.00" fill="#000000">BoardImagePanel</text>
</g>
<!-- A12&#45;&gt;A15 -->
<g id="edge22" class="edge">
<title>A12&#45;&gt;A15</title>
<path fill="none" stroke="#000000" d="M71.6413,-249.4021C78.5633,-238.9584 86.4917,-226.9963 93.411,-216.5566"/>
<polygon fill="#000000" stroke="#000000" points="66.1007,-257.7616 67.8745,-246.9401 68.8631,-253.5939 71.6254,-249.4262 71.6254,-249.4262 71.6254,-249.4262 68.8631,-253.5939 75.3763,-251.9123 66.1007,-257.7616 66.1007,-257.7616"/>
<polygon fill="#000000" stroke="#000000" points="98.9417,-208.2121 97.168,-219.0336 96.1794,-212.3798 93.417,-216.5475 93.417,-216.5475 93.417,-216.5475 96.1794,-212.3798 89.6661,-214.0614 98.9417,-208.2121 98.9417,-208.2121"/>
</g>
<!-- A13 -->
<g id="node14" class="node">
<title>A13</title>
<polygon fill="none" stroke="#000000" points="1103.711,-380 1014.314,-380 1014.314,-344 1103.711,-344 1103.711,-380"/>
<text text-anchor="middle" x="1059.0125" y="-365" font-family="Helvetica,sans-Serif" font-size="10.00" fill="#000000">&lt;&lt;interface&gt;&gt;</text>
<text text-anchor="middle" x="1059.0125" y="-353" font-family="Helvetica,sans-Serif" font-size="10.00" fill="#000000">Sprite</text>
</g>
<!-- A15&#45;&gt;A14 -->
<g id="edge16" class="edge">
<title>A15&#45;&gt;A14</title>
<path fill="none" stroke="#000000" d="M158.721,-172.1026C158.8182,-172.0683 158.9154,-172.0341 159.0125,-172 213.1933,-152.951 275.9178,-132.5786 317.9941,-119.153"/>
<polygon fill="#000000" stroke="#000000" points="149.4738,-175.4173 157.3688,-167.8068 154.1806,-173.7301 158.8873,-172.0429 158.8873,-172.0429 158.8873,-172.0429 154.1806,-173.7301 160.4058,-176.2789 149.4738,-175.4173 149.4738,-175.4173"/>
<polygon fill="#000000" stroke="#000000" points="327.7006,-116.0622 319.5374,-123.3843 322.9363,-117.5793 318.172,-119.0964 318.172,-119.0964 318.172,-119.0964 322.9363,-117.5793 316.8066,-114.8085 327.7006,-116.0622 327.7006,-116.0622"/>
</g>
<!-- A18 -->
<g id="node19" class="node">
<title>A18</title>
<polygon fill="none" stroke="#000000" points="1129.7557,-294 1004.2693,-294 1004.2693,-258 1129.7557,-258 1129.7557,-294"/>
<text text-anchor="middle" x="1067.0125" y="-273" font-family="Helvetica,sans-Serif" font-size="10.00" fill="#000000">TraversableBoard&lt;T&gt;</text>
</g>
<!-- A18&#45;&gt;A19 -->
<g id="edge28" class="edge">
<title>A18&#45;&gt;A19</title>
<path fill="none" stroke="#000000" d="M1011.4598,-257.9716C967.4345,-243.6841 906.0648,-223.7679 861.1356,-209.1871"/>
<polygon fill="#000000" stroke="#000000" points="860.9227,-209.1181 853.9809,-211.0706 849.5087,-205.4138 856.4504,-203.4613 860.9227,-209.1181"/>
<text text-anchor="middle" x="991.6098" y="-257.416" font-family="Helvetica,sans-Serif" font-size="10.00" fill="#000000">1</text>
</g>
<!-- A20 -->
<g id="node21" class="node">
<title>A20</title>
<polygon fill="none" stroke="#000000" points="995.689,-380 896.336,-380 896.336,-344 995.689,-344 995.689,-380"/>
<text text-anchor="middle" x="946.0125" y="-365" font-family="Helvetica,sans-Serif" font-size="10.00" fill="#000000">&lt;&lt;interface&gt;&gt;</text>
<text text-anchor="middle" x="946.0125" y="-353" font-family="Helvetica,sans-Serif" font-size="10.00" fill="#000000">WinnerDelegate</text>
</g>
<!-- A20&#45;&gt;A21 -->
<g id="edge30" class="edge">
<title>A20&#45;&gt;A21</title>
<path fill="none" stroke="#000000" d="M946.0125,-343.7616C946.0125,-332.9298 946.0125,-318.9179 946.0125,-306.4492"/>
<polygon fill="#000000" stroke="#000000" points="946.0126,-306.2121 942.0125,-300.2121 946.0125,-294.2121 950.0125,-300.2121 946.0126,-306.2121"/>
<text text-anchor="middle" x="937.5601" y="-322.6355" font-family="Helvetica,sans-Serif" font-size="10.00" fill="#000000">1</text>
</g>
</g>
</svg>
