<?xml version="1.0" encoding="UTF-8" standalone="no"?>
<!DOCTYPE svg PUBLIC "-//W3C//DTD SVG 1.1//EN"
 "http://www.w3.org/Graphics/SVG/1.1/DTD/svg11.dtd">
<!-- Generated by graphviz version 2.40.1 (20161225.0304)
 -->
<!-- Title: G Pages: 1 -->
<svg width="884pt" height="388pt"
 viewBox="0.00 0.00 884.23 388.00" xmlns="http://www.w3.org/2000/svg" xmlns:xlink="http://www.w3.org/1999/xlink">
<g id="graph0" class="graph" transform="scale(1 1) rotate(0) translate(4 384)">
<title>G</title>
<polygon fill="#ffffff" stroke="transparent" points="-4,4 -4,-384 880.2267,-384 880.2267,4 -4,4"/>
<!-- A0 -->
<g id="node1" class="node">
<title>A0</title>
<polygon fill="#a020f0" stroke="#000000" points="429.3317,-380 373.8787,-380 373.8787,-344 429.3317,-344 429.3317,-380"/>
<text text-anchor="middle" x="401.6052" y="-359" font-family="Helvetica,sans-Serif" font-size="10.00" fill="#000000">Game</text>
</g>
<!-- A1 -->
<g id="node2" class="node">
<title>A1</title>
<polygon fill="none" stroke="#000000" points="727.7812,-294 673.4292,-294 673.4292,-258 727.7812,-258 727.7812,-294"/>
<text text-anchor="middle" x="700.6052" y="-273" font-family="Helvetica,sans-Serif" font-size="10.00" fill="#000000">Board</text>
</g>
<!-- A0&#45;&gt;A1 -->
<g id="edge1" class="edge">
<title>A0&#45;&gt;A1</title>
<path fill="none" stroke="#000000" d="M441.0057,-343.2203C537.0227,-310.9068 570.0643,-326.5903 663.6052,-294 666.7082,-292.9189 669.8908,-291.6451 673.024,-290.2828"/>
<polygon fill="#000000" stroke="#000000" points="440.9525,-343.2387 436.5969,-348.9858 429.6167,-347.1757 433.9722,-341.4286 440.9525,-343.2387"/>
<text text-anchor="middle" x="659.7264" y="-302.2219" font-family="Helvetica,sans-Serif" font-size="10.00" fill="#000000">1</text>
</g>
<!-- A3 -->
<g id="node4" class="node">
<title>A3</title>
<polygon fill="none" stroke="#000000" points="288.9412,-294 232.2692,-294 232.2692,-258 288.9412,-258 288.9412,-294"/>
<text text-anchor="middle" x="260.6052" y="-273" font-family="Helvetica,sans-Serif" font-size="10.00" fill="#000000">Player</text>
</g>
<!-- A0&#45;&gt;A3 -->
<g id="edge3" class="edge">
<title>A0&#45;&gt;A3</title>
<path fill="none" stroke="#000000" d="M363.4294,-338.7154C339.9214,-324.3773 310.2937,-306.3064 288.887,-293.2499"/>
<polygon fill="#000000" stroke="#000000" points="363.5034,-338.7605 370.7086,-338.4699 373.7481,-345.0092 366.5429,-345.2998 363.5034,-338.7605"/>
<text text-anchor="middle" x="308.7631" y="-292.4724" font-family="Helvetica,sans-Serif" font-size="10.00" fill="#000000">2..4</text>
</g>
<!-- A6 -->
<g id="node7" class="node">
<title>A6</title>
<polygon fill="none" stroke="#000000" points="490.1152,-294 407.0952,-294 407.0952,-258 490.1152,-258 490.1152,-294"/>
<text text-anchor="middle" x="448.6052" y="-273" font-family="Helvetica,sans-Serif" font-size="10.00" fill="#000000">PlayerBoard</text>
</g>
<!-- A0&#45;&gt;A6 -->
<g id="edge11" class="edge">
<title>A0&#45;&gt;A6</title>
<path fill="none" stroke="#000000" d="M417.4063,-333.0873C424.4304,-320.2348 432.486,-305.4947 438.6521,-294.2121"/>
<polygon fill="#000000" stroke="#000000" points="417.3275,-333.2315 417.9601,-340.4149 411.5727,-343.7616 410.9401,-336.5783 417.3275,-333.2315"/>
<text text-anchor="middle" x="437.3764" y="-311.1714" font-family="Helvetica,sans-Serif" font-size="10.00" fill="#000000">1</text>
</g>
<!-- A9 -->
<g id="node10" class="node">
<title>A9</title>
<polygon fill="none" stroke="#000000" points="233.0621,-36 120.1483,-36 120.1483,0 233.0621,0 233.0621,-36"/>
<text text-anchor="middle" x="176.6052" y="-15" font-family="Helvetica,sans-Serif" font-size="10.00" fill="#000000">ChoosePlayerView</text>
</g>
<!-- A0&#45;&gt;A9 -->
<g id="edge27" class="edge">
<title>A0&#45;&gt;A9</title>
<path fill="none" stroke="#000000" d="M364.0717,-355.0278C276.1416,-336.2694 60.1342,-275.3725 5.6052,-122 .2453,-106.9245 -3.3782,-99.24 5.6052,-86 28.9877,-51.5382 72.8933,-34.541 110.3595,-26.1578"/>
<polygon fill="#000000" stroke="#000000" points="373.8958,-357.0609 363.1913,-359.4409 368.9996,-356.0476 364.1033,-355.0343 364.1033,-355.0343 364.1033,-355.0343 368.9996,-356.0476 365.0153,-350.6277 373.8958,-357.0609 373.8958,-357.0609"/>
<polygon fill="#000000" stroke="#000000" points="120.2302,-24.1104 111.3525,-30.5477 115.3344,-25.1259 110.4386,-26.1414 110.4386,-26.1414 110.4386,-26.1414 115.3344,-25.1259 109.5246,-21.7352 120.2302,-24.1104 120.2302,-24.1104"/>
</g>
<!-- A15 -->
<g id="node16" class="node">
<title>A15</title>
<polygon fill="none" stroke="#000000" points="573.9973,-208 497.2131,-208 497.2131,-172 573.9973,-172 573.9973,-208"/>
<text text-anchor="middle" x="535.6052" y="-187" font-family="Helvetica,sans-Serif" font-size="10.00" fill="#000000">GameView</text>
</g>
<!-- A0&#45;&gt;A15 -->
<g id="edge23" class="edge">
<title>A0&#45;&gt;A15</title>
<path fill="none" stroke="#000000" d="M437.9706,-340.1143C462.0662,-325.0031 490.8023,-305.6106 499.6052,-294 516.646,-271.5242 526.0045,-240.3875 530.8742,-218.0521"/>
<polygon fill="#000000" stroke="#000000" points="429.3487,-345.4655 435.4722,-336.3686 433.597,-342.8288 437.8452,-340.1921 437.8452,-340.1921 437.8452,-340.1921 433.597,-342.8288 440.2183,-344.0155 429.3487,-345.4655 429.3487,-345.4655"/>
<polygon fill="#000000" stroke="#000000" points="532.8629,-208.1718 535.3012,-218.8632 531.8762,-213.0735 530.8896,-217.9752 530.8896,-217.9752 530.8896,-217.9752 531.8762,-213.0735 526.4781,-217.0873 532.8629,-208.1718 532.8629,-208.1718"/>
</g>
<!-- A2 -->
<g id="node3" class="node">
<title>A2</title>
<polygon fill="none" stroke="#000000" points="672.8945,-208 592.3159,-208 592.3159,-172 672.8945,-172 672.8945,-208"/>
<text text-anchor="middle" x="632.6052" y="-187" font-family="Helvetica,sans-Serif" font-size="10.00" fill="#000000">BoardSprite</text>
</g>
<!-- A1&#45;&gt;A2 -->
<g id="edge2" class="edge">
<title>A1&#45;&gt;A2</title>
<path fill="none" stroke="#000000" d="M678.6636,-248.2503C668.2904,-235.1313 656.1969,-219.8366 647.0055,-208.2121"/>
<polygon fill="#000000" stroke="#000000" points="678.7413,-248.3486 685.6004,-250.5742 686.1842,-257.7616 679.3251,-255.5361 678.7413,-248.3486"/>
</g>
<!-- A14 -->
<g id="node15" class="node">
<title>A14</title>
<polygon fill="none" stroke="#000000" points="601.9681,-122 525.2423,-122 525.2423,-86 601.9681,-86 601.9681,-122"/>
<text text-anchor="middle" x="563.6052" y="-107" font-family="Helvetica,sans-Serif" font-size="10.00" fill="#000000">&lt;&lt;enum&gt;&gt;</text>
<text text-anchor="middle" x="563.6052" y="-95" font-family="Helvetica,sans-Serif" font-size="10.00" fill="#000000">BoardWall</text>
</g>
<!-- A1&#45;&gt;A14 -->
<g id="edge14" class="edge">
<title>A1&#45;&gt;A14</title>
<path fill="none" stroke="#000000" d="M701.663,-247.4625C701.1115,-225.0466 697.1529,-194.0404 681.6052,-172 664.5649,-147.8437 636.0234,-131.0631 611.2794,-120.2157"/>
<polygon fill="#000000" stroke="#000000" points="701.6958,-257.6997 697.1637,-247.7143 701.6797,-252.6998 701.6636,-247.6998 701.6636,-247.6998 701.6636,-247.6998 701.6797,-252.6998 706.1636,-247.6853 701.6958,-257.6997 701.6958,-257.6997"/>
<polygon fill="#000000" stroke="#000000" points="602.0138,-116.3458 612.9757,-116.0475 606.6276,-118.2728 611.2413,-120.1998 611.2413,-120.1998 611.2413,-120.1998 606.6276,-118.2728 609.507,-124.3522 602.0138,-116.3458 602.0138,-116.3458"/>
</g>
<!-- A16 -->
<g id="node17" class="node">
<title>A16</title>
<polygon fill="none" stroke="#000000" points="723.9681,-122 647.2423,-122 647.2423,-86 723.9681,-86 723.9681,-122"/>
<text text-anchor="middle" x="685.6052" y="-107" font-family="Helvetica,sans-Serif" font-size="10.00" fill="#000000">&lt;&lt;enum&gt;&gt;</text>
<text text-anchor="middle" x="685.6052" y="-95" font-family="Helvetica,sans-Serif" font-size="10.00" fill="#000000">Jewel</text>
</g>
<!-- A1&#45;&gt;A16 -->
<g id="edge18" class="edge">
<title>A1&#45;&gt;A16</title>
<path fill="none" stroke="#000000" d="M709.4445,-247.9582C714.8507,-226.9282 719.8158,-197.5005 714.6052,-172 711.7466,-158.0099 705.8952,-143.3363 700.1923,-131.2158"/>
<polygon fill="#000000" stroke="#000000" points="706.7135,-257.8387 705.0403,-247.0012 708.0456,-253.0194 709.3777,-248.2001 709.3777,-248.2001 709.3777,-248.2001 708.0456,-253.0194 713.7151,-249.399 706.7135,-257.8387 706.7135,-257.8387"/>
<polygon fill="#000000" stroke="#000000" points="695.7106,-122.1045 704.1624,-129.0914 697.9175,-126.5911 700.1245,-131.0777 700.1245,-131.0777 700.1245,-131.0777 697.9175,-126.5911 696.0865,-133.0639 695.7106,-122.1045 695.7106,-122.1045"/>
</g>
<!-- A19 -->
<g id="node20" class="node">
<title>A19</title>
<polygon fill="none" stroke="#000000" points="860.7927,-208 766.4177,-208 766.4177,-172 860.7927,-172 860.7927,-208"/>
<text text-anchor="middle" x="813.6052" y="-187" font-family="Helvetica,sans-Serif" font-size="10.00" fill="#000000">PathFinder&lt;T&gt;</text>
</g>
<!-- A1&#45;&gt;A19 -->
<g id="edge29" class="edge">
<title>A1&#45;&gt;A19</title>
<path fill="none" stroke="#000000" d="M732.3543,-251.837C747.7809,-240.0964 766.2757,-226.0207 781.7202,-214.2664"/>
<polygon fill="#000000" stroke="#000000" points="724.2937,-257.9716 729.526,-248.3344 728.2725,-254.9435 732.2513,-251.9154 732.2513,-251.9154 732.2513,-251.9154 728.2725,-254.9435 734.9766,-255.4963 724.2937,-257.9716 724.2937,-257.9716"/>
<polygon fill="#000000" stroke="#000000" points="789.9479,-208.0047 784.7156,-217.6418 785.9691,-211.0328 781.9903,-214.0609 781.9903,-214.0609 781.9903,-214.0609 785.9691,-211.0328 779.265,-210.48 789.9479,-208.0047 789.9479,-208.0047"/>
</g>
<!-- A7 -->
<g id="node8" class="node">
<title>A7</title>
<polygon fill="none" stroke="#000000" points="280.9681,-122 204.2423,-122 204.2423,-86 280.9681,-86 280.9681,-122"/>
<text text-anchor="middle" x="242.6052" y="-107" font-family="Helvetica,sans-Serif" font-size="10.00" fill="#000000">&lt;&lt;enum&gt;&gt;</text>
<text text-anchor="middle" x="242.6052" y="-95" font-family="Helvetica,sans-Serif" font-size="10.00" fill="#000000">Turtle</text>
</g>
<!-- A2&#45;&gt;A7 -->
<g id="edge7" class="edge">
<title>A2&#45;&gt;A7</title>
<path fill="none" stroke="#000000" d="M592.1085,-174.8533C588.9108,-173.8315 585.716,-172.8659 582.6052,-172 481.407,-143.8317 360.1914,-122.4691 293.2702,-111.7224"/>
<polygon fill="#000000" stroke="#000000" points="292.8791,-111.6604 286.3259,-114.6696 281.0276,-109.7779 287.5809,-106.7687 292.8791,-111.6604"/>
<text text-anchor="middle" x="572.2737" y="-174.4187" font-family="Helvetica,sans-Serif" font-size="10.00" fill="#000000">4</text>
</g>
<!-- A2&#45;&gt;A14 -->
<g id="edge13" class="edge">
<title>A2&#45;&gt;A14</title>
<path fill="none" stroke="#000000" d="M617.9721,-171.7616C608.641,-160.1316 596.3688,-144.8357 585.8457,-131.72"/>
<polygon fill="#000000" stroke="#000000" points="585.7269,-131.5719 578.8521,-129.3952 578.2172,-122.2121 585.092,-124.3888 585.7269,-131.5719"/>
<text text-anchor="middle" x="600.036" y="-159.913" font-family="Helvetica,sans-Serif" font-size="10.00" fill="#000000">1</text>
</g>
<!-- A2&#45;&gt;A16 -->
<g id="edge17" class="edge">
<title>A2&#45;&gt;A16</title>
<path fill="none" stroke="#000000" d="M643.8451,-171.7616C650.8719,-160.3597 660.0702,-145.4342 668.045,-132.494"/>
<polygon fill="#000000" stroke="#000000" points="668.0856,-132.4279 667.8283,-125.2214 674.3815,-122.2121 674.6388,-129.4186 668.0856,-132.4279"/>
<text text-anchor="middle" x="646.1594" y="-148.896" font-family="Helvetica,sans-Serif" font-size="10.00" fill="#000000">1</text>
</g>
<!-- A5 -->
<g id="node6" class="node">
<title>A5</title>
<polygon fill="none" stroke="#000000" points="384.9681,-208 308.2423,-208 308.2423,-172 384.9681,-172 384.9681,-208"/>
<text text-anchor="middle" x="346.6052" y="-193" font-family="Helvetica,sans-Serif" font-size="10.00" fill="#000000">&lt;&lt;enum&gt;&gt;</text>
<text text-anchor="middle" x="346.6052" y="-181" font-family="Helvetica,sans-Serif" font-size="10.00" fill="#000000">Card</text>
</g>
<!-- A3&#45;&gt;A5 -->
<g id="edge4" class="edge">
<title>A3&#45;&gt;A5</title>
<path fill="none" stroke="#000000" d="M287.5857,-249.0195C300.8727,-235.7325 316.5407,-220.0645 328.3931,-208.2121"/>
<polygon fill="#000000" stroke="#000000" points="287.3289,-249.2763 285.9147,-256.3474 278.8436,-257.7616 280.2578,-250.6905 287.3289,-249.2763"/>
<text text-anchor="middle" x="321.5527" y="-224.006" font-family="Helvetica,sans-Serif" font-size="10.00" fill="#000000">37</text>
</g>
<!-- A3&#45;&gt;A7 -->
<g id="edge8" class="edge">
<title>A3&#45;&gt;A7</title>
<path fill="none" stroke="#000000" d="M257.4508,-245.8575C253.7053,-210.0673 247.5792,-151.5291 244.4992,-122.0977"/>
<polygon fill="none" stroke="#000000" points="257.4638,-245.9833 262.0666,-251.5343 258.7129,-257.9181 254.1101,-252.367 257.4638,-245.9833"/>
</g>
<!-- A3&#45;&gt;A14 -->
<g id="edge15" class="edge">
<title>A3&#45;&gt;A14</title>
<path fill="none" stroke="#000000" d="M263.9849,-247.636C268.2843,-224.1012 277.9631,-191.4484 299.6052,-172 331.2063,-143.6022 448.3257,-121.5911 515.4726,-110.9755"/>
<polygon fill="#000000" stroke="#000000" points="262.3643,-257.7275 259.5069,-247.1405 263.1572,-252.7908 263.95,-247.854 263.95,-247.854 263.95,-247.854 263.1572,-252.7908 268.393,-248.5676 262.3643,-257.7275 262.3643,-257.7275"/>
<polygon fill="#000000" stroke="#000000" points="525.4001,-109.4314 516.2105,-115.4149 520.4595,-110.1999 515.5189,-110.9684 515.5189,-110.9684 515.5189,-110.9684 520.4595,-110.1999 514.8272,-106.5219 525.4001,-109.4314 525.4001,-109.4314"/>
</g>
<!-- A4 -->
<g id="node5" class="node">
<title>A4</title>
<polygon fill="none" stroke="#000000" points="389.0554,-294 306.155,-294 306.155,-258 389.0554,-258 389.0554,-294"/>
<text text-anchor="middle" x="347.6052" y="-273" font-family="Helvetica,sans-Serif" font-size="10.00" fill="#000000">PlayerSprite</text>
</g>
<!-- A4&#45;&gt;A5 -->
<g id="edge5" class="edge">
<title>A4&#45;&gt;A5</title>
<path fill="none" stroke="#000000" d="M347.3931,-257.7616C347.2672,-246.9298 347.1042,-232.9179 346.9593,-220.4492"/>
<polygon fill="#000000" stroke="#000000" points="346.9566,-220.2113 342.8871,-214.2582 346.817,-208.2121 350.8865,-214.1652 346.9566,-220.2113"/>
<text text-anchor="middle" x="338.7306" y="-236.735" font-family="Helvetica,sans-Serif" font-size="10.00" fill="#000000">1</text>
</g>
<!-- A17 -->
<g id="node18" class="node">
<title>A17</title>
<polygon fill="none" stroke="#000000" points="478.9681,-208 402.2423,-208 402.2423,-172 478.9681,-172 478.9681,-208"/>
<text text-anchor="middle" x="440.6052" y="-193" font-family="Helvetica,sans-Serif" font-size="10.00" fill="#000000">&lt;&lt;enum&gt;&gt;</text>
<text text-anchor="middle" x="440.6052" y="-181" font-family="Helvetica,sans-Serif" font-size="10.00" fill="#000000">PlayerWall</text>
</g>
<!-- A4&#45;&gt;A17 -->
<g id="edge19" class="edge">
<title>A4&#45;&gt;A17</title>
<path fill="none" stroke="#000000" d="M367.3281,-257.7616C380.2746,-245.7896 397.422,-229.9328 411.8741,-216.5685"/>
<polygon fill="#000000" stroke="#000000" points="412.1003,-216.3594 413.7898,-209.3489 420.9107,-208.2121 419.2213,-215.2225 412.1003,-216.3594"/>
<text text-anchor="middle" x="374.8977" y="-236.2494" font-family="Helvetica,sans-Serif" font-size="10.00" fill="#000000">1</text>
</g>
<!-- A6&#45;&gt;A5 -->
<g id="edge6" class="edge">
<title>A6&#45;&gt;A5</title>
<path fill="none" stroke="#000000" d="M419.303,-251.2942C405.6792,-239.8075 389.5162,-226.1799 375.8941,-214.6946"/>
<polygon fill="#000000" stroke="#000000" points="426.9736,-257.7616 416.4277,-254.756 423.151,-254.5386 419.3284,-251.3156 419.3284,-251.3156 419.3284,-251.3156 423.151,-254.5386 422.2291,-247.8752 426.9736,-257.7616 426.9736,-257.7616"/>
<polygon fill="#000000" stroke="#000000" points="368.2056,-208.2121 378.7515,-211.2177 372.0282,-211.4351 375.8508,-214.6581 375.8508,-214.6581 375.8508,-214.6581 372.0282,-211.4351 372.9501,-218.0985 368.2056,-208.2121 368.2056,-208.2121"/>
</g>
<!-- A6&#45;&gt;A15 -->
<g id="edge21" class="edge">
<title>A6&#45;&gt;A15</title>
<path fill="none" stroke="#000000" d="M467.0557,-257.7616C479.0516,-245.9036 494.9029,-230.2345 508.3408,-216.951"/>
<polygon fill="#000000" stroke="#000000" points="508.6471,-216.6482 510.1022,-209.5854 517.1813,-208.2121 515.7263,-215.2749 508.6471,-216.6482"/>
<text text-anchor="middle" x="474.0046" y="-236.0076" font-family="Helvetica,sans-Serif" font-size="10.00" fill="#000000">2..4</text>
</g>
<!-- A6&#45;&gt;A17 -->
<g id="edge20" class="edge">
<title>A6&#45;&gt;A17</title>
<path fill="none" stroke="#000000" d="M445.9518,-247.4762C445.077,-238.0721 444.1049,-227.6222 443.2321,-218.2395"/>
<polygon fill="#000000" stroke="#000000" points="446.9086,-257.7616 441.5016,-248.2214 446.4454,-252.7831 445.9823,-247.8046 445.9823,-247.8046 445.9823,-247.8046 446.4454,-252.7831 450.4629,-247.3878 446.9086,-257.7616 446.9086,-257.7616"/>
<polygon fill="#000000" stroke="#000000" points="442.2994,-208.2121 447.7063,-217.7523 442.7625,-213.1906 443.2257,-218.1691 443.2257,-218.1691 443.2257,-218.1691 442.7625,-213.1906 438.745,-218.586 442.2994,-208.2121 442.2994,-208.2121"/>
</g>
<!-- A7&#45;&gt;A9 -->
<g id="edge26" class="edge">
<title>A7&#45;&gt;A9</title>
<path fill="none" stroke="#000000" d="M222.9723,-85.7616C212.9617,-74.2456 201.1186,-59.1353 191.7988,-46.1064"/>
<polygon fill="none" stroke="#000000" points="191.7794,-46.0783 185.0753,-43.4221 184.9486,-36.2121 191.6527,-38.8683 191.7794,-46.0783"/>
<text text-anchor="middle" x="204.7518" y="-74.5146" font-family="Helvetica,sans-Serif" font-size="10.00" fill="#000000">4</text>
</g>
<!-- A8 -->
<g id="node9" class="node">
<title>A8</title>
<polygon fill="none" stroke="#000000" points="214.9074,-208 84.3031,-208 84.3031,-172 214.9074,-172 214.9074,-208"/>
<text text-anchor="middle" x="149.6052" y="-193" font-family="Helvetica,sans-Serif" font-size="10.00" fill="#000000">&lt;&lt;interface&gt;&gt;</text>
<text text-anchor="middle" x="149.6052" y="-181" font-family="Helvetica,sans-Serif" font-size="10.00" fill="#000000">ChoosePlayerDelegate</text>
</g>
<!-- A8&#45;&gt;A7 -->
<g id="edge9" class="edge">
<title>A8&#45;&gt;A7</title>
<path fill="none" stroke="#000000" d="M176.728,-164.9187C188.8551,-153.7044 203.1237,-140.5098 215.2751,-129.273"/>
<polygon fill="#000000" stroke="#000000" points="169.3281,-171.7616 173.6149,-161.6683 172.9991,-168.3669 176.6701,-164.9722 176.6701,-164.9722 176.6701,-164.9722 172.9991,-168.3669 179.7253,-168.2761 169.3281,-171.7616 169.3281,-171.7616"/>
<polygon fill="#000000" stroke="#000000" points="222.9107,-122.2121 218.6239,-132.3054 219.2397,-125.6068 215.5687,-129.0015 215.5687,-129.0015 215.5687,-129.0015 219.2397,-125.6068 212.5135,-125.6976 222.9107,-122.2121 222.9107,-122.2121"/>
</g>
<!-- A8&#45;&gt;A9 -->
<g id="edge25" class="edge">
<title>A8&#45;&gt;A9</title>
<path fill="none" stroke="#000000" d="M152.4436,-171.9181C157.062,-142.4972 166.251,-83.9601 171.8705,-48.1618"/>
<polygon fill="#000000" stroke="#000000" points="171.9033,-47.9526 168.8822,-41.4048 173.7643,-36.0977 176.7854,-42.6455 171.9033,-47.9526"/>
<text text-anchor="middle" x="146.9045" y="-149.7004" font-family="Helvetica,sans-Serif" font-size="10.00" fill="#000000">1</text>
</g>
<!-- A9&#45;&gt;A7 -->
<g id="edge10" class="edge">
<title>A9&#45;&gt;A7</title>
<path fill="none" stroke="#000000" d="M202.7598,-43.9321C211.532,-54.5172 220.9329,-66.7495 228.486,-77.4021"/>
<polygon fill="#000000" stroke="#000000" points="196.2152,-36.2121 206.1143,-40.93 199.4485,-40.026 202.6818,-43.84 202.6818,-43.84 202.6818,-43.84 199.4485,-40.026 199.2492,-46.7499 196.2152,-36.2121 196.2152,-36.2121"/>
<polygon fill="#000000" stroke="#000000" points="234.2443,-85.7616 224.8656,-80.0791 231.4079,-81.644 228.5715,-77.5263 228.5715,-77.5263 228.5715,-77.5263 231.4079,-81.644 232.2774,-74.9736 234.2443,-85.7616 234.2443,-85.7616"/>
</g>
<!-- A10 -->
<g id="node11" class="node">
<title>A10</title>
<polygon fill="none" stroke="#000000" points="542.3435,-380 446.8669,-380 446.8669,-344 542.3435,-344 542.3435,-380"/>
<text text-anchor="middle" x="494.6052" y="-365" font-family="Helvetica,sans-Serif" font-size="10.00" fill="#000000">&lt;&lt;interface&gt;&gt;</text>
<text text-anchor="middle" x="494.6052" y="-353" font-family="Helvetica,sans-Serif" font-size="10.00" fill="#000000">GameDelegate</text>
</g>
<!-- A10&#45;&gt;A6 -->
<g id="edge12" class="edge">
<title>A10&#45;&gt;A6</title>
<path fill="none" stroke="#000000" d="M484.8498,-343.7616C478.8121,-332.4737 470.9271,-317.7323 464.0541,-304.8828"/>
<polygon fill="#000000" stroke="#000000" points="464.0064,-304.7935 457.6494,-301.3894 458.3466,-294.2121 464.7036,-297.6162 464.0064,-304.7935"/>
<text text-anchor="middle" x="468.8474" y="-328.7648" font-family="Helvetica,sans-Serif" font-size="10.00" fill="#000000">1</text>
</g>
<!-- A11 -->
<g id="node12" class="node">
<title>A11</title>
<polygon fill="none" stroke="#000000" points="148.8075,-122 14.4029,-122 14.4029,-86 148.8075,-86 148.8075,-122"/>
<text text-anchor="middle" x="81.6052" y="-101" font-family="Helvetica,sans-Serif" font-size="10.00" fill="#000000">BackgroundImagePanel</text>
</g>
<!-- A11&#45;&gt;A9 -->
<g id="edge24" class="edge">
<title>A11&#45;&gt;A9</title>
<path fill="none" stroke="#000000" d="M101.7523,-85.7616C114.9772,-73.7896 132.4934,-57.9328 147.2562,-44.5685"/>
<polygon fill="#000000" stroke="#000000" points="147.591,-44.2655 149.3546,-37.2734 156.4872,-36.2121 154.7236,-43.2042 147.591,-44.2655"/>
<text text-anchor="middle" x="109.5176" y="-64.3307" font-family="Helvetica,sans-Serif" font-size="10.00" fill="#000000">1</text>
</g>
<!-- A12 -->
<g id="node13" class="node">
<title>A12</title>
<polygon fill="none" stroke="#000000" points="654.6302,-294 546.5802,-294 546.5802,-258 654.6302,-258 654.6302,-294"/>
<text text-anchor="middle" x="600.6052" y="-273" font-family="Helvetica,sans-Serif" font-size="10.00" fill="#000000">BoardImagePanel</text>
</g>
<!-- A12&#45;&gt;A15 -->
<g id="edge22" class="edge">
<title>A12&#45;&gt;A15</title>
<path fill="none" stroke="#000000" d="M580.7903,-249.7834C572.7708,-239.173 563.5291,-226.9455 555.5014,-216.3242"/>
<polygon fill="#000000" stroke="#000000" points="586.8204,-257.7616 577.2007,-252.4973 583.8055,-253.7728 580.7907,-249.7839 580.7907,-249.7839 580.7907,-249.7839 583.8055,-253.7728 584.3807,-247.0706 586.8204,-257.7616 586.8204,-257.7616"/>
<polygon fill="#000000" stroke="#000000" points="549.3702,-208.2121 558.9898,-213.4764 552.385,-212.2009 555.3998,-216.1898 555.3998,-216.1898 555.3998,-216.1898 552.385,-212.2009 551.8099,-218.9032 549.3702,-208.2121 549.3702,-208.2121"/>
</g>
<!-- A13 -->
<g id="node14" class="node">
<title>A13</title>
<polygon fill="none" stroke="#000000" points="649.3037,-380 559.9067,-380 559.9067,-344 649.3037,-344 649.3037,-380"/>
<text text-anchor="middle" x="604.6052" y="-365" font-family="Helvetica,sans-Serif" font-size="10.00" fill="#000000">&lt;&lt;interface&gt;&gt;</text>
<text text-anchor="middle" x="604.6052" y="-353" font-family="Helvetica,sans-Serif" font-size="10.00" fill="#000000">Sprite</text>
</g>
<!-- A15&#45;&gt;A14 -->
<g id="edge16" class="edge">
<title>A15&#45;&gt;A14</title>
<path fill="none" stroke="#000000" d="M544.64,-162.2503C547.8101,-152.5136 551.3704,-141.5783 554.5428,-131.8346"/>
<polygon fill="#000000" stroke="#000000" points="541.5433,-171.7616 540.3603,-160.8597 543.0912,-167.0073 544.6392,-162.2529 544.6392,-162.2529 544.6392,-162.2529 543.0912,-167.0073 548.9181,-163.6461 541.5433,-171.7616 541.5433,-171.7616"/>
<polygon fill="#000000" stroke="#000000" points="557.6757,-122.2121 558.8587,-133.114 556.1277,-126.9665 554.5798,-131.7208 554.5798,-131.7208 554.5798,-131.7208 556.1277,-126.9665 550.3008,-130.3276 557.6757,-122.2121 557.6757,-122.2121"/>
</g>
<!-- A18 -->
<g id="node19" class="node">
<title>A18</title>
<polygon fill="none" stroke="#000000" points="876.3484,-294 750.862,-294 750.862,-258 876.3484,-258 876.3484,-294"/>
<text text-anchor="middle" x="813.6052" y="-273" font-family="Helvetica,sans-Serif" font-size="10.00" fill="#000000">TraversableBoard&lt;T&gt;</text>
</g>
<!-- A18&#45;&gt;A19 -->
<g id="edge28" class="edge">
<title>A18&#45;&gt;A19</title>
<path fill="none" stroke="#000000" d="M813.6052,-257.7616C813.6052,-246.9298 813.6052,-232.9179 813.6052,-220.4492"/>
<polygon fill="#000000" stroke="#000000" points="813.6053,-220.2121 809.6053,-214.2121 813.6052,-208.2121 817.6053,-214.2121 813.6053,-220.2121"/>
<text text-anchor="middle" x="805.1528" y="-236.6355" font-family="Helvetica,sans-Serif" font-size="10.00" fill="#000000">1</text>
</g>
</g>
</svg>
