<?xml version="1.0" encoding="UTF-8" standalone="no"?>
<!DOCTYPE svg PUBLIC "-//W3C//DTD SVG 1.1//EN"
 "http://www.w3.org/Graphics/SVG/1.1/DTD/svg11.dtd">
<!-- Generated by graphviz version 2.40.1 (20161225.0304)
 -->
<!-- Title: G Pages: 1 -->
<svg width="600pt" height="952pt"
 viewBox="0.00 0.00 600.29 952.00" xmlns="http://www.w3.org/2000/svg" xmlns:xlink="http://www.w3.org/1999/xlink">
<g id="graph0" class="graph" transform="scale(1 1) rotate(0) translate(4 948)">
<title>G</title>
<polygon fill="#ffffff" stroke="transparent" points="-4,4 -4,-948 596.2915,-948 596.2915,4 -4,4"/>
<!-- A0 -->
<g id="node1" class="node">
<title>A0</title>
<ellipse fill="none" stroke="#000000" cx="58.893" cy="-933" rx="11" ry="11"/>
</g>
<!-- A1 -->
<g id="node2" class="node">
<title>A1</title>
<polygon fill="none" stroke="#000000" points="58.893,-885 40.893,-867 58.893,-849 76.893,-867 58.893,-885"/>
</g>
<!-- A0&#45;&gt;A1 -->
<g id="edge1" class="edge">
<title>A0&#45;&gt;A1</title>
<path fill="none" stroke="#000000" d="M58.893,-921.804C58.893,-914.5358 58.893,-904.7135 58.893,-895.3916"/>
<polygon fill="#000000" stroke="#000000" points="58.893,-885.2423 63.3931,-895.2423 58.893,-890.2423 58.8931,-895.2423 58.8931,-895.2423 58.8931,-895.2423 58.893,-890.2423 54.3931,-895.2424 58.893,-885.2423 58.893,-885.2423"/>
</g>
<!-- A2 -->
<g id="node3" class="node">
<title>A2</title>
<path fill="none" stroke="#000000" d="M160.5191,-801C160.5191,-801 85.2669,-801 85.2669,-801 79.2669,-801 73.2669,-795 73.2669,-789 73.2669,-789 73.2669,-777 73.2669,-777 73.2669,-771 79.2669,-765 85.2669,-765 85.2669,-765 160.5191,-765 160.5191,-765 166.5191,-765 172.5191,-771 172.5191,-777 172.5191,-777 172.5191,-789 172.5191,-789 172.5191,-795 166.5191,-801 160.5191,-801"/>
<text text-anchor="middle" x="122.893" y="-780" font-family="Helvetica,sans-Serif" font-size="10.00" fill="#000000">Choose Turtle 1</text>
</g>
<!-- A1&#45;&gt;A2 -->
<g id="edge2" class="edge">
<title>A1&#45;&gt;A2</title>
<path fill="none" stroke="#000000" d="M66.7407,-856.7C75.7226,-844.9111 90.7741,-825.1561 103.034,-809.065"/>
<polygon fill="#000000" stroke="#000000" points="109.1437,-801.0459 106.6627,-811.7274 106.1135,-805.0231 103.0833,-809.0002 103.0833,-809.0002 103.0833,-809.0002 106.1135,-805.0231 99.5038,-806.273 109.1437,-801.0459 109.1437,-801.0459"/>
<text text-anchor="middle" x="117.9525" y="-822" font-family="Helvetica,sans-Serif" font-size="10.00" fill="#000000">[P1 Turtle]</text>
</g>
<!-- A3 -->
<g id="node4" class="node">
<title>A3</title>
<polygon fill="none" stroke="#000000" points="126.893,-728 108.893,-710 126.893,-692 144.893,-710 126.893,-728"/>
</g>
<!-- A2&#45;&gt;A3 -->
<g id="edge3" class="edge">
<title>A2&#45;&gt;A3</title>
<path fill="none" stroke="#000000" d="M123.8818,-764.9551C124.3341,-756.7008 124.88,-746.7377 125.3821,-737.5742"/>
<polygon fill="#000000" stroke="#000000" points="125.9432,-727.3347 129.8892,-737.566 125.6695,-732.3272 125.3959,-737.3197 125.3959,-737.3197 125.3959,-737.3197 125.6695,-732.3272 120.9027,-737.0735 125.9432,-727.3347 125.9432,-727.3347"/>
</g>
<!-- A4 -->
<g id="node5" class="node">
<title>A4</title>
<path fill="none" stroke="#000000" d="M245.5191,-644C245.5191,-644 170.2669,-644 170.2669,-644 164.2669,-644 158.2669,-638 158.2669,-632 158.2669,-632 158.2669,-620 158.2669,-620 158.2669,-614 164.2669,-608 170.2669,-608 170.2669,-608 245.5191,-608 245.5191,-608 251.5191,-608 257.5191,-614 257.5191,-620 257.5191,-620 257.5191,-632 257.5191,-632 257.5191,-638 251.5191,-644 245.5191,-644"/>
<text text-anchor="middle" x="207.893" y="-623" font-family="Helvetica,sans-Serif" font-size="10.00" fill="#000000">Choose Turtle 2</text>
</g>
<!-- A3&#45;&gt;A4 -->
<g id="edge4" class="edge">
<title>A3&#45;&gt;A4</title>
<path fill="none" stroke="#000000" d="M135.8709,-700.6896C147.2297,-688.9101 167.246,-668.1525 183.2986,-651.5053"/>
<polygon fill="#000000" stroke="#000000" points="190.3499,-644.1928 186.6479,-654.5149 186.8793,-647.792 183.4086,-651.3913 183.4086,-651.3913 183.4086,-651.3913 186.8793,-647.792 180.1693,-648.2676 190.3499,-644.1928 190.3499,-644.1928"/>
<text text-anchor="middle" x="194.9525" y="-665" font-family="Helvetica,sans-Serif" font-size="10.00" fill="#000000">[P2 Turtle]</text>
</g>
<!-- A12 -->
<g id="node13" class="node">
<title>A12</title>
<path fill="none" stroke="#000000" d="M83.6792,-644C83.6792,-644 12.1068,-644 12.1068,-644 6.1068,-644 .1068,-638 .1068,-632 .1068,-632 .1068,-620 .1068,-620 .1068,-614 6.1068,-608 12.1068,-608 12.1068,-608 83.6792,-608 83.6792,-608 89.6792,-608 95.6792,-614 95.6792,-620 95.6792,-620 95.6792,-632 95.6792,-632 95.6792,-638 89.6792,-644 83.6792,-644"/>
<text text-anchor="middle" x="47.893" y="-623" font-family="Helvetica,sans-Serif" font-size="10.00" fill="#000000">Cancel Turtle 1</text>
</g>
<!-- A3&#45;&gt;A12 -->
<g id="edge12" class="edge">
<title>A3&#45;&gt;A12</title>
<path fill="none" stroke="#000000" d="M115.2383,-703.3974C104.4758,-696.9005 88.4972,-686.2014 77.22,-674 71.4409,-667.7473 66.1965,-660.186 61.793,-652.9327"/>
<polygon fill="#000000" stroke="#000000" points="56.6879,-644.0317 65.5667,-650.4674 59.1755,-648.369 61.6631,-652.7062 61.6631,-652.7062 61.6631,-652.7062 59.1755,-648.369 57.7596,-654.9451 56.6879,-644.0317 56.6879,-644.0317"/>
<text text-anchor="middle" x="96.2295" y="-665" font-family="Helvetica,sans-Serif" font-size="10.00" fill="#000000">[Cancel]</text>
</g>
<!-- A5 -->
<g id="node6" class="node">
<title>A5</title>
<polygon fill="none" stroke="#000000" points="212.893,-571 194.893,-553 212.893,-535 230.893,-553 212.893,-571"/>
</g>
<!-- A4&#45;&gt;A5 -->
<g id="edge5" class="edge">
<title>A4&#45;&gt;A5</title>
<path fill="none" stroke="#000000" d="M209.129,-607.9551C209.6943,-599.7008 210.3767,-589.7377 211.0044,-580.5742"/>
<polygon fill="#000000" stroke="#000000" points="211.7057,-570.3347 215.5118,-580.6189 211.364,-575.323 211.0223,-580.3113 211.0223,-580.3113 211.0223,-580.3113 211.364,-575.323 206.5328,-580.0038 211.7057,-570.3347 211.7057,-570.3347"/>
</g>
<!-- A6 -->
<g id="node7" class="node">
<title>A6</title>
<path fill="none" stroke="#000000" d="M332.5191,-487C332.5191,-487 257.2669,-487 257.2669,-487 251.2669,-487 245.2669,-481 245.2669,-475 245.2669,-475 245.2669,-463 245.2669,-463 245.2669,-457 251.2669,-451 257.2669,-451 257.2669,-451 332.5191,-451 332.5191,-451 338.5191,-451 344.5191,-457 344.5191,-463 344.5191,-463 344.5191,-475 344.5191,-475 344.5191,-481 338.5191,-487 332.5191,-487"/>
<text text-anchor="middle" x="294.893" y="-466" font-family="Helvetica,sans-Serif" font-size="10.00" fill="#000000">Choose Turtle 3</text>
</g>
<!-- A5&#45;&gt;A6 -->
<g id="edge6" class="edge">
<title>A5&#45;&gt;A6</title>
<path fill="none" stroke="#000000" d="M221.9817,-543.6896C233.4808,-531.9101 253.7442,-511.1525 269.995,-494.5053"/>
<polygon fill="#000000" stroke="#000000" points="277.1334,-487.1928 273.3681,-497.492 273.6407,-490.7707 270.148,-494.3486 270.148,-494.3486 270.148,-494.3486 273.6407,-490.7707 266.9279,-491.2051 277.1334,-487.1928 277.1334,-487.1928"/>
<text text-anchor="middle" x="280.9525" y="-508" font-family="Helvetica,sans-Serif" font-size="10.00" fill="#000000">[P3 Turtle]</text>
</g>
<!-- A13 -->
<g id="node14" class="node">
<title>A13</title>
<path fill="none" stroke="#000000" d="M580.1901,-433C580.1901,-433 463.5959,-433 463.5959,-433 457.5959,-433 451.5959,-427 451.5959,-421 451.5959,-421 451.5959,-409 451.5959,-409 451.5959,-403 457.5959,-397 463.5959,-397 463.5959,-397 580.1901,-397 580.1901,-397 586.1901,-397 592.1901,-403 592.1901,-409 592.1901,-409 592.1901,-421 592.1901,-421 592.1901,-427 586.1901,-433 580.1901,-433"/>
<text text-anchor="middle" x="521.893" y="-412" font-family="Helvetica,sans-Serif" font-size="10.00" fill="#000000">Start game with 2 players</text>
</g>
<!-- A5&#45;&gt;A13 -->
<g id="edge14" class="edge">
<title>A5&#45;&gt;A13</title>
<path fill="none" stroke="#000000" d="M226.2474,-548.333C244.7587,-541.7749 279.1817,-529.2577 307.893,-517 367.3134,-491.6316 434.3289,-459.0209 477.2812,-437.5891"/>
<polygon fill="#000000" stroke="#000000" points="486.335,-433.0593 479.4054,-441.5582 481.8634,-435.2966 477.3919,-437.5338 477.3919,-437.5338 477.3919,-437.5338 481.8634,-435.2966 475.3783,-433.5094 486.335,-433.0593 486.335,-433.0593"/>
<text text-anchor="middle" x="346.2295" y="-508" font-family="Helvetica,sans-Serif" font-size="10.00" fill="#000000">[Start]</text>
</g>
<!-- A14 -->
<g id="node15" class="node">
<title>A14</title>
<path fill="none" stroke="#000000" d="M168.6792,-487C168.6792,-487 97.1068,-487 97.1068,-487 91.1068,-487 85.1068,-481 85.1068,-475 85.1068,-475 85.1068,-463 85.1068,-463 85.1068,-457 91.1068,-451 97.1068,-451 97.1068,-451 168.6792,-451 168.6792,-451 174.6792,-451 180.6792,-457 180.6792,-463 180.6792,-463 180.6792,-475 180.6792,-475 180.6792,-481 174.6792,-487 168.6792,-487"/>
<text text-anchor="middle" x="132.893" y="-466" font-family="Helvetica,sans-Serif" font-size="10.00" fill="#000000">Cancel Turtle 2</text>
</g>
<!-- A5&#45;&gt;A14 -->
<g id="edge16" class="edge">
<title>A5&#45;&gt;A14</title>
<path fill="none" stroke="#000000" d="M200.9947,-546.4466C190.0093,-539.9845 173.7048,-529.3089 162.22,-517 156.4114,-510.7746 151.1576,-503.222 146.7546,-495.9684"/>
<polygon fill="#000000" stroke="#000000" points="141.6545,-487.0627 150.5291,-493.5042 144.1393,-491.4016 146.6241,-495.7405 146.6241,-495.7405 146.6241,-495.7405 144.1393,-491.4016 142.7191,-497.9768 141.6545,-487.0627 141.6545,-487.0627"/>
<text text-anchor="middle" x="180.2295" y="-508" font-family="Helvetica,sans-Serif" font-size="10.00" fill="#000000">[Cancel]</text>
</g>
<!-- A7 -->
<g id="node8" class="node">
<title>A7</title>
<polygon fill="none" stroke="#000000" points="305.893,-379 287.893,-361 305.893,-343 323.893,-361 305.893,-379"/>
</g>
<!-- A6&#45;&gt;A7 -->
<g id="edge7" class="edge">
<title>A6&#45;&gt;A7</title>
<path fill="none" stroke="#000000" d="M296.759,-450.6793C298.5174,-433.4147 301.1729,-407.3431 303.1681,-387.7537"/>
<polygon fill="#000000" stroke="#000000" points="304.1987,-377.6346 307.6622,-388.0392 303.6921,-382.6089 303.1854,-387.5832 303.1854,-387.5832 303.1854,-387.5832 303.6921,-382.6089 298.7085,-387.1271 304.1987,-377.6346 304.1987,-377.6346"/>
</g>
<!-- A8 -->
<g id="node9" class="node">
<title>A8</title>
<path fill="none" stroke="#000000" d="M463.5191,-295C463.5191,-295 388.2669,-295 388.2669,-295 382.2669,-295 376.2669,-289 376.2669,-283 376.2669,-283 376.2669,-271 376.2669,-271 376.2669,-265 382.2669,-259 388.2669,-259 388.2669,-259 463.5191,-259 463.5191,-259 469.5191,-259 475.5191,-265 475.5191,-271 475.5191,-271 475.5191,-283 475.5191,-283 475.5191,-289 469.5191,-295 463.5191,-295"/>
<text text-anchor="middle" x="425.893" y="-274" font-family="Helvetica,sans-Serif" font-size="10.00" fill="#000000">Choose Turtle 4</text>
</g>
<!-- A7&#45;&gt;A8 -->
<g id="edge8" class="edge">
<title>A7&#45;&gt;A8</title>
<path fill="none" stroke="#000000" d="M317.2057,-354.0621C328.6295,-346.9785 346.7083,-335.5546 361.893,-325 372.5847,-317.5684 384.0287,-309.1425 394.24,-301.4473"/>
<polygon fill="#000000" stroke="#000000" points="402.4841,-295.193 397.237,-304.8221 398.5006,-298.215 394.5172,-301.237 394.5172,-301.237 394.5172,-301.237 398.5006,-298.215 391.7974,-297.6519 402.4841,-295.193 402.4841,-295.193"/>
<text text-anchor="middle" x="400.9525" y="-316" font-family="Helvetica,sans-Serif" font-size="10.00" fill="#000000">[P4 Turtle]</text>
</g>
<!-- A15 -->
<g id="node16" class="node">
<title>A15</title>
<path fill="none" stroke="#000000" d="M321.1901,-241C321.1901,-241 204.5959,-241 204.5959,-241 198.5959,-241 192.5959,-235 192.5959,-229 192.5959,-229 192.5959,-217 192.5959,-217 192.5959,-211 198.5959,-205 204.5959,-205 204.5959,-205 321.1901,-205 321.1901,-205 327.1901,-205 333.1901,-211 333.1901,-217 333.1901,-217 333.1901,-229 333.1901,-229 333.1901,-235 327.1901,-241 321.1901,-241"/>
<text text-anchor="middle" x="262.893" y="-220" font-family="Helvetica,sans-Serif" font-size="10.00" fill="#000000">Start game with 3 players</text>
</g>
<!-- A7&#45;&gt;A15 -->
<g id="edge18" class="edge">
<title>A7&#45;&gt;A15</title>
<path fill="none" stroke="#000000" d="M302.6915,-345.909C298.2465,-325.7995 289.5381,-289.2378 278.893,-259 277.9135,-256.2178 276.81,-253.3514 275.6521,-250.5081"/>
<polygon fill="#000000" stroke="#000000" points="271.6064,-241.086 279.6869,-248.4993 273.5792,-245.6804 275.5519,-250.2748 275.5519,-250.2748 275.5519,-250.2748 273.5792,-245.6804 271.417,-252.0503 271.6064,-241.086 271.6064,-241.086"/>
<text text-anchor="middle" x="310.2295" y="-316" font-family="Helvetica,sans-Serif" font-size="10.00" fill="#000000">[Start]</text>
</g>
<!-- A16 -->
<g id="node17" class="node">
<title>A16</title>
<path fill="none" stroke="#000000" d="M257.6792,-295C257.6792,-295 186.1068,-295 186.1068,-295 180.1068,-295 174.1068,-289 174.1068,-283 174.1068,-283 174.1068,-271 174.1068,-271 174.1068,-265 180.1068,-259 186.1068,-259 186.1068,-259 257.6792,-259 257.6792,-259 263.6792,-259 269.6792,-265 269.6792,-271 269.6792,-271 269.6792,-283 269.6792,-283 269.6792,-289 263.6792,-295 257.6792,-295"/>
<text text-anchor="middle" x="221.893" y="-274" font-family="Helvetica,sans-Serif" font-size="10.00" fill="#000000">Cancel Turtle 3</text>
</g>
<!-- A7&#45;&gt;A16 -->
<g id="edge20" class="edge">
<title>A7&#45;&gt;A16</title>
<path fill="none" stroke="#000000" d="M292.8448,-355.4953C279.9459,-349.5264 260.2956,-338.9519 247.22,-325 241.7272,-319.1391 237.0841,-311.8588 233.3339,-304.7543"/>
<polygon fill="#000000" stroke="#000000" points="228.7774,-295.3251 237.1802,-302.371 230.9529,-299.827 233.1284,-304.329 233.1284,-304.329 233.1284,-304.329 230.9529,-299.827 229.0767,-306.2869 228.7774,-295.3251 228.7774,-295.3251"/>
<text text-anchor="middle" x="265.2295" y="-316" font-family="Helvetica,sans-Serif" font-size="10.00" fill="#000000">[Cancel]</text>
</g>
<!-- A9 -->
<g id="node10" class="node">
<title>A9</title>
<polygon fill="none" stroke="#000000" points="425.893,-187 407.893,-169 425.893,-151 443.893,-169 425.893,-187"/>
</g>
<!-- A8&#45;&gt;A9 -->
<g id="edge9" class="edge">
<title>A8&#45;&gt;A9</title>
<path fill="none" stroke="#000000" d="M425.893,-258.6793C425.893,-241.821 425.893,-216.5651 425.893,-197.147"/>
<polygon fill="#000000" stroke="#000000" points="425.893,-187.0502 430.3931,-197.0501 425.893,-192.0502 425.8931,-197.0502 425.8931,-197.0502 425.8931,-197.0502 425.893,-192.0502 421.3931,-197.0502 425.893,-187.0502 425.893,-187.0502"/>
</g>
<!-- A10 -->
<g id="node11" class="node">
<title>A10</title>
<path fill="none" stroke="#000000" d="M533.1901,-103C533.1901,-103 416.5959,-103 416.5959,-103 410.5959,-103 404.5959,-97 404.5959,-91 404.5959,-91 404.5959,-79 404.5959,-79 404.5959,-73 410.5959,-67 416.5959,-67 416.5959,-67 533.1901,-67 533.1901,-67 539.1901,-67 545.1901,-73 545.1901,-79 545.1901,-79 545.1901,-91 545.1901,-91 545.1901,-97 539.1901,-103 533.1901,-103"/>
<text text-anchor="middle" x="474.893" y="-82" font-family="Helvetica,sans-Serif" font-size="10.00" fill="#000000">Start game with 4 players</text>
</g>
<!-- A9&#45;&gt;A10 -->
<g id="edge10" class="edge">
<title>A9&#45;&gt;A10</title>
<path fill="none" stroke="#000000" d="M432.7062,-157.3202C439.5006,-145.6726 450.1809,-127.3636 459.0948,-112.0826"/>
<polygon fill="#000000" stroke="#000000" points="464.3662,-103.0459 463.2145,-113.9511 461.8468,-107.3648 459.3275,-111.6837 459.3275,-111.6837 459.3275,-111.6837 461.8468,-107.3648 455.4405,-109.4163 464.3662,-103.0459 464.3662,-103.0459"/>
<text text-anchor="middle" x="466.2295" y="-124" font-family="Helvetica,sans-Serif" font-size="10.00" fill="#000000">[Start]</text>
</g>
<!-- A17 -->
<g id="node18" class="node">
<title>A17</title>
<path fill="none" stroke="#000000" d="M374.6792,-103C374.6792,-103 303.1068,-103 303.1068,-103 297.1068,-103 291.1068,-97 291.1068,-91 291.1068,-91 291.1068,-79 291.1068,-79 291.1068,-73 297.1068,-67 303.1068,-67 303.1068,-67 374.6792,-67 374.6792,-67 380.6792,-67 386.6792,-73 386.6792,-79 386.6792,-79 386.6792,-91 386.6792,-91 386.6792,-97 380.6792,-103 374.6792,-103"/>
<text text-anchor="middle" x="338.893" y="-82" font-family="Helvetica,sans-Serif" font-size="10.00" fill="#000000">Cancel Turtle 4</text>
</g>
<!-- A9&#45;&gt;A17 -->
<g id="edge22" class="edge">
<title>A9&#45;&gt;A17</title>
<path fill="none" stroke="#000000" d="M416.5825,-160.0105C404.4182,-148.2657 382.6181,-127.2173 365.2006,-110.4004"/>
<polygon fill="#000000" stroke="#000000" points="357.5567,-103.0201 367.8764,-106.7288 361.1537,-106.4931 364.7507,-109.9661 364.7507,-109.9661 364.7507,-109.9661 361.1537,-106.4931 361.625,-113.2034 357.5567,-103.0201 357.5567,-103.0201"/>
<text text-anchor="middle" x="405.2295" y="-124" font-family="Helvetica,sans-Serif" font-size="10.00" fill="#000000">[Cancel]</text>
</g>
<!-- A11 -->
<g id="node12" class="node">
<title>A11</title>
<ellipse fill="none" stroke="#000000" cx="474.893" cy="-15" rx="11" ry="11"/>
<ellipse fill="none" stroke="#000000" cx="474.893" cy="-15" rx="15" ry="15"/>
</g>
<!-- A10&#45;&gt;A11 -->
<g id="edge11" class="edge">
<title>A10&#45;&gt;A11</title>
<path fill="none" stroke="#000000" d="M474.893,-66.9733C474.893,-58.9095 474.893,-49.2597 474.893,-40.4761"/>
<polygon fill="#000000" stroke="#000000" points="474.893,-30.3564 479.3931,-40.3563 474.893,-35.3564 474.8931,-40.3564 474.8931,-40.3564 474.8931,-40.3564 474.893,-35.3564 470.3931,-40.3564 474.893,-30.3564 474.893,-30.3564"/>
</g>
<!-- A12&#45;&gt;A1 -->
<g id="edge13" class="edge">
<title>A12&#45;&gt;A1</title>
<path fill="none" stroke="#000000" d="M48.7216,-644.1543C50.6362,-686.1012 55.3763,-789.9519 57.6446,-839.6488"/>
<polygon fill="#000000" stroke="#000000" points="58.1019,-849.6679 53.1505,-839.8835 57.8739,-844.6731 57.6459,-839.6783 57.6459,-839.6783 57.6459,-839.6783 57.8739,-844.6731 62.1412,-839.4731 58.1019,-849.6679 58.1019,-849.6679"/>
</g>
<!-- A13&#45;&gt;A11 -->
<g id="edge15" class="edge">
<title>A13&#45;&gt;A11</title>
<path fill="none" stroke="#000000" d="M538.5923,-396.6754C553.4661,-378.3983 572.893,-348.8187 572.893,-319 572.893,-319 572.893,-319 572.893,-85 572.893,-49.0604 528.7105,-29.825 499.6779,-21.0648"/>
<polygon fill="#000000" stroke="#000000" points="489.7771,-18.2999 500.619,-16.6555 494.5928,-19.6448 499.4086,-20.9897 499.4086,-20.9897 499.4086,-20.9897 494.5928,-19.6448 498.1981,-25.3239 489.7771,-18.2999 489.7771,-18.2999"/>
</g>
<!-- A14&#45;&gt;A3 -->
<g id="edge17" class="edge">
<title>A14&#45;&gt;A3</title>
<path fill="none" stroke="#000000" d="M132.443,-487.0749C131.4031,-528.8457 128.8273,-632.3044 127.585,-682.2049"/>
<polygon fill="#000000" stroke="#000000" points="127.3342,-692.2787 123.0846,-682.1698 127.4587,-687.2802 127.5832,-682.2818 127.5832,-682.2818 127.5832,-682.2818 127.4587,-687.2802 132.0818,-682.3938 127.3342,-692.2787 127.3342,-692.2787"/>
</g>
<!-- A15&#45;&gt;A11 -->
<g id="edge19" class="edge">
<title>A15&#45;&gt;A11</title>
<path fill="none" stroke="#000000" d="M259.216,-204.7962C253.8836,-172.7726 248.0193,-106.0601 281.893,-67 303.882,-41.6443 402.83,-24.9178 449.8831,-18.2563"/>
<polygon fill="#000000" stroke="#000000" points="459.8731,-16.8836 450.5789,-22.7031 454.9197,-17.5643 449.9662,-18.245 449.9662,-18.245 449.9662,-18.245 454.9197,-17.5643 449.3536,-13.7869 459.8731,-16.8836 459.8731,-16.8836"/>
</g>
<!-- A16&#45;&gt;A5 -->
<g id="edge21" class="edge">
<title>A16&#45;&gt;A5</title>
<path fill="none" stroke="#000000" d="M221.2977,-295.2551C219.76,-342.411 215.6473,-468.5344 213.8062,-524.9957"/>
<polygon fill="#000000" stroke="#000000" points="213.4697,-535.3151 209.2981,-525.1737 213.6327,-530.3178 213.7957,-525.3204 213.7957,-525.3204 213.7957,-525.3204 213.6327,-530.3178 218.2933,-525.4671 213.4697,-535.3151 213.4697,-535.3151"/>
</g>
<!-- A17&#45;&gt;A7 -->
<g id="edge23" class="edge">
<title>A17&#45;&gt;A7</title>
<path fill="none" stroke="#000000" d="M341.1966,-103.0238C345.738,-143.7579 353.3356,-245.5537 327.893,-325 325.9467,-331.0776 322.777,-337.1881 319.442,-342.6052"/>
<polygon fill="#000000" stroke="#000000" points="313.8604,-350.9389 315.6864,-340.1261 316.6428,-346.7846 319.4253,-342.6303 319.4253,-342.6303 319.4253,-342.6303 316.6428,-346.7846 323.1641,-345.1345 313.8604,-350.9389 313.8604,-350.9389"/>
</g>
</g>
</svg>
