<?xml version="1.0" encoding="UTF-8" standalone="no"?>
<!DOCTYPE svg PUBLIC "-//W3C//DTD SVG 1.1//EN"
 "http://www.w3.org/Graphics/SVG/1.1/DTD/svg11.dtd">
<!-- Generated by graphviz version 2.40.1 (20161225.0304)
 -->
<!-- Title: G Pages: 1 -->
<svg width="500pt" height="260pt"
 viewBox="0.00 0.00 500.00 260.00" xmlns="http://www.w3.org/2000/svg" xmlns:xlink="http://www.w3.org/1999/xlink">
<g id="graph0" class="graph" transform="scale(1 1) rotate(0) translate(4 256)">
<title>G</title>
<polygon fill="#ffffff" stroke="transparent" points="-4,4 -4,-256 496,-256 496,4 -4,4"/>
<!-- A0 -->
<g id="node1" class="node">
<title>A0</title>
<polygon fill="#ffff00" stroke="#000000" points="139.2403,-252 54.7597,-252 54.7597,-216 145.2403,-216 145.2403,-246 139.2403,-252"/>
<polyline fill="none" stroke="#000000" points="139.2403,-252 139.2403,-246 "/>
<polyline fill="none" stroke="#000000" points="145.2403,-246 139.2403,-246 "/>
<text text-anchor="middle" x="100" y="-231" font-family="Helvetica,sans-Serif" font-size="10.00" fill="#000000">Main package</text>
</g>
<!-- A1 -->
<g id="node2" class="node">
<title>A1</title>
<polygon fill="#ffffff" stroke="#000000" points="148.9661,-180 63.0339,-180 63.0339,-184 51.0339,-184 51.0339,-144 148.9661,-144 148.9661,-180"/>
<polyline fill="none" stroke="#000000" points="51.0339,-180 63.0339,-180 "/>
<text text-anchor="middle" x="100" y="-159" font-family="Helvetica,sans-Serif" font-size="10.00" fill="#000000">robotturtles.g45</text>
</g>
<!-- A0&#45;&gt;A1 -->
<g id="edge1" class="edge">
<title>A0&#45;&gt;A1</title>
<path fill="none" stroke="#000000" stroke-dasharray="5,2" d="M100,-215.8314C100,-205 100,-191.2876 100,-180.4133"/>
</g>
<!-- A2 -->
<g id="node3" class="node">
<title>A2</title>
<polygon fill="#ffffff" stroke="#000000" points="54,-108 12,-108 12,-112 0,-112 0,-72 54,-72 54,-108"/>
<polyline fill="none" stroke="#000000" points="0,-108 12,-108 "/>
<text text-anchor="middle" x="27" y="-87" font-family="Helvetica,sans-Serif" font-size="10.00" fill="#000000">board</text>
</g>
<!-- A1&#45;&gt;A2 -->
<g id="edge2" class="edge">
<title>A1&#45;&gt;A2</title>
<path fill="none" stroke="#000000" stroke-dasharray="5,2" d="M81.579,-143.8314C72.8471,-135.219 62.2683,-124.7851 52.7577,-115.4048"/>
<polygon fill="#000000" stroke="#000000" points="45.4151,-108.1628 55.6948,-111.9811 48.9749,-111.6739 52.5348,-115.185 52.5348,-115.185 52.5348,-115.185 48.9749,-111.6739 49.3748,-118.3889 45.4151,-108.1628 45.4151,-108.1628"/>
</g>
<!-- A3 -->
<g id="node4" class="node">
<title>A3</title>
<polygon fill="#ffffff" stroke="#000000" points="127.7255,-108 84.2745,-108 84.2745,-112 72.2745,-112 72.2745,-72 127.7255,-72 127.7255,-108"/>
<polyline fill="none" stroke="#000000" points="72.2745,-108 84.2745,-108 "/>
<text text-anchor="middle" x="100" y="-87" font-family="Helvetica,sans-Serif" font-size="10.00" fill="#000000">player</text>
</g>
<!-- A1&#45;&gt;A3 -->
<g id="edge3" class="edge">
<title>A1&#45;&gt;A3</title>
<path fill="none" stroke="#000000" stroke-dasharray="5,2" d="M100,-143.8314C100,-136.131 100,-126.9743 100,-118.4166"/>
<polygon fill="#000000" stroke="#000000" points="100,-108.4133 104.5001,-118.4132 100,-113.4133 100.0001,-118.4133 100.0001,-118.4133 100.0001,-118.4133 100,-113.4133 95.5001,-118.4133 100,-108.4133 100,-108.4133"/>
</g>
<!-- A4 -->
<g id="node5" class="node">
<title>A4</title>
<polygon fill="#ffffff" stroke="#000000" points="200,-108 158,-108 158,-112 146,-112 146,-72 200,-72 200,-108"/>
<polyline fill="none" stroke="#000000" points="146,-108 158,-108 "/>
<text text-anchor="middle" x="173" y="-87" font-family="Helvetica,sans-Serif" font-size="10.00" fill="#000000">views</text>
</g>
<!-- A1&#45;&gt;A4 -->
<g id="edge4" class="edge">
<title>A1&#45;&gt;A4</title>
<path fill="none" stroke="#000000" stroke-dasharray="5,2" d="M118.421,-143.8314C127.1529,-135.219 137.7317,-124.7851 147.2423,-115.4048"/>
<polygon fill="#000000" stroke="#000000" points="154.5849,-108.1628 150.6252,-118.3889 151.0251,-111.6739 147.4652,-115.185 147.4652,-115.185 147.4652,-115.185 151.0251,-111.6739 144.3052,-111.9811 154.5849,-108.1628 154.5849,-108.1628"/>
</g>
<!-- A5 -->
<g id="node6" class="node">
<title>A5</title>
<polygon fill="#ffffff" stroke="#000000" points="128.072,-36 51.928,-36 51.928,-40 39.928,-40 39.928,0 128.072,0 128.072,-36"/>
<polyline fill="none" stroke="#000000" points="39.928,-36 51.928,-36 "/>
<text text-anchor="middle" x="84" y="-15" font-family="Helvetica,sans-Serif" font-size="10.00" fill="#000000">choosePlayer</text>
</g>
<!-- A4&#45;&gt;A5 -->
<g id="edge5" class="edge">
<title>A4&#45;&gt;A5</title>
<path fill="none" stroke="#000000" stroke-dasharray="5,2" d="M150.5415,-71.8314C139.5795,-62.9632 126.2301,-52.1637 114.3735,-42.5718"/>
<polygon fill="#000000" stroke="#000000" points="106.4513,-36.1628 117.0561,-38.9538 110.3385,-39.3076 114.2258,-42.4523 114.2258,-42.4523 114.2258,-42.4523 110.3385,-39.3076 111.3955,-45.9509 106.4513,-36.1628 106.4513,-36.1628"/>
</g>
<!-- A6 -->
<g id="node7" class="node">
<title>A6</title>
<polygon fill="#ffffff" stroke="#000000" points="200,-36 158,-36 158,-40 146,-40 146,0 200,0 200,-36"/>
<polyline fill="none" stroke="#000000" points="146,-36 158,-36 "/>
<text text-anchor="middle" x="173" y="-15" font-family="Helvetica,sans-Serif" font-size="10.00" fill="#000000">game</text>
</g>
<!-- A4&#45;&gt;A6 -->
<g id="edge6" class="edge">
<title>A4&#45;&gt;A6</title>
<path fill="none" stroke="#000000" stroke-dasharray="5,2" d="M173,-71.8314C173,-64.131 173,-54.9743 173,-46.4166"/>
<polygon fill="#000000" stroke="#000000" points="173,-36.4133 177.5001,-46.4132 173,-41.4133 173.0001,-46.4133 173.0001,-46.4133 173.0001,-46.4133 173,-41.4133 168.5001,-46.4133 173,-36.4133 173,-36.4133"/>
</g>
<!-- A7 -->
<g id="node8" class="node">
<title>A7</title>
<polygon fill="#ffffff" stroke="#000000" points="275.9457,-36 230.0543,-36 230.0543,-40 218.0543,-40 218.0543,0 275.9457,0 275.9457,-36"/>
<polyline fill="none" stroke="#000000" points="218.0543,-36 230.0543,-36 "/>
<text text-anchor="middle" x="247" y="-15" font-family="Helvetica,sans-Serif" font-size="10.00" fill="#000000">winner</text>
</g>
<!-- A4&#45;&gt;A7 -->
<g id="edge7" class="edge">
<title>A4&#45;&gt;A7</title>
<path fill="none" stroke="#000000" stroke-dasharray="5,2" d="M191.6733,-71.8314C200.5249,-63.219 211.2486,-52.7851 220.8895,-43.4048"/>
<polygon fill="#000000" stroke="#000000" points="228.3326,-36.1628 224.3035,-46.3617 224.749,-39.6496 221.1654,-43.1364 221.1654,-43.1364 221.1654,-43.1364 224.749,-39.6496 218.0273,-39.9111 228.3326,-36.1628 228.3326,-36.1628"/>
</g>
<!-- A8 -->
<g id="node9" class="node">
<title>A8</title>
<polygon fill="#ffff00" stroke="#000000" points="456.3328,-252 395.6672,-252 395.6672,-216 462.3328,-216 462.3328,-246 456.3328,-252"/>
<polyline fill="none" stroke="#000000" points="456.3328,-252 456.3328,-246 "/>
<polyline fill="none" stroke="#000000" points="462.3328,-246 456.3328,-246 "/>
<text text-anchor="middle" x="429" y="-231" font-family="Helvetica,sans-Serif" font-size="10.00" fill="#000000">Libraries</text>
</g>
<!-- A9 -->
<g id="node10" class="node">
<title>A9</title>
<polygon fill="none" stroke="#000000" points="420,-180 378,-180 378,-184 366,-184 366,-144 420,-144 420,-180"/>
<polyline fill="none" stroke="#000000" points="366,-180 378,-180 "/>
<text text-anchor="middle" x="393" y="-159" font-family="Helvetica,sans-Serif" font-size="10.00" fill="#000000">java</text>
</g>
<!-- A8&#45;&gt;A9 -->
<g id="edge8" class="edge">
<title>A8&#45;&gt;A9</title>
<path fill="none" stroke="#000000" stroke-dasharray="5,2" d="M419.9157,-215.8314C414.5,-205 407.6438,-191.2876 402.2066,-180.4133"/>
</g>
<!-- A13 -->
<g id="node14" class="node">
<title>A13</title>
<polygon fill="none" stroke="#000000" points="492,-180 450,-180 450,-184 438,-184 438,-144 492,-144 492,-180"/>
<polyline fill="none" stroke="#000000" points="438,-180 450,-180 "/>
<text text-anchor="middle" x="465" y="-159" font-family="Helvetica,sans-Serif" font-size="10.00" fill="#000000">javax</text>
</g>
<!-- A8&#45;&gt;A13 -->
<g id="edge12" class="edge">
<title>A8&#45;&gt;A13</title>
<path fill="none" stroke="#000000" stroke-dasharray="5,2" d="M438.0843,-215.8314C443.5,-205 450.3562,-191.2876 455.7934,-180.4133"/>
</g>
<!-- A10 -->
<g id="node11" class="node">
<title>A10</title>
<polygon fill="#00ff00" stroke="#000000" points="348,-108 306,-108 306,-112 294,-112 294,-72 348,-72 348,-108"/>
<polyline fill="none" stroke="#000000" points="294,-108 306,-108 "/>
<text text-anchor="middle" x="321" y="-87" font-family="Helvetica,sans-Serif" font-size="10.00" fill="#ffffff">awt</text>
</g>
<!-- A9&#45;&gt;A10 -->
<g id="edge9" class="edge">
<title>A9&#45;&gt;A10</title>
<path fill="none" stroke="#000000" stroke-dasharray="5,2" d="M374.8314,-143.8314C366.2848,-135.2848 355.9443,-124.9443 346.6198,-115.6198"/>
<polygon fill="#000000" stroke="#000000" points="339.4133,-108.4133 349.6664,-112.3024 342.9488,-111.9488 346.4844,-115.4844 346.4844,-115.4844 346.4844,-115.4844 342.9488,-111.9488 343.3024,-118.6664 339.4133,-108.4133 339.4133,-108.4133"/>
</g>
<!-- A12 -->
<g id="node13" class="node">
<title>A12</title>
<polygon fill="#a020f0" stroke="#000000" points="420,-108 378,-108 378,-112 366,-112 366,-72 420,-72 420,-108"/>
<polyline fill="none" stroke="#000000" points="366,-108 378,-108 "/>
<text text-anchor="middle" x="393" y="-87" font-family="Helvetica,sans-Serif" font-size="10.00" fill="#000000">util</text>
</g>
<!-- A9&#45;&gt;A12 -->
<g id="edge11" class="edge">
<title>A9&#45;&gt;A12</title>
<path fill="none" stroke="#000000" stroke-dasharray="5,2" d="M393,-143.8314C393,-136.131 393,-126.9743 393,-118.4166"/>
<polygon fill="#000000" stroke="#000000" points="393,-108.4133 397.5001,-118.4132 393,-113.4133 393.0001,-118.4133 393.0001,-118.4133 393.0001,-118.4133 393,-113.4133 388.5001,-118.4133 393,-108.4133 393,-108.4133"/>
</g>
<!-- A11 -->
<g id="node12" class="node">
<title>A11</title>
<polygon fill="#ff0000" stroke="#000000" points="348,-36 306,-36 306,-40 294,-40 294,0 348,0 348,-36"/>
<polyline fill="none" stroke="#000000" points="294,-36 306,-36 "/>
<text text-anchor="middle" x="321" y="-15" font-family="Helvetica,sans-Serif" font-size="10.00" fill="#000000">event</text>
</g>
<!-- A10&#45;&gt;A11 -->
<g id="edge10" class="edge">
<title>A10&#45;&gt;A11</title>
<path fill="none" stroke="#000000" stroke-dasharray="5,2" d="M321,-71.8314C321,-64.131 321,-54.9743 321,-46.4166"/>
<polygon fill="#000000" stroke="#000000" points="321,-36.4133 325.5001,-46.4132 321,-41.4133 321.0001,-46.4133 321.0001,-46.4133 321.0001,-46.4133 321,-41.4133 316.5001,-46.4133 321,-36.4133 321,-36.4133"/>
</g>
<!-- A14 -->
<g id="node15" class="node">
<title>A14</title>
<polygon fill="#0000ff" stroke="#000000" points="492,-108 450,-108 450,-112 438,-112 438,-72 492,-72 492,-108"/>
<polyline fill="none" stroke="#000000" points="438,-108 450,-108 "/>
<text text-anchor="middle" x="465" y="-87" font-family="Helvetica,sans-Serif" font-size="10.00" fill="#ffffff">swing</text>
</g>
<!-- A13&#45;&gt;A14 -->
<g id="edge13" class="edge">
<title>A13&#45;&gt;A14</title>
<path fill="none" stroke="#000000" stroke-dasharray="5,2" d="M465,-143.8314C465,-136.131 465,-126.9743 465,-118.4166"/>
<polygon fill="#000000" stroke="#000000" points="465,-108.4133 469.5001,-118.4132 465,-113.4133 465.0001,-118.4133 465.0001,-118.4133 465.0001,-118.4133 465,-113.4133 460.5001,-118.4133 465,-108.4133 465,-108.4133"/>
</g>
</g>
</svg>
