<?xml version="1.0" encoding="UTF-8" standalone="no"?>
<!DOCTYPE svg PUBLIC "-//W3C//DTD SVG 1.1//EN"
 "http://www.w3.org/Graphics/SVG/1.1/DTD/svg11.dtd">
<!-- Generated by graphviz version 2.40.1 (20161225.0304)
 -->
<!-- Title: G Pages: 1 -->
<svg width="469pt" height="260pt"
 viewBox="0.00 0.00 469.00 260.00" xmlns="http://www.w3.org/2000/svg" xmlns:xlink="http://www.w3.org/1999/xlink">
<g id="graph0" class="graph" transform="scale(1 1) rotate(0) translate(4 256)">
<title>G</title>
<polygon fill="#ffffff" stroke="transparent" points="-4,4 -4,-256 465,-256 465,4 -4,4"/>
<!-- A0 -->
<g id="node1" class="node">
<title>A0</title>
<polygon fill="#ffffff" stroke="#000000" points="139.2403,-252 54.7597,-252 54.7597,-216 145.2403,-216 145.2403,-246 139.2403,-252"/>
<polyline fill="none" stroke="#000000" points="139.2403,-252 139.2403,-246 "/>
<polyline fill="none" stroke="#000000" points="145.2403,-246 139.2403,-246 "/>
<text text-anchor="middle" x="100" y="-231" font-family="Helvetica,sans-Serif" font-size="10.00" fill="#000000">Main package</text>
</g>
<!-- A1 -->
<g id="node2" class="node">
<title>A1</title>
<polygon fill="#ffffff" stroke="#000000" points="148.9661,-180 63.0339,-180 63.0339,-184 51.0339,-184 51.0339,-144 148.9661,-144 148.9661,-180"/>
<polyline fill="none" stroke="#000000" points="51.0339,-180 63.0339,-180 "/>
<text text-anchor="middle" x="100" y="-159" font-family="Helvetica,sans-Serif" font-size="10.00" fill="#000000">robotturtles.g45</text>
</g>
<!-- A0&#45;&gt;A1 -->
<g id="edge1" class="edge">
<title>A0&#45;&gt;A1</title>
<path fill="none" stroke="#000000" stroke-dasharray="5,2" d="M100,-215.8314C100,-205 100,-191.2876 100,-180.4133"/>
</g>
<!-- A2 -->
<g id="node3" class="node">
<title>A2</title>
<polygon fill="#ffffff" stroke="#000000" points="54,-108 12,-108 12,-112 0,-112 0,-72 54,-72 54,-108"/>
<polyline fill="none" stroke="#000000" points="0,-108 12,-108 "/>
<text text-anchor="middle" x="27" y="-87" font-family="Helvetica,sans-Serif" font-size="10.00" fill="#000000">board</text>
</g>
<!-- A1&#45;&gt;A2 -->
<g id="edge2" class="edge">
<title>A1&#45;&gt;A2</title>
<path fill="none" stroke="#000000" stroke-dasharray="5,2" d="M81.579,-143.8314C72.8471,-135.219 62.2683,-124.7851 52.7577,-115.4048"/>
<polygon fill="#000000" stroke="#000000" points="45.4151,-108.1628 55.6948,-111.9811 48.9749,-111.6739 52.5348,-115.185 52.5348,-115.185 52.5348,-115.185 48.9749,-111.6739 49.3748,-118.3889 45.4151,-108.1628 45.4151,-108.1628"/>
</g>
<!-- A3 -->
<g id="node4" class="node">
<title>A3</title>
<polygon fill="#ffffff" stroke="#000000" points="127.7255,-108 84.2745,-108 84.2745,-112 72.2745,-112 72.2745,-72 127.7255,-72 127.7255,-108"/>
<polyline fill="none" stroke="#000000" points="72.2745,-108 84.2745,-108 "/>
<text text-anchor="middle" x="100" y="-87" font-family="Helvetica,sans-Serif" font-size="10.00" fill="#000000">player</text>
</g>
<!-- A1&#45;&gt;A3 -->
<g id="edge3" class="edge">
<title>A1&#45;&gt;A3</title>
<path fill="none" stroke="#000000" stroke-dasharray="5,2" d="M100,-143.8314C100,-136.131 100,-126.9743 100,-118.4166"/>
<polygon fill="#000000" stroke="#000000" points="100,-108.4133 104.5001,-118.4132 100,-113.4133 100.0001,-118.4133 100.0001,-118.4133 100.0001,-118.4133 100,-113.4133 95.5001,-118.4133 100,-108.4133 100,-108.4133"/>
</g>
<!-- A4 -->
<g id="node5" class="node">
<title>A4</title>
<polygon fill="#ffffff" stroke="#000000" points="200,-108 158,-108 158,-112 146,-112 146,-72 200,-72 200,-108"/>
<polyline fill="none" stroke="#000000" points="146,-108 158,-108 "/>
<text text-anchor="middle" x="173" y="-87" font-family="Helvetica,sans-Serif" font-size="10.00" fill="#000000">views</text>
</g>
<!-- A1&#45;&gt;A4 -->
<g id="edge4" class="edge">
<title>A1&#45;&gt;A4</title>
<path fill="none" stroke="#000000" stroke-dasharray="5,2" d="M118.421,-143.8314C127.1529,-135.219 137.7317,-124.7851 147.2423,-115.4048"/>
<polygon fill="#000000" stroke="#000000" points="154.5849,-108.1628 150.6252,-118.3889 151.0251,-111.6739 147.4652,-115.185 147.4652,-115.185 147.4652,-115.185 151.0251,-111.6739 144.3052,-111.9811 154.5849,-108.1628 154.5849,-108.1628"/>
</g>
<!-- A5 -->
<g id="node6" class="node">
<title>A5</title>
<polygon fill="#ffffff" stroke="#000000" points="173.072,-36 96.928,-36 96.928,-40 84.928,-40 84.928,0 173.072,0 173.072,-36"/>
<polyline fill="none" stroke="#000000" points="84.928,-36 96.928,-36 "/>
<text text-anchor="middle" x="129" y="-15" font-family="Helvetica,sans-Serif" font-size="10.00" fill="#000000">choosePlayer</text>
</g>
<!-- A4&#45;&gt;A5 -->
<g id="edge5" class="edge">
<title>A4&#45;&gt;A5</title>
<path fill="none" stroke="#000000" stroke-dasharray="5,2" d="M161.8969,-71.8314C156.9326,-63.7079 150.9778,-53.9637 145.5072,-45.0118"/>
<polygon fill="#000000" stroke="#000000" points="140.2526,-36.4133 149.3069,-42.5996 142.8598,-40.6797 145.4671,-44.9461 145.4671,-44.9461 145.4671,-44.9461 142.8598,-40.6797 141.6273,-47.2926 140.2526,-36.4133 140.2526,-36.4133"/>
</g>
<!-- A6 -->
<g id="node7" class="node">
<title>A6</title>
<polygon fill="#ffffff" stroke="#000000" points="245,-36 203,-36 203,-40 191,-40 191,0 245,0 245,-36"/>
<polyline fill="none" stroke="#000000" points="191,-36 203,-36 "/>
<text text-anchor="middle" x="218" y="-15" font-family="Helvetica,sans-Serif" font-size="10.00" fill="#000000">game</text>
</g>
<!-- A4&#45;&gt;A6 -->
<g id="edge6" class="edge">
<title>A4&#45;&gt;A6</title>
<path fill="none" stroke="#000000" stroke-dasharray="5,2" d="M184.3554,-71.8314C189.4326,-63.7079 195.5227,-53.9637 201.1176,-45.0118"/>
<polygon fill="#000000" stroke="#000000" points="206.4917,-36.4133 205.0077,-47.2783 203.8417,-40.6533 201.1917,-44.8933 201.1917,-44.8933 201.1917,-44.8933 203.8417,-40.6533 197.3757,-42.5082 206.4917,-36.4133 206.4917,-36.4133"/>
</g>
<!-- A7 -->
<g id="node8" class="node">
<title>A7</title>
<polygon fill="none" stroke="#000000" points="425.3328,-252 364.6672,-252 364.6672,-216 431.3328,-216 431.3328,-246 425.3328,-252"/>
<polyline fill="none" stroke="#000000" points="425.3328,-252 425.3328,-246 "/>
<polyline fill="none" stroke="#000000" points="431.3328,-246 425.3328,-246 "/>
<text text-anchor="middle" x="398" y="-231" font-family="Helvetica,sans-Serif" font-size="10.00" fill="#000000">Libraries</text>
</g>
<!-- A8 -->
<g id="node9" class="node">
<title>A8</title>
<polygon fill="none" stroke="#000000" points="389,-180 347,-180 347,-184 335,-184 335,-144 389,-144 389,-180"/>
<polyline fill="none" stroke="#000000" points="335,-180 347,-180 "/>
<text text-anchor="middle" x="362" y="-159" font-family="Helvetica,sans-Serif" font-size="10.00" fill="#000000">java</text>
</g>
<!-- A7&#45;&gt;A8 -->
<g id="edge7" class="edge">
<title>A7&#45;&gt;A8</title>
<path fill="none" stroke="#000000" stroke-dasharray="5,2" d="M388.9157,-215.8314C383.5,-205 376.6438,-191.2876 371.2066,-180.4133"/>
</g>
<!-- A12 -->
<g id="node13" class="node">
<title>A12</title>
<polygon fill="none" stroke="#000000" points="461,-180 419,-180 419,-184 407,-184 407,-144 461,-144 461,-180"/>
<polyline fill="none" stroke="#000000" points="407,-180 419,-180 "/>
<text text-anchor="middle" x="434" y="-159" font-family="Helvetica,sans-Serif" font-size="10.00" fill="#000000">javax</text>
</g>
<!-- A7&#45;&gt;A12 -->
<g id="edge11" class="edge">
<title>A7&#45;&gt;A12</title>
<path fill="none" stroke="#000000" stroke-dasharray="5,2" d="M407.0843,-215.8314C412.5,-205 419.3562,-191.2876 424.7934,-180.4133"/>
</g>
<!-- A9 -->
<g id="node10" class="node">
<title>A9</title>
<polygon fill="#00ff00" stroke="#000000" points="317,-108 275,-108 275,-112 263,-112 263,-72 317,-72 317,-108"/>
<polyline fill="none" stroke="#000000" points="263,-108 275,-108 "/>
<text text-anchor="middle" x="290" y="-87" font-family="Helvetica,sans-Serif" font-size="10.00" fill="#ffffff">awt</text>
</g>
<!-- A8&#45;&gt;A9 -->
<g id="edge8" class="edge">
<title>A8&#45;&gt;A9</title>
<path fill="none" stroke="#000000" stroke-dasharray="5,2" d="M343.8314,-143.8314C335.2848,-135.2848 324.9443,-124.9443 315.6198,-115.6198"/>
<polygon fill="#000000" stroke="#000000" points="308.4133,-108.4133 318.6664,-112.3024 311.9488,-111.9488 315.4844,-115.4844 315.4844,-115.4844 315.4844,-115.4844 311.9488,-111.9488 312.3024,-118.6664 308.4133,-108.4133 308.4133,-108.4133"/>
</g>
<!-- A11 -->
<g id="node12" class="node">
<title>A11</title>
<polygon fill="#a020f0" stroke="#000000" points="389,-108 347,-108 347,-112 335,-112 335,-72 389,-72 389,-108"/>
<polyline fill="none" stroke="#000000" points="335,-108 347,-108 "/>
<text text-anchor="middle" x="362" y="-87" font-family="Helvetica,sans-Serif" font-size="10.00" fill="#000000">util</text>
</g>
<!-- A8&#45;&gt;A11 -->
<g id="edge10" class="edge">
<title>A8&#45;&gt;A11</title>
<path fill="none" stroke="#000000" stroke-dasharray="5,2" d="M362,-143.8314C362,-136.131 362,-126.9743 362,-118.4166"/>
<polygon fill="#000000" stroke="#000000" points="362,-108.4133 366.5001,-118.4132 362,-113.4133 362.0001,-118.4133 362.0001,-118.4133 362.0001,-118.4133 362,-113.4133 357.5001,-118.4133 362,-108.4133 362,-108.4133"/>
</g>
<!-- A10 -->
<g id="node11" class="node">
<title>A10</title>
<polygon fill="#ff0000" stroke="#000000" points="317,-36 275,-36 275,-40 263,-40 263,0 317,0 317,-36"/>
<polyline fill="none" stroke="#000000" points="263,-36 275,-36 "/>
<text text-anchor="middle" x="290" y="-15" font-family="Helvetica,sans-Serif" font-size="10.00" fill="#000000">event</text>
</g>
<!-- A9&#45;&gt;A10 -->
<g id="edge9" class="edge">
<title>A9&#45;&gt;A10</title>
<path fill="none" stroke="#000000" stroke-dasharray="5,2" d="M290,-71.8314C290,-64.131 290,-54.9743 290,-46.4166"/>
<polygon fill="#000000" stroke="#000000" points="290,-36.4133 294.5001,-46.4132 290,-41.4133 290.0001,-46.4133 290.0001,-46.4133 290.0001,-46.4133 290,-41.4133 285.5001,-46.4133 290,-36.4133 290,-36.4133"/>
</g>
<!-- A13 -->
<g id="node14" class="node">
<title>A13</title>
<polygon fill="#0000ff" stroke="#000000" points="461,-108 419,-108 419,-112 407,-112 407,-72 461,-72 461,-108"/>
<polyline fill="none" stroke="#000000" points="407,-108 419,-108 "/>
<text text-anchor="middle" x="434" y="-87" font-family="Helvetica,sans-Serif" font-size="10.00" fill="#ffffff">swing</text>
</g>
<!-- A12&#45;&gt;A13 -->
<g id="edge12" class="edge">
<title>A12&#45;&gt;A13</title>
<path fill="none" stroke="#000000" stroke-dasharray="5,2" d="M434,-143.8314C434,-136.131 434,-126.9743 434,-118.4166"/>
<polygon fill="#000000" stroke="#000000" points="434,-108.4133 438.5001,-118.4132 434,-113.4133 434.0001,-118.4133 434.0001,-118.4133 434.0001,-118.4133 434,-113.4133 429.5001,-118.4133 434,-108.4133 434,-108.4133"/>
</g>
</g>
</svg>
